<svg id="Capa_1" data-name="Capa 1" xmlns="http://www.w3.org/2000/svg" xmlns:xlink="http://www.w3.org/1999/xlink" viewBox="0 0 1690.15 647.66"><defs><style>.cls-1{fill:none;}.cls-2{clip-path:url(#clip-path);}.cls-3{fill:#007aba;}.cls-4{fill:#fff;}</style><clipPath id="clip-path"><circle class="cls-1" cx="323.93" cy="323.83" r="215.89"/></clipPath></defs><title>Logo y versiones</title><rect class="cls-1" width="1690.15" height="647.66"/><path d="M785.64,262.17c0,46.68-29.21,73.6-80.19,73.6H665.64v57.28H620.39V192.57h85.06C756.43,192.57,785.64,217.78,785.64,262.17Zm-43,1.43c0-22.34-14.32-33.51-39.52-33.51H665.64V298h37.52C728.36,298,742.68,286.51,742.68,263.6Z"/><path d="M859.82,192.57V393.05H814.57V192.57Z"/><path d="M1085.5,292.81c0,59-43.82,100.24-107.11,100.24H895.05V192.57H980.1C1042.25,192.57,1085.5,233.53,1085.5,292.81Zm-46.11.29c0-37-25.78-62.44-60.15-62.44H940.3V355h41C1014.76,355,1039.39,329.76,1039.39,293.1Z"/><path d="M1248.17,292h39.24v77c-21.2,15.47-53.56,26.06-81.34,26.06-60.71,0-106.82-44.1-106.82-102.24,0-57.85,47-101.67,109.4-101.67,29.78,0,60.14,11.46,80.48,29.22l-25.49,32.36c-14.9-13.75-35.52-22.34-55-22.34-35.51,0-63,27.21-63,62.43,0,35.51,27.78,62.72,63.3,62.72,12,0,26.34-4.29,39.23-10.88Z"/><path d="M1366.17,192.57V393.05h-45.25V192.57Z"/><path d="M1441.78,192.57l97.37,128.88V192.57h43V393.05h-41.24l-97.09-128.59V393.05h-43.25V192.57Z"/><g class="cls-2"><circle class="cls-3" cx="323.93" cy="323.83" r="215.89"/><path id="Relleno" class="cls-4" d="M149.34,459.69s34.16-39.52,70.1-123.37c32.5-75.84,40.77-130.53,103.14-152.89a74.86,74.86,0,0,1,56.76,2.23c19,8.83,29.88,23.72,36.18,41,9.46,25.85,22.29,49,39.31,64.11s26.77,35,26.77,35-13.11.77-54.37-13.67a23.4,23.4,0,0,0-11.88-1c-10.87,1.94-33,3.64-42.81,4.74-5.26.58-11.59,9.52-13.68,14.38-10.29,23.91-9.19,40.44,1.18,91.85,13.35,66.18,10.52,112.61,10.52,112.61v18H149.34Z"/><path class="cls-3" d="M369.47,537.5V494.16l-6-52.05-9.9-49.53L350.44,342l19-23.94,18-6.29,33.37-3.65,23.55,9.55,35.36,6.94s-43.92-19.5-55.44-23.34c0,0-8-3.94-18.86,0-17.93,6.53-46.05,14.39-99.45-7.36-8-3.19-13.43-2.87,0,18.87,0,0,34.46,54,43.57,114.64a700.45,700.45,0,0,1,7.54,112.28Z"/><path class="cls-3" d="M418,273.45c-4,.15-4.74-7.69-7.84-10.8s-8.14-7.55-2.22-7.55c0,0,16.42,3.55,17,8.44S422,273.3,418,273.45Z"/><path class="cls-3" d="M337.91,237.29s21.18-5.17,25.54-1.9S373.29,248,373.29,248,361,253.86,337.91,237.29Z"/><path class="cls-3" d="M152,454.42l37.87-53.07L220.8,330l38.65-91.57,22.6-33.31,53.52-26.75,33.9,5.35s-38.06-1.79-57.09,16.65-51.74,75.52-79.09,165.31-36.87,116-51.14,126.67-37.47-29.14-37.47-29.14Z"/><circle cx="359.74" cy="244.01" r="8.62"/><path d="M482.86,325.09c-2.84-5.35-5.93-10.42-9.23-15.43a123.52,123.52,0,0,0-10.94-14.32c-1-1.11-2.07-2.19-3.11-3.29l-3.28-3.13-3.12-3c-1-1.05-2-2.08-3-3.14a116.47,116.47,0,0,1-10.72-13.67,144.18,144.18,0,0,1-8.8-15.07c-2.63-5.2-5-10.55-7.16-16-1.09-2.7-2.1-5.44-3.1-8.19L419,225.74c-.51-1.4-1-2.88-1.56-4.31a82,82,0,0,0-8.49-16.56,73.8,73.8,0,0,0-5.76-7.49,69.81,69.81,0,0,0-6.81-6.62,73.09,73.09,0,0,0-7.65-5.67c-1.36-.81-2.7-1.67-4.09-2.42s-2.78-1.53-4.23-2.16a76.48,76.48,0,0,0-18.08-5.87,81.75,81.75,0,0,0-19-1.25c-1.08.07-2.16.17-3.24.28a62.14,62.14,0,0,0-1.67-9.3c-32.77-2.7-60.53,23.13-60.53,23.13s.25,6.47,1.39,16.23c-.68.68-1.36,1.36-2,2.05a135.78,135.78,0,0,0-21,30.24c-2.85,5.36-5.35,10.86-7.73,16.37S244,263.49,242,269.1c-4.05,11.2-7.74,22.47-11.7,33.62l-3,8.34-3.17,8.28c-2.12,5.51-4.41,11-6.77,16.36a582.72,582.72,0,0,1-32.23,62.94c-1.47,2.55-3.06,5-4.59,7.54l-2.31,3.76c-.78,1.24-1.61,2.46-2.41,3.69-3.19,4.93-6.5,9.79-9.87,14.58s-6.89,9.48-10.55,14c-1.81,2.29-3.68,4.52-5.55,6.73-1,1.07-1.89,2.18-2.86,3.23s-2,2.15-2.84,3l10.39,9c1-1.4,1.86-2.6,2.75-3.88s1.7-2.54,2.56-3.81c1.67-2.53,3.33-5.05,4.91-7.62q4.83-7.65,9.32-15.41c3-5.17,6-10.36,8.81-15.61q2.16-3.93,4.25-7.88c1.38-2.64,2.83-5.24,4.16-7.91,10.88-21.19,20.83-42.77,30-64.66L228.19,321l3.43-8.21,3.48-8.18c4.65-10.9,9.36-21.77,14.25-32.49,2.45-5.35,4.92-10.67,7.5-15.91s5.23-10.4,8.07-15.42a136,136,0,0,1,16.29-23.14c.81,4.84,1.81,10,3,15.27a22.94,22.94,0,1,0,16.26-5c-1.94-8.85-3.23-17.25-4.09-24.2a99.9,99.9,0,0,1,15.9-9.64c2.52-1.24,5.12-2.34,7.72-3.42,1.31-.54,2.63-1.05,3.95-1.54s2.6-.9,3.91-1.33a73.72,73.72,0,0,1,16.12-3,70.34,70.34,0,0,1,32.17,5.16c1.29.47,2.51,1.12,3.77,1.68s2.43,1.27,3.66,1.91a63.47,63.47,0,0,1,6.85,4.54,62.53,62.53,0,0,1,6.21,5.43,65.19,65.19,0,0,1,5.44,6.27,73.92,73.92,0,0,1,8.55,14.5c.6,1.3,1.11,2.61,1.67,4l1.69,4.17c1.16,2.76,2.34,5.52,3.59,8.24q3.75,8.19,8.14,16.07A176.86,176.86,0,0,0,435.27,272a123.88,123.88,0,0,0,11.38,14.09c1.05,1.09,2.14,2.15,3.2,3.22l3.36,3.08,3.22,2.91c1,1,2.08,2,3.11,3A133.81,133.81,0,0,1,471,311.51a97.88,97.88,0,0,1,8.2,12.67l-.16,0c-.85-.09-1.71-.19-2.57-.32-1.71-.25-3.43-.56-5.14-.94-3.42-.72-6.82-1.61-10.18-2.62-6.75-2-13.39-4.31-20-6.74l-9.9-3.68-2.47-.92c-.38-.15-.89-.33-1.37-.49s-1-.3-1.46-.43a27.37,27.37,0,0,0-6-.89,28.42,28.42,0,0,0-3.06.07c-.51,0-1,.1-1.52.17l-1.38.2c-1.68.26-3.4.47-5.13.68-3.46.43-7,.79-10.45,1.13-7,.68-14,1.26-21.13,1.87l-2.67.23-1.34.12-.67.06-.34,0-.16,0-.29,0a11.53,11.53,0,0,0-3.91,1.32A19.45,19.45,0,0,0,365,315a39.2,39.2,0,0,0-7.87,9c-.54.82-1,1.67-1.55,2.56s-1,1.93-1.36,2.69q-1.26,2.46-2.41,5A64.88,64.88,0,0,0,348,344.92a51.08,51.08,0,0,0-1.84,11.29,98.05,98.05,0,0,0,.17,11.26,172.69,172.69,0,0,0,3.07,21.61c1.36,7.06,3,14,4.53,20.95l2.4,10.38c.83,3.46,1.49,6.89,2.25,10.34s1.41,6.9,2.07,10.36l1,5.2.88,5.21c.6,3.47,1.19,7,1.69,10.44s1.06,7,1.47,10.47l.66,5.25.57,5.26c.39,3.51.71,7,1,10.54s.54,7,.81,10.55.4,7.05.51,10.58c.24,7,.38,14.13.1,21.12l2.52.15c1.21-28.48-.72-56.87-4.13-85.13l-.66-5.3-.77-5.28c-.51-3.52-1-7.05-1.62-10.56-1.18-7-2.36-14-3.46-21q-.84-5.22-1.51-10.46c-.46-3.49-.88-7-1.24-10.44a198.65,198.65,0,0,1-1.21-20.63,124.29,124.29,0,0,1,1.88-19.67c.56-3.21,1.27-6.45,2.15-9.7.45-1.63,1-3.25,1.5-4.87a21.78,21.78,0,0,1,.84-2.14c.32-.68.7-1.36,1.09-2.05a29.24,29.24,0,0,1,5.71-7.17A6.73,6.73,0,0,1,373,320l2.48-.31,2.62-.3,3.11-.33a69.38,69.38,0,0,1,6.47,18.23c-1.56,1.85-3.69,6.33-2.82,9.71,1.21,4.69,4.72,7.84,7.84,7s4.68-5.25,3.48-9.94c-.85-3.3-2.84-5.83-5-6.76-1.4-6.31-4.25-14.29-6.7-18.61,4.92-.51,9.86-1,14.8-1.59,3.54-.4,7.08-.83,10.65-1.33,1.78-.26,3.56-.56,5.37-.9l1.24-.23c.37-.06.74-.12,1.11-.16a20.88,20.88,0,0,1,2.24-.14,20.41,20.41,0,0,1,4.47.49c.37.08.74.18,1.1.28l1.15.35,2.56.79c1.7.52,3.4,1.07,5.11,1.57l5.15,1.45Q449.7,322,460.2,324.2c3.51.71,7,1.33,10.57,1.89,1.78.27,3.55.52,5.35.71.9.11,1.8.18,2.71.25s1.78.1,2.85.06l2.2-.09ZM324.55,176.71c-1.51.49-3.05,1-4.51,1.49s-2.9,1.06-4.34,1.64q-4.32,1.71-8.49,3.81a111,111,0,0,0-12.09,7c-.24-3.18-.31-5-.31-5s11.38-11.59,32.78-15.45a40.3,40.3,0,0,1,.91,5.51C327.17,176,325.86,176.33,324.55,176.71Z"/><circle class="cls-4" cx="362.74" cy="241.82" r="3"/></g><path class="cls-3" d="M643.38,420.84a16.71,16.71,0,1,0,0,33.42,18.31,18.31,0,0,0,12.42-5l2.94,3.18a23.08,23.08,0,0,1-15.6,6.36c-12.12,0-21.72-9.36-21.72-21.24s9.72-21.06,21.9-21.06a22.71,22.71,0,0,1,15.36,6.12l-2.88,3.48A17.84,17.84,0,0,0,643.38,420.84Z"/><path class="cls-3" d="M718.38,437.58c0,11.82-9.72,21.18-22,21.18s-22-9.36-22-21.18,9.72-21.12,22-21.12S718.38,425.76,718.38,437.58Zm-39.12,0a17.1,17.1,0,0,0,34.2,0,17.11,17.11,0,0,0-34.2,0Z"/><path class="cls-3" d="M742.2,416.58l25.2,34.14V416.58h4.74v42h-4.92L742,424.5v34.08h-4.8v-42Z"/><path class="cls-3" d="M823.44,416.58V421H809.7v37.56h-4.8V421H791.22v-4.44Z"/><path class="cls-3" d="M865,447.84H842.1l-4.68,10.74h-5.1l18.84-42h5l18.78,42H869.7ZM863,443.4l-9.54-21.6-9.42,21.6Z"/><path class="cls-3" d="M910.5,420.84a16.71,16.71,0,1,0,0,33.42,18.31,18.31,0,0,0,12.42-5l2.94,3.18a23.08,23.08,0,0,1-15.6,6.36c-12.12,0-21.72-9.36-21.72-21.24s9.72-21.06,21.9-21.06a22.71,22.71,0,0,1,15.36,6.12l-2.88,3.48A17.84,17.84,0,0,0,910.5,420.84Z"/><path class="cls-3" d="M973,416.58V421H959.28v37.56h-4.8V421H940.8v-4.44Z"/><path class="cls-3" d="M1034.16,421.08c-5.4,0-8.94,2.16-8.94,5.76,0,10.92,23.64,5.22,23.58,20.46,0,7-6.18,11.46-15.18,11.46a24,24,0,0,1-16.08-6.42l2.16-4.14a21.1,21.1,0,0,0,14,5.88c6.06,0,9.84-2.46,9.84-6.54.06-11.22-23.58-5.28-23.58-20.34,0-6.6,5.82-10.8,14.52-10.8a24.85,24.85,0,0,1,13.32,3.9l-2,4.26A22.12,22.12,0,0,0,1034.16,421.08Z"/><path class="cls-3" d="M1110.66,437.58c0,11.82-9.72,21.18-22,21.18s-22-9.36-22-21.18,9.72-21.12,22-21.12S1110.66,425.76,1110.66,437.58Zm-39.12,0a17.1,17.1,0,0,0,34.2,0,17.11,17.11,0,0,0-34.2,0Z"/><path class="cls-3" d="M1136.22,416.58v37.56h18.42v4.44h-23.22v-42Z"/><path class="cls-3" d="M1191.18,454.38c8,0,12.78-4.8,12.78-13.08V416.58h4.8V441.3c0,11-6.6,17.46-17.58,17.46s-17.7-6.48-17.7-17.46V416.58h4.8V441.3C1178.28,449.58,1183.2,454.38,1191.18,454.38Z"/><path class="cls-3" d="M1259,416.58V421H1245.3v37.56h-4.8V421h-13.68v-4.44Z"/><path class="cls-3" d="M1282.8,416.58v42H1278v-42Z"/><path class="cls-3" d="M1347.54,437.58c0,11.82-9.72,21.18-22,21.18s-22-9.36-22-21.18,9.72-21.12,22-21.12S1347.54,425.76,1347.54,437.58Zm-39.12,0a17.1,17.1,0,0,0,34.2,0,17.11,17.11,0,0,0-34.2,0Z"/><path class="cls-3" d="M1373.28,416.58l25.2,34.14V416.58h4.74v42h-4.92l-25.2-34.08v34.08h-4.8v-42Z"/><path class="cls-3" d="M1440.18,421.08c-5.4,0-8.94,2.16-8.94,5.76,0,10.92,23.64,5.22,23.58,20.46,0,7-6.18,11.46-15.18,11.46a24,24,0,0,1-16.08-6.42l2.16-4.14a21.1,21.1,0,0,0,14,5.88c6.06,0,9.84-2.46,9.84-6.54.06-11.22-23.58-5.28-23.58-20.34,0-6.6,5.82-10.8,14.52-10.8a24.85,24.85,0,0,1,13.32,3.9l-2,4.26A22.12,22.12,0,0,0,1440.18,421.08Z"/></svg>