<svg width="378" height="595" viewBox="0 0 378 595" fill="none" xmlns="http://www.w3.org/2000/svg">
<path d="M23.951 307.228C14.7314 301.078 -7.82366 306.211 -21.8914 324.713C-35.9592 343.215 -28.9828 360.86 -19.0721 367.825C-8.56443 375.229 9.31673 378.261 23.1276 356.858C36.9384 335.454 32.9436 313.218 23.951 307.228Z" fill="#BCD6E8"/>
<path d="M92.4454 566.199C89.5774 569.955 91.1558 579.604 98.6574 585.971C106.159 592.339 113.863 589.794 117.096 585.765C120.534 581.494 122.307 574.007 113.563 567.681C104.818 561.355 95.2393 562.535 92.4454 566.199Z" fill="#D1E3EE"/>
<path d="M70.6382 1.04859C68.0763 1.68245 65.392 6.43752 66.4347 11.8331C67.4773 17.2286 71.7228 18.8121 74.5394 18.1868C77.5294 17.5272 80.9185 14.8853 79.3196 9.07385C77.7208 3.2624 73.1355 0.429045 70.6382 1.04859Z" fill="#E6EFF5"/>
<path d="M321.887 20.9293C315.997 24.3086 312.658 38.0824 318.968 50.8487C325.279 63.6151 336.862 64.6035 343.387 61.0673C350.317 57.3239 356.86 48.3423 348.888 34.9251C340.915 21.5078 327.627 17.631 321.887 20.9293Z" fill="#BCD6E8"/>
<path d="M371.971 353.094C369.523 350.963 362.78 351.612 358.003 356.46C353.226 361.309 354.593 366.695 357.212 369.088C359.987 371.631 365.067 373.18 369.878 367.479C374.689 361.778 374.36 355.17 371.971 353.094Z" fill="#E6EFF5"/>
<path d="M302.143 510.29C297.873 506.714 286.323 508.045 278.284 516.52C270.244 524.995 272.765 534.192 277.336 538.213C282.181 542.487 290.949 544.979 299.019 535.041C307.089 525.102 306.308 513.774 302.143 510.29Z" fill="#7AAED1"/>
</svg>
