<svg width="100" height="114" viewBox="0 0 100 114" fill="none" xmlns="http://www.w3.org/2000/svg">
<path d="M92.9543 23.2912L56.9503 1.93237C54.8498 0.680634 52.4497 0.0197754 50.004 0.0197754C47.5583 0.0197754 45.1581 0.680634 43.0577 1.93237L7.04642 23.2912C4.91711 24.5747 3.15785 26.3887 1.94084 28.5555C0.723835 30.7224 0.0908017 33.1679 0.103709 35.6526V78.363C0.0920521 80.8465 0.72568 83.2906 1.94262 85.4561C3.15957 87.6216 4.91816 89.4344 7.04642 90.7173L43.0505 112.069C45.1512 113.32 47.5513 113.98 49.9968 113.98C52.4423 113.98 54.8424 113.32 56.9431 112.069L92.9471 90.7173C95.0778 89.4347 96.8385 87.6211 98.0568 85.4541C99.2751 83.2872 99.9092 80.8412 99.897 78.3558V35.6526C99.91 33.1679 99.2769 30.7224 98.0599 28.5555C96.8429 26.3887 95.0836 24.5747 92.9543 23.2912Z" fill="white"/>
<path d="M92.9543 23.2912L56.9503 1.93237C54.8498 0.680634 52.4497 0.0197754 50.004 0.0197754C47.5583 0.0197754 45.1581 0.680634 43.0577 1.93237L7.04642 23.2912C4.91711 24.5747 3.15785 26.3887 1.94084 28.5555C0.723835 30.7224 0.0908017 33.1679 0.103709 35.6526V78.363C0.0920521 80.8465 0.72568 83.2906 1.94262 85.4561C3.15957 87.6216 4.91816 89.4344 7.04642 90.7173L43.0505 112.069C45.1512 113.32 47.5513 113.98 49.9968 113.98C52.4423 113.98 54.8424 113.32 56.9431 112.069L92.9471 90.7173C95.0778 89.4347 96.8385 87.6211 98.0568 85.4541C99.2751 83.2872 99.9092 80.8412 99.897 78.3558V35.6526C99.91 33.1679 99.2769 30.7224 98.0599 28.5555C96.8429 26.3887 95.0836 24.5747 92.9543 23.2912ZM44.3121 109.886L8.30807 88.5346C6.55889 87.4755 5.11376 85.9822 4.1132 84.1998C3.11265 82.4174 2.59072 80.4066 2.59818 78.363V35.6526C2.59002 33.6089 3.11164 31.5979 4.11227 29.8154C5.11289 28.0329 6.55841 26.5396 8.30807 25.4811L44.3121 4.12228C46.0321 3.097 47.9976 2.55568 50.0004 2.55568C52.0032 2.55568 53.9687 3.097 55.6886 4.12228L91.6638 25.4811C93.129 26.3678 94.3829 27.5633 95.338 28.9842C96.293 30.405 96.9263 32.017 97.1935 33.7076C95.9967 31.1648 93.3076 30.466 90.1715 32.2669L56.1356 53.3304C51.8893 55.8012 48.7604 58.589 48.7531 63.7036V105.643C48.7531 108.705 49.986 110.686 51.8893 111.269C51.266 111.383 50.634 111.444 50.0004 111.449C47.9982 111.448 46.0334 110.908 44.3121 109.886Z" fill="#2F3A3E"/>
<path d="M83.5172 82.4908L74.5486 87.8503C74.4311 87.8975 74.3297 87.9778 74.2568 88.0813C74.1838 88.1849 74.1425 88.3073 74.1377 88.4338V90.7894C74.1377 91.0776 74.3324 91.1928 74.5703 91.0559L83.6758 85.5235C83.7851 85.4417 83.8688 85.3306 83.9173 85.203C83.9658 85.0755 83.9771 84.9368 83.9498 84.8032V82.7357C83.9426 82.4692 83.7335 82.3539 83.5172 82.4908Z" fill="#3AB14A"/>
<path d="M64.4266 62.7599C64.715 62.6159 64.9529 62.7599 64.9601 63.1705L64.989 66.2969C66.0675 65.8073 67.2707 65.6615 68.4351 65.8791C68.6586 65.9367 68.7523 66.2393 68.6658 66.5995L67.9809 69.3441C67.929 69.5512 67.8218 69.7404 67.6709 69.8915C67.6179 69.9438 67.5571 69.9875 67.4907 70.0212C67.4092 70.0652 67.3151 70.0805 67.2239 70.0644C66.0885 69.8132 64.9 70.0038 63.9003 70.5975C63.1841 70.9199 62.5734 71.4377 62.1385 72.0914C61.7036 72.7452 61.4621 73.5082 61.4419 74.293C61.4419 75.7337 62.1629 76.1299 64.679 76.1731C68.0025 76.2307 69.4444 77.6787 69.4805 81.0284C69.4414 82.7559 69.0265 84.4542 68.2645 86.0054C67.5026 87.5566 66.412 88.9235 65.0683 90.0113L65.126 93.08C65.1234 93.2676 65.0739 93.4516 64.982 93.6152C64.8901 93.7787 64.7586 93.9167 64.5997 94.0165L62.7829 95.061C62.4945 95.2051 62.2566 95.061 62.2494 94.6576V91.6393C60.6921 92.2876 59.1133 92.4389 58.1039 92.0355C57.9165 91.9635 57.83 91.6825 57.9093 91.3584L58.5653 88.585C58.6152 88.3655 58.728 88.1652 58.8898 88.0087C58.9411 87.9596 58.9994 87.9183 59.0628 87.8862C59.1093 87.8653 59.1596 87.8545 59.2106 87.8545C59.2615 87.8545 59.3119 87.8653 59.3584 87.8862C60.6436 88.2344 62.0144 88.0609 63.1722 87.4036C63.9919 87.0086 64.6879 86.397 65.1847 85.6352C65.6816 84.8733 65.9604 83.9902 65.9911 83.0814C65.9911 81.5254 65.1332 80.8771 63.1073 80.8627C60.4903 80.8627 58.0607 80.3584 58.0102 76.5405C58.04 74.8932 58.4342 73.2729 59.1646 71.7958C59.895 70.3187 60.9435 69.0214 62.235 67.997L62.1052 64.8562C62.1046 64.666 62.1527 64.4789 62.2448 64.3125C62.3369 64.1461 62.47 64.0059 62.6315 63.9053L64.4266 62.7599Z" fill="white"/>
</svg>
