<svg width="104" height="114" viewBox="0 0 104 114" fill="none" xmlns="http://www.w3.org/2000/svg">
<path d="M102.045 33.7712C102.083 32.0228 101.662 30.2949 100.824 28.7603C99.9561 27.277 98.7042 26.0555 97.2006 25.2246C83.8716 17.5201 70.5379 9.82635 57.1997 2.14334C53.6081 0.0643234 50.1269 0.13808 46.5583 2.24937C41.2537 5.37021 14.6893 20.624 6.7738 25.22C3.51369 27.11 1.92968 30.005 1.92968 33.7666V80.2334C1.89603 81.9449 2.30024 83.6365 3.10387 85.1474C3.97266 86.676 5.24782 87.9334 6.78762 88.78C14.7031 93.3898 41.2721 108.625 46.5767 111.76C50.1453 113.871 53.6265 113.945 57.2227 111.866C70.5487 104.158 83.8823 96.4614 97.2236 88.7754C98.7634 87.9288 100.039 86.6714 100.907 85.1428C101.711 83.6319 102.115 81.9402 102.082 80.2288V33.7712H102.045Z" fill="#004482"/>
<path d="M102.054 80.2334C102.089 81.945 101.684 83.6369 100.88 85.1475C100.682 85.5073 100.459 85.8524 100.212 86.1801L51.9873 57L97.2006 25.2246C98.7028 26.0558 99.9531 27.2773 100.82 28.7603C101.661 30.2937 102.084 32.0221 102.045 33.7712C102.054 49.2601 102.054 80.2334 102.054 80.2334Z" fill="#00599C"/>
<path d="M100.82 28.7603L3.09008 85.1474C2.29002 83.6371 1.88899 81.9471 1.92509 80.238V33.7665C1.92509 30.0049 3.51371 27.11 6.76922 25.22C14.6893 20.624 41.2537 5.37015 46.5629 2.24009C50.1223 0.128803 53.6081 0.0550458 57.1997 2.13407C70.5257 9.84166 83.8593 17.5385 97.2006 25.2246C98.7028 26.0558 99.9531 27.2773 100.82 28.7603Z" fill="#659AD2"/>
<path d="M53.9204 75.7712C50.6296 75.7758 47.3979 74.8957 44.563 73.2228C41.728 71.5499 39.3937 69.1457 37.804 66.2611C37.6413 65.9723 37.4878 65.6772 37.3435 65.3761C35.382 61.3206 34.9742 56.6858 36.1972 52.3495C37.4202 48.0132 40.1891 44.2763 43.9796 41.8467C47.7701 39.4171 52.3189 38.4633 56.7647 39.1661C61.2105 39.8689 65.2445 42.1793 68.1028 45.6599C68.3469 45.955 68.5633 46.2638 68.8073 46.5819C68.9179 46.734 69.0284 46.8861 69.1297 47.0429L85.2783 37.7311C84.8854 37.098 84.474 36.4834 84.0443 35.8872C83.8186 35.5691 83.5838 35.2648 83.3628 34.9652C77.7499 27.6655 69.6085 22.7363 60.5442 21.15C51.4799 19.5636 42.1509 21.4352 34.3972 26.3956C26.6434 31.356 21.0279 39.0451 18.6581 47.9464C16.2883 56.8476 17.3363 66.3147 21.5955 74.4804C21.752 74.7754 21.9132 75.0659 22.056 75.3563C25.184 80.8814 29.6858 85.503 35.1243 88.7726C40.5628 92.0422 46.7533 93.8486 53.0949 94.0165C59.4364 94.1844 65.7137 92.7082 71.3172 89.731C76.9208 86.7538 81.6603 82.3769 85.0757 77.025L69.2862 67.4689C67.6146 70.0208 65.3346 72.1159 62.652 73.5653C59.9695 75.0147 56.9687 75.7728 53.9204 75.7712Z" fill="white"/>
</svg>
