<svg width="60" height="60" viewBox="0 0 60 60" fill="none" xmlns="http://www.w3.org/2000/svg">
<g clip-path="url(#clip0_209_2564)">
<path d="M50.728 35.9001C54.1816 23.0867 49.5768 11.2494 47.3996 6.51947C48.8386 8.3714 50.8657 20.6467 48.6008 31.0826C46.0356 42.9324 36.4882 57.1848 16.2046 53.6686C16.0044 53.631 15.8042 53.606 15.6165 53.5685C17.4934 54.8198 19.4705 55.7207 21.4225 56.2338C31.5581 58.9366 45.3224 56.0085 50.7405 35.9001H50.728Z" fill="#007CBA"/>
<path d="M36.3129 3.99164C36.876 3.99164 37.389 4.05421 37.852 4.15431C43.6956 5.55577 52.6674 18.7445 48.3004 37.9395C44.6841 53.8561 34.7988 56.2211 29.2305 56.2211C27.3536 56.2211 25.4641 55.9708 23.6122 55.4828C19.3577 54.3441 15.4161 51.1533 13.0887 46.9239C10.1857 41.6684 9.81028 35.1116 12.0251 27.9666C16.8176 12.538 29.4307 3.99164 36.3129 3.99164ZM36.3129 0.237732C27.2785 0.237732 13.5767 10.2857 8.44636 26.878C2.82801 45.0344 13.1137 56.5839 22.6612 59.1241C24.7133 59.6747 26.9531 60 29.243 60C38.2774 60 48.2879 54.9823 51.9667 38.7904C56.5965 18.4817 47.3118 2.56516 38.7404 0.513019C37.9771 0.337836 37.1763 0.237732 36.3254 0.237732H36.3129Z" fill="#181A2D"/>
</g>
<defs>
<clipPath id="clip0_209_2564">
<rect width="60" height="60" fill="white"/>
</clipPath>
</defs>
</svg>
