<svg width="60" height="60" viewBox="0 0 60 60" fill="none" xmlns="http://www.w3.org/2000/svg">
<path d="M53.2153 11.1491L50.5289 13.8394C54.04 18.2941 56.1266 23.9124 56.1266 30.0188C56.1266 44.4713 44.3815 56.2461 29.9375 56.2461C15.4935 56.2461 3.74844 44.4713 3.74844 30.0188C3.74844 15.5662 15.4935 3.79145 29.9375 3.79145C36.035 3.79145 41.6576 5.89364 46.1183 9.42231L48.7922 6.74452C43.6443 2.54014 37.0845 0.0375366 29.9375 0.0375366C13.4069 0.0375366 0 13.4515 0 30.0188C0 46.586 13.4069 60 29.9375 60C46.4681 60 59.8751 46.5735 59.8751 30.0188C59.8751 22.8613 57.3761 16.3045 53.2153 11.1491V11.1491Z" fill="#000C13"/>
<path d="M46.893 17.4807L44.2067 20.1835C46.1433 22.9739 47.2679 26.365 47.2679 30.0188C47.2679 39.5913 39.4961 47.3744 29.9376 47.3744C20.3791 47.3744 12.6073 39.5913 12.6073 30.0188C12.6073 20.4463 20.3791 12.6632 29.9376 12.6632C33.5986 12.6632 36.9972 13.8144 39.796 15.7664L42.4949 13.0511C38.9838 10.4484 34.6356 8.9093 29.9376 8.9093C18.2925 8.9093 8.85889 18.3566 8.85889 30.0188C8.85889 41.6809 18.2925 51.1283 29.9376 51.1283C41.5827 51.1283 51.0163 41.6684 51.0163 30.0188C51.0163 25.3264 49.492 20.9844 46.893 17.4807Z" fill="#007CBA"/>
<path d="M40.458 23.9374L37.6717 26.7278C38.0965 27.7414 38.3339 28.855 38.3339 30.0187C38.3339 34.6486 34.573 38.4275 29.9374 38.4275C25.3018 38.4275 21.5409 34.6486 21.5409 30.0187C21.5409 25.3889 25.3018 21.5975 29.9374 21.5975C31.1244 21.5975 32.249 21.8477 33.2735 22.2857L36.0474 19.5078C34.2606 18.4442 32.1615 17.8436 29.9374 17.8436C23.2277 17.8436 17.7925 23.2992 17.7925 30.0187C17.7925 36.7382 23.2277 42.1814 29.9374 42.1814C36.6471 42.1814 42.0824 36.7382 42.0824 30.0187C42.0824 27.8039 41.4951 25.7268 40.458 23.9374V23.9374Z" fill="#000C13"/>
<path d="M51.1911 0V6.10636L30.4748 26.8405C30.2998 26.8154 30.1124 26.7904 29.9375 26.7904C28.1632 26.7904 26.7263 28.2294 26.7263 30.0063C26.7263 31.7831 28.1632 33.2221 29.9375 33.2221C31.7117 33.2221 33.1486 31.7831 33.1486 30.0063C33.1486 29.8436 33.1237 29.6809 33.0987 29.5183L53.84 8.75912H60V0H51.1786H51.1911Z" fill="#007CBA"/>
</svg>
