<svg width="60" height="60" viewBox="0 0 60 60" fill="none" xmlns="http://www.w3.org/2000/svg">
<g clip-path="url(#clip0_382_2692)">
<path d="M30 0.0372925C13.4273 0.0372925 0 13.459 0 30.0249C0 46.5907 13.4273 60.0124 30 60.0124C46.5727 60.0124 60 46.5907 60 30.0249C60 13.459 46.5603 0.0372925 30 0.0372925ZM28.3713 51.7854C15.1181 51.7854 4.36386 41.0481 4.36386 27.7879C4.36386 14.5278 15.1181 3.7904 28.3713 3.7904C41.6245 3.7904 52.3788 14.5278 52.3788 27.7879C52.3788 41.0481 41.637 51.7854 28.3713 51.7854V51.7854Z" fill="#007CBA"/>
<path d="M30 0C13.5143 0 0.161621 13.3596 0.161621 29.826C0.161621 46.2925 13.5267 59.652 30 59.652C46.4733 59.652 59.8384 46.2925 59.8384 29.826C59.8384 13.3596 46.4733 0 30 0ZM30 55.9238C27.5881 55.9238 24.5296 52.208 22.4658 45.7829H37.5342C35.4704 52.208 32.4119 55.9238 30 55.9238ZM30 3.72825C32.4119 3.72825 35.4704 7.44408 37.5342 13.8691H22.4658C24.5296 7.44408 27.5881 3.72825 30 3.72825ZM39.7721 31.6901C39.6602 35.5427 39.2126 39.0099 38.5288 42.0547H21.4588C20.7874 39.0099 20.3398 35.5302 20.2155 31.6901H39.7596H39.7721ZM20.2279 27.9619C20.3398 24.1218 20.7874 20.6421 21.4712 17.5973H38.5412C39.2126 20.6421 39.6602 24.1218 39.7845 27.9619H20.2404H20.2279ZM17.6419 17.5973C16.983 20.7912 16.5852 24.2833 16.4733 27.9619H3.97845C4.23953 24.2336 5.27144 20.7291 6.93742 17.5973H17.6419V17.5973ZM16.4733 31.6901C16.5727 35.3687 16.983 38.8608 17.6419 42.0547H6.94985C5.28387 38.923 4.25196 35.406 3.99088 31.6901H16.4857H16.4733ZM42.3456 42.0547C43.0046 38.8608 43.4024 35.3687 43.5143 31.6901H56.0091C55.748 35.4184 54.7161 38.923 53.0501 42.0547H42.3581H42.3456ZM43.5143 27.9619C43.4148 24.2833 43.0046 20.7912 42.3456 17.5973H53.0377C54.7037 20.7291 55.7356 24.2461 55.9967 27.9619H43.5019H43.5143ZM50.6133 13.8691H41.438C40.3937 10.2403 39.0012 7.14582 37.3601 4.80944C42.6813 6.37531 47.2814 9.59403 50.6009 13.8691H50.6133ZM22.6274 4.80944C20.9863 7.14582 19.6063 10.2403 18.5495 13.8691H9.38665C12.7062 9.59403 17.3187 6.37531 22.6274 4.80944ZM9.38665 45.7829H18.562C19.6063 49.4118 20.9988 52.5062 22.6399 54.8426C17.3187 53.2767 12.7186 50.058 9.39908 45.7829H9.38665ZM37.3726 54.8426C39.0137 52.5062 40.3937 49.4118 41.4505 45.7829H50.6258C47.3062 50.058 42.6937 53.2767 37.385 54.8426H37.3726Z" fill="#000C13"/>
</g>
<defs>
<clipPath id="clip0_382_2692">
<rect width="60" height="60" fill="white"/>
</clipPath>
</defs>
</svg>
