<svg width="824" height="1033" viewBox="0 0 824 1033" fill="none" xmlns="http://www.w3.org/2000/svg">
<path d="M93.5168 327.601C84.9094 315.256 54.0598 310.658 27.3935 327.205C0.727265 343.751 0.935604 369.577 10.0169 383.295C19.6348 397.867 40.6454 410.523 68.3968 390.168C96.1481 369.813 101.916 339.631 93.5168 327.601Z" fill="#E6EFF5"/>
<path d="M811.816 366.067C806.207 363.85 794.796 369.166 789.431 380.627C784.065 392.087 789.797 400.68 795.867 403.252C802.305 405.989 812.165 405.555 817.062 392.579C821.958 379.604 817.286 368.225 811.816 366.067Z" fill="#E6EFF5"/>
<path d="M649.433 2.60045C638.489 8.88345 632.283 34.4928 644.01 58.2289C655.736 81.9651 677.261 83.8029 689.386 77.2281C702.262 70.268 714.421 53.5688 699.607 28.6224C684.792 3.67607 660.1 -3.53199 649.433 2.60045Z" fill="#BCD6E8"/>
<path d="M715.874 731.546C708.173 725.092 687.345 727.495 672.847 742.787C658.348 758.079 662.894 774.674 671.137 781.93C679.875 789.642 695.686 794.139 710.24 776.205C724.793 758.272 723.385 737.833 715.874 731.546Z" fill="#BCD6E8"/>
<path d="M103.83 965.064C94.3147 969.813 87.9436 990.883 96.7903 1011.19C105.637 1031.5 123.723 1033.99 134.248 1029.05C145.424 1023.83 156.425 1010.45 145.026 988.995C133.626 967.539 113.104 960.428 103.83 965.064Z" fill="#90BAD8"/>
<path d="M119.274 42.9496C114.513 44.1281 109.525 52.9691 111.462 63.0009C113.4 73.0327 121.289 75.9769 126.523 74.8143C132.079 73.588 138.377 68.6759 135.406 57.8708C132.435 47.0657 123.914 41.7977 119.274 42.9496Z" fill="#E6EFF5"/>
</svg>
