<svg width="375" height="1689" viewBox="0 0 375 1689" fill="none" xmlns="http://www.w3.org/2000/svg">
<path d="M163.817 449.067C158.208 446.849 146.796 452.166 141.431 463.626C136.066 475.087 141.798 483.68 147.868 486.251C154.306 488.989 164.166 488.554 169.062 475.579C173.958 462.603 169.287 451.225 163.817 449.067Z" fill="#E6EFF5"/>
<path d="M317.433 81.6005C306.489 87.8835 300.283 113.493 312.01 137.229C323.736 160.965 345.261 162.803 357.386 156.228C370.262 149.268 382.421 132.569 367.607 107.622C352.792 82.6761 328.1 75.4681 317.433 81.6005Z" fill="#BCD6E8"/>
<path d="M353.874 780.545C346.173 774.092 325.345 776.495 310.847 791.787C296.348 807.079 300.894 823.674 309.137 830.93C317.875 838.641 333.686 843.138 348.24 825.205C362.793 807.272 361.385 786.832 353.874 780.545Z" fill="#BCD6E8"/>
<path d="M13.8306 1621.06C4.31523 1625.81 -2.0559 1646.88 6.79082 1667.19C15.6375 1687.5 33.7237 1689.99 44.2483 1685.05C55.4246 1679.83 66.426 1666.45 55.0265 1644.99C43.627 1623.54 23.1049 1616.43 13.8306 1621.06Z" fill="#90BAD8"/>
<path d="M17.2735 1.9494C12.513 3.12792 7.52493 11.9689 9.46243 22.0007C11.3999 32.0325 19.2889 34.9767 24.5228 33.8141C30.079 32.5878 36.3767 27.6756 33.4057 16.8706C30.4346 6.06549 21.9141 0.7975 17.2735 1.9494Z" fill="#E6EFF5"/>
</svg>
