<svg width="834" height="1104" viewBox="0 0 834 1104" fill="none" xmlns="http://www.w3.org/2000/svg">
<rect x="0.291016" width="834" height="1104" fill="#E6EFF5"/>
<g style="mix-blend-mode:lighten">
<path fill-rule="evenodd" clip-rule="evenodd" d="M-107.698 340.798H155.39C152.467 323.752 139.346 310.188 122.532 306.612C121.978 283.726 103.252 265.343 80.2327 265.343C79.573 265.343 78.9167 265.359 78.2643 265.388L78.2643 265.343C78.2643 243.062 60.202 225 37.9209 225C18.8095 225 2.80183 238.289 -1.36584 256.13C-3.29311 255.72 -5.2924 255.504 -7.34218 255.504C-23.102 255.504 -35.8778 268.279 -35.8778 284.039C-35.8778 284.351 -35.8728 284.661 -35.8629 284.971C-38.7235 284.36 -41.6912 284.039 -44.7339 284.039C-65.759 284.039 -83.2023 299.375 -86.4887 319.47C-86.6736 319.465 -86.8592 319.463 -87.0453 319.463C-98.4575 319.463 -107.709 328.714 -107.709 340.126C-107.709 340.351 -107.705 340.575 -107.698 340.798Z" fill="url(#paint0_linear_507_7104)"/>
</g>
<g style="mix-blend-mode:lighten">
<path fill-rule="evenodd" clip-rule="evenodd" d="M718.941 89.9341C720.113 85.3539 720.736 80.5539 720.736 75.6085C720.736 43.7879 694.94 17.9922 663.12 17.9922C636.991 17.9922 614.924 35.3852 607.866 59.225C603.985 58.5182 599.986 58.149 595.901 58.149C559.259 58.149 529.555 87.8531 529.555 124.495C529.555 125.067 529.562 125.637 529.577 126.205C525.098 125.088 520.412 124.495 515.587 124.495C485.831 124.495 461.343 147.053 458.291 176H834.039C827.493 151.372 805.042 133.225 778.352 133.225C777.03 133.225 775.717 133.269 774.417 133.357C765.936 109.906 744.613 92.6003 718.941 89.9341Z" fill="url(#paint1_linear_507_7104)"/>
</g>
<g style="mix-blend-mode:lighten">
<path fill-rule="evenodd" clip-rule="evenodd" d="M700.789 986.389L700.789 986.46C699.763 986.413 698.73 986.389 697.691 986.389C661.45 986.389 631.968 1015.27 631.097 1051.23C623.998 1052.74 617.317 1055.37 611.252 1058.94C604.91 1041.86 588.435 1029.68 569.111 1029.68C561.642 1029.68 554.599 1031.5 548.402 1034.72C537.175 996.081 501.452 967.837 459.119 967.837C413.86 967.837 376.156 1000.12 367.865 1042.87C359.748 1039.36 350.793 1037.41 341.382 1037.41C333.324 1037.41 325.6 1038.84 318.451 1041.45C314.231 1029.78 306.691 1019.15 296.042 1011.09C266.723 988.909 224.939 994.649 202.715 1023.91C199.821 1027.72 197.402 1031.74 195.447 1035.9C195.069 1035.59 194.684 1035.29 194.293 1035C174.52 1020.04 146.34 1023.91 131.351 1043.64C129.402 1046.21 127.771 1048.92 126.453 1051.72C110.91 1044.81 93.4352 1044.56 77.9857 1050.43C78.0107 1049.7 78.0233 1048.97 78.0233 1048.23C78.0233 1013.22 49.5862 984.843 14.5073 984.843C-20.5715 984.843 -49.0085 1013.22 -49.0085 1048.23V1048.3C-50.0352 1048.26 -51.0679 1048.23 -52.1061 1048.23C-69.8917 1048.23 -86.0493 1055.19 -97.9963 1066.52C-103.545 1056.54 -114.215 1049.78 -126.467 1049.78C-144.435 1049.78 -159 1064.31 -159 1082.25C-159 1090.56 -155.867 1098.15 -150.715 1103.89H197.399C198.42 1102.96 199.405 1101.98 200.35 1100.94C201.017 1101.94 201.713 1102.93 202.439 1103.89H993.583V1104C993.583 1103.96 993.583 1103.93 993.583 1103.89C993.583 1085.96 979.018 1071.42 961.05 1071.42C960.757 1071.42 960.465 1071.43 960.174 1071.43C955 1039.86 927.538 1015.76 894.436 1015.76C889.646 1015.76 884.973 1016.27 880.469 1017.23C880.485 1016.74 880.493 1016.25 880.493 1015.76C880.493 991.002 860.379 970.928 835.567 970.928C832.34 970.928 829.192 971.268 826.158 971.913C819.596 943.88 794.394 923 764.305 923C729.226 923 700.789 951.38 700.789 986.389ZM797.63 1040.36C797.555 1040.41 797.48 1040.46 797.404 1040.5H798.092C798.025 1040.4 797.959 1040.3 797.893 1040.2C797.806 1040.25 797.718 1040.31 797.63 1040.36Z" fill="url(#paint2_linear_507_7104)"/>
</g>
<path fill-rule="evenodd" clip-rule="evenodd" d="M734.291 805.5C734.291 805.633 734.29 805.767 734.289 805.9C751.25 809.342 764.747 822.323 768.937 839H631.534C630.725 836.308 630.291 833.455 630.291 830.5C630.291 814.208 643.499 801 659.791 801C661.063 801 662.315 801.08 663.544 801.237C665.65 783.641 680.628 770 698.791 770C718.397 770 734.291 785.894 734.291 805.5Z" fill="url(#paint3_linear_507_7104)"/>
<defs>
<linearGradient id="paint0_linear_507_7104" x1="23.8403" y1="225" x2="23.8403" y2="340.798" gradientUnits="userSpaceOnUse">
<stop offset="0.203646" stop-color="white"/>
<stop offset="1" stop-color="#E6EFF5"/>
</linearGradient>
<linearGradient id="paint1_linear_507_7104" x1="646.165" y1="17.9922" x2="646.165" y2="176" gradientUnits="userSpaceOnUse">
<stop offset="0.203646" stop-color="white"/>
<stop offset="1" stop-color="#E6EFF5"/>
</linearGradient>
<linearGradient id="paint2_linear_507_7104" x1="417.291" y1="923" x2="417.291" y2="1104" gradientUnits="userSpaceOnUse">
<stop offset="0.203646" stop-color="white"/>
<stop offset="1" stop-color="#E6EFF5"/>
</linearGradient>
<linearGradient id="paint3_linear_507_7104" x1="699.614" y1="770" x2="699.614" y2="839" gradientUnits="userSpaceOnUse">
<stop offset="0.203646" stop-color="white"/>
<stop offset="1" stop-color="#E6EFF5"/>
</linearGradient>
</defs>
</svg>
