<svg width="34" height="34" viewBox="0 0 34 34" fill="none" xmlns="http://www.w3.org/2000/svg">
<path d="M6.5 0.5H2C1.60218 0.5 1.22064 0.658034 0.939339 0.939339C0.658034 1.22064 0.5 1.60218 0.5 2V32C0.5 32.3978 0.658034 32.7794 0.939339 33.0607C1.22064 33.342 1.60218 33.5 2 33.5H6.5V0.5Z" fill="#61A2CA"/>
<path d="M9.5 33.5H24.5V0.5H9.5V33.5ZM17 27.5C16.6022 27.5 16.2206 27.342 15.9393 27.0607C15.658 26.7794 15.5 26.3978 15.5 26C15.5 25.6022 15.658 25.2206 15.9393 24.9393C16.2206 24.658 16.6022 24.5 17 24.5C17.3978 24.5 17.7794 24.658 18.0607 24.9393C18.342 25.2206 18.5 25.6022 18.5 26C18.5 26.3978 18.342 26.7794 18.0607 27.0607C17.7794 27.342 17.3978 27.5 17 27.5ZM17 6.5C17.3978 6.5 17.7794 6.65803 18.0607 6.93934C18.342 7.22064 18.5 7.60218 18.5 8C18.5 8.39782 18.342 8.77936 18.0607 9.06066C17.7794 9.34197 17.3978 9.5 17 9.5C16.6022 9.5 16.2206 9.34197 15.9393 9.06066C15.658 8.77936 15.5 8.39782 15.5 8C15.5 7.60218 15.658 7.22064 15.9393 6.93934C16.2206 6.65803 16.6022 6.5 17 6.5ZM17 15.5C17.3978 15.5 17.7794 15.658 18.0607 15.9393C18.342 16.2206 18.5 16.6022 18.5 17C18.5 17.3978 18.342 17.7794 18.0607 18.0607C17.7794 18.342 17.3978 18.5 17 18.5C16.6022 18.5 16.2206 18.342 15.9393 18.0607C15.658 17.7794 15.5 17.3978 15.5 17C15.5 16.6022 15.658 16.2206 15.9393 15.9393C16.2206 15.658 16.6022 15.5 17 15.5Z" fill="#007CBA"/>
<path d="M32 0.5H27.5V33.5H32C32.3978 33.5 32.7794 33.342 33.0607 33.0607C33.342 32.7794 33.5 32.3978 33.5 32V2C33.5 1.60218 33.342 1.22064 33.0607 0.939339C32.7794 0.658034 32.3978 0.5 32 0.5Z" fill="#90BAD8"/>
</svg>
