<svg width="386" height="497" viewBox="0 0 386 497" fill="none" xmlns="http://www.w3.org/2000/svg">
<path d="M65.951 53.9876C56.7314 47.8377 34.1763 52.9708 20.1086 71.4728C6.04083 89.9748 13.0172 107.62 22.9279 114.584C33.4356 121.989 51.3167 125.021 65.1276 103.617C78.9384 82.2139 74.9436 59.9778 65.951 53.9876Z" fill="#BCD6E8"/>
<path d="M161.55 468.434C158.682 472.189 160.26 481.838 167.762 488.206C175.264 494.574 182.967 492.029 186.201 488C189.638 483.729 191.412 476.241 182.667 469.916C173.923 463.59 164.344 464.77 161.55 468.434Z" fill="#D1E3EE"/>
<path d="M34.1477 398.502C31.5858 399.136 28.9015 403.891 29.9442 409.286C30.9868 414.682 35.2323 416.265 38.0489 415.64C41.0389 414.981 44.428 412.339 42.8292 406.527C41.2303 400.716 36.645 397.882 34.1477 398.502Z" fill="#E6EFF5"/>
<path d="M321.887 1.9293C315.997 5.30857 312.658 19.0824 318.968 31.8487C325.279 44.6151 336.862 45.6035 343.387 42.0673C350.317 38.3239 356.86 29.3423 348.888 15.9251C340.915 2.50781 327.627 -1.369 321.887 1.9293Z" fill="#BCD6E8"/>
<path d="M380.542 175.559C378.094 173.428 371.351 174.077 366.574 178.925C361.797 183.774 363.164 189.16 365.783 191.553C368.558 194.096 373.639 195.644 378.45 189.943C383.26 184.242 382.931 177.635 380.542 175.559Z" fill="#E6EFF5"/>
<path d="M371.143 389.29C366.873 385.714 355.323 387.045 347.284 395.52C339.244 403.995 341.765 413.192 346.336 417.213C351.181 421.487 359.949 423.979 368.019 414.041C376.089 404.102 375.308 392.774 371.143 389.29Z" fill="#7AAED1"/>
</svg>
