<svg width="834" height="503" viewBox="0 0 834 503" fill="none" xmlns="http://www.w3.org/2000/svg">
<path d="M639.633 426.366C635.301 422.738 623.587 424.089 615.432 432.685C607.277 441.282 609.834 450.611 614.47 454.69C619.385 459.025 628.278 461.553 636.464 451.472C644.65 441.39 643.858 429.9 639.633 426.366Z" fill="#7AAED1"/>
<path d="M595.809 0.818519C592.363 2.79556 590.409 10.8539 594.101 18.3228C597.793 25.7917 604.57 26.37 608.387 24.3011C612.442 22.1111 616.27 16.8564 611.605 9.0067C606.941 1.15698 599.167 -1.11114 595.809 0.818519Z" fill="#BCD6E8"/>
<path d="M867.777 332.744C863.274 322.896 841.889 315.573 820.69 323.723C799.49 331.873 796.223 350.124 800.882 361.004C805.811 372.558 819.115 384.266 841.592 373.572C864.068 362.878 872.173 342.344 867.777 332.744Z" fill="#E6EFF5"/>
<path d="M179.397 415.206C167.178 422.12 159.974 450.787 172.685 477.578C185.397 504.37 209.251 506.705 222.783 499.479C237.154 491.829 250.85 473.239 234.728 445.05C218.607 416.86 191.305 408.457 179.397 415.206Z" fill="#BCD6E8"/>
<path d="M15.0032 154.954C1.73804 147.106 -28.9094 155.921 -46.656 182.662C-64.4025 209.404 -53.2029 233.38 -38.9118 242.307C-23.758 251.8 1.17385 254.671 18.3066 223.921C35.4393 193.17 27.941 162.597 15.0032 154.954Z" fill="#D1E3EE"/>
<path d="M191.88 34.8243C184.979 36.5316 177.749 49.3392 180.558 63.8719C183.366 78.4046 194.801 82.6698 202.387 80.9856C210.441 79.209 219.569 72.093 215.263 56.4401C210.956 40.7872 198.606 33.1556 191.88 34.8243Z" fill="#E6EFF5"/>
</svg>
