<svg width="114" height="114" viewBox="0 0 114 114" fill="none" xmlns="http://www.w3.org/2000/svg">
<path d="M0 0H114V114H0V0Z" fill="#F0DB4F"/>
<path d="M104.67 86.8113C103.835 81.6098 100.443 77.2427 90.398 73.1681C86.9087 71.5643 83.0184 70.4158 81.8589 67.7715C81.4471 66.2328 81.3929 65.3658 81.653 64.4339C82.4007 61.4105 86.0092 60.4677 88.8701 61.3346C90.7123 61.9523 92.4569 63.372 93.5081 65.6367C98.4279 62.4509 98.417 62.4725 101.852 60.2836C100.595 58.333 99.9233 57.4335 99.0997 56.5992C96.1413 53.2941 92.1102 51.5927 85.6625 51.7228C84.5463 51.8636 83.4194 52.0152 82.3032 52.1562C79.0848 52.969 76.018 54.6595 74.2191 56.9243C68.8226 63.0469 70.3613 73.7641 76.9283 78.1747C83.3976 83.0295 92.9012 84.1348 94.1149 88.6753C95.2961 94.2344 90.0297 96.0332 84.7955 95.394C80.9378 94.592 78.7922 92.6306 76.4731 89.0654C72.2036 91.5361 72.2036 91.5361 67.8149 94.0611C68.8552 96.3367 69.9496 97.3662 71.6943 99.3384C79.9517 107.715 100.617 107.303 104.323 94.6246C104.475 94.191 105.472 91.2868 104.67 86.8113ZM61.9739 52.3945H51.3108C51.3108 61.6056 51.2675 70.7516 51.2675 79.9626C51.2675 85.8252 51.571 91.2001 50.6174 92.8473C49.0569 96.0873 45.0149 95.6864 43.1727 95.0578C41.298 94.1367 40.3444 92.8255 39.239 90.9725C38.9356 90.4416 38.708 90.0298 38.6321 89.9973C35.7388 91.7636 32.8562 93.5407 29.9629 95.3071C31.4043 98.2655 33.5281 100.834 36.2481 102.502C40.3117 104.941 45.7733 105.688 51.4843 104.377C55.2012 103.294 58.4087 101.051 60.0883 97.637C62.5157 93.1615 61.9956 87.7433 61.9739 81.7507C62.0281 71.9761 61.9739 62.2016 61.9739 52.3945Z" fill="#323330"/>
</svg>
