<svg width="50" height="60" viewBox="0 0 50 60" fill="none" xmlns="http://www.w3.org/2000/svg">
<path d="M46.2425 3.75V35.05C46.2425 43.575 31.8512 52.4625 25 55.85C18.1488 52.45 3.75752 43.575 3.75752 35.05V3.75H46.2425ZM50 0H0V35.05C0 48.825 25 60 25 60C25 60 50 48.825 50 35.05V0Z" fill="#000C13"/>
<path d="M34.732 20.625H15.2681C14.955 20.625 14.7045 20.875 14.7045 21.1875V38.3625C14.7045 38.675 14.955 38.925 15.2681 38.925H34.732C35.0451 38.925 35.2956 38.675 35.2956 38.3625V21.1875C35.2956 20.875 35.0451 20.625 34.732 20.625V20.625ZM26.5532 30.2875V34.525C26.5532 34.6375 26.4655 34.725 26.3528 34.725H23.6599C23.5472 34.725 23.4595 34.6375 23.4595 34.525V30.2875C22.6078 29.7625 22.0441 28.8375 22.0441 27.775C22.0441 26.1375 23.3718 24.8125 25.0126 24.8125C26.6534 24.8125 27.981 26.1375 27.981 27.775C27.981 28.8375 27.4174 29.7625 26.5657 30.2875H26.5532Z" fill="#007CBA"/>
<path d="M28.6698 12.8875H21.3301C19.3637 12.8875 17.7605 14.4875 17.7605 16.45V19.8H21.518V16.6375H28.4819V19.8H32.2395V16.45C32.2395 14.4875 30.6363 12.8875 28.6698 12.8875V12.8875Z" fill="#007CBA"/>
</svg>
