<svg width="48" height="48" viewBox="0 0 48 48" fill="none" xmlns="http://www.w3.org/2000/svg">
<path d="M48 23.9989C48 35.4203 40.0208 44.9797 29.3314 47.4031L29.1846 47.4365L29.0635 47.4632H29.0479C28.6032 47.5588 28.1516 47.6418 27.6928 47.7122C26.4716 47.9004 25.2378 47.9948 24.0022 47.9945C20.4528 47.9937 16.9477 47.206 13.7392 45.688C10.5308 44.17 7.69873 41.9595 5.44698 39.2156C5.28802 39.0222 5.13128 38.8265 4.97899 38.6275L4.89339 38.5164C4.77334 38.3585 4.65513 38.1988 4.53878 38.0372C1.58282 33.9538 -0.0058689 29.04 1.6292e-05 23.9989C1.6292e-05 10.7444 10.7439 0 23.9978 0C37.2517 0 48 10.7444 48 23.9989Z" fill="#007CBA"/>
<path d="M41.5274 24.2078C41.5274 24.2078 40.4881 24.2679 37.3966 23.3185H37.3822C36.8197 23.1462 36.1894 22.9394 35.4846 22.6926C35.0607 22.5449 34.6059 22.5089 34.164 22.5881C33.1247 22.7726 31.1571 22.9394 29.9398 23.0595C29.7409 23.0784 29.5619 23.0972 29.4096 23.1139C28.8249 23.1795 28.1212 24.1734 27.8889 24.7125C27.8478 24.8092 27.8077 24.9037 27.7699 24.9982C27.3295 26.0377 27.0994 27.1543 27.093 28.2832C27.0892 28.9653 27.1311 29.6468 27.2186 30.3232C27.3653 31.546 27.6354 33.0168 28.0201 34.9233C29.5041 42.2804 29.1895 47.442 29.1895 47.442L29.0683 47.4686H29.0528C28.6081 47.5642 28.1564 47.6473 27.6977 47.7177C26.4765 47.9059 25.2427 48.0003 24.0071 48C20.4565 47.9992 16.9502 47.2109 13.7409 45.6919C10.5316 44.1729 7.69905 41.961 5.44737 39.2155C5.2884 39.0221 5.13166 38.8264 4.97937 38.6274C5.99796 37.2915 6.93777 35.8973 7.79401 34.452C8.52324 33.2425 9.33806 31.7917 10.1985 30.0931C10.9055 28.6935 11.6436 27.126 12.3895 25.3873C13.3644 23.1117 14.1436 21.0073 14.8973 19.0985C15.3197 18.0291 15.7355 17.0208 16.1735 16.0781V16.067C17.2673 13.7091 18.5023 11.7637 20.351 10.2996C21.404 9.47462 22.5865 8.83 23.8503 8.39193C24.1149 8.29743 24.3828 8.21517 24.6529 8.14736C25.0702 8.04094 25.495 7.96661 25.9235 7.92502C27.3736 7.78081 28.8358 8.02683 30.1588 8.63761C32.2709 9.61811 33.4804 11.2745 34.1807 13.1955C35.2323 16.0692 36.6585 18.6427 38.5505 20.3214C40.4425 22 41.5274 24.2078 41.5274 24.2078Z" fill="white"/>
<path d="M41.1832 24.0279C41.1087 24.0202 41.0331 24.0113 40.9609 23.999C40.7719 23.9724 40.5807 23.9368 40.3906 23.8957C40.0104 23.8156 39.6336 23.7167 39.259 23.6044C38.5097 23.3821 37.7705 23.1253 37.0357 22.8551L35.9352 22.446L35.6606 22.3426L35.5094 22.2893C35.455 22.2715 35.3983 22.2559 35.346 22.2404C35.1279 22.1836 34.9043 22.1508 34.679 22.1425C34.5652 22.139 34.4513 22.1416 34.3378 22.1503C34.2811 22.1503 34.2266 22.1614 34.1688 22.1692L34.0154 22.1914C33.8287 22.2203 33.6375 22.2437 33.4451 22.2659C33.0616 22.3148 32.6726 22.3549 32.2835 22.3927C31.5054 22.4683 30.7217 22.5327 29.9346 22.6005L29.6378 22.6261L29.4889 22.6395L29.4144 22.6461H29.3766H29.3588H29.3266C29.1741 22.6681 29.0269 22.7175 28.8919 22.7918C28.7771 22.8569 28.6688 22.9329 28.5684 23.0185C28.2267 23.3068 27.9316 23.6461 27.6936 24.0246C27.6336 24.1158 27.5824 24.2103 27.5213 24.3092C27.4601 24.4081 27.4101 24.5237 27.3701 24.6082C27.2767 24.7906 27.1878 24.9758 27.1033 25.1641C26.9241 25.5448 26.779 25.9406 26.6698 26.3469C26.5554 26.7564 26.4868 27.1774 26.4652 27.602C26.4476 28.0193 26.4539 28.4372 26.4841 28.8537C26.5477 29.6609 26.6617 30.4632 26.8254 31.2561C26.9766 32.0409 27.1589 32.8124 27.3301 33.5839L27.5958 34.7379C27.688 35.1225 27.7625 35.5038 27.8459 35.8874C27.9293 36.2709 28.0037 36.6544 28.076 37.039L28.1871 37.616L28.285 38.1963C28.3517 38.5821 28.4173 38.9689 28.4728 39.3569C28.5284 39.7449 28.5907 40.1351 28.6362 40.5208L28.7096 41.1045L28.773 41.6892C28.8174 42.0794 28.8519 42.4674 28.8841 42.8609C28.9164 43.2545 28.9442 43.6391 28.9731 44.0337C29.002 44.4284 29.0175 44.8175 29.0298 45.2099C29.0553 45.9636 29.072 46.7218 29.0442 47.47C28.5996 47.5656 28.1479 47.6486 27.6891 47.719C27.7235 43.6367 27.4414 39.558 26.8454 35.5194C25.8372 28.7737 22.0098 22.7729 22.0098 22.7729C20.5169 20.3561 21.1205 20.3205 22.0098 20.6751C27.9448 23.093 31.0707 22.2192 33.0639 21.4933C34.2677 21.0553 35.1604 21.4933 35.1604 21.4933C36.3109 21.8779 40.3873 23.6755 41.1832 24.0279Z" fill="#007CBA"/>
<path d="M34.46 18.3983C34.0154 18.415 33.9331 17.5435 33.5885 17.1977C33.2439 16.852 32.6836 16.3595 33.3417 16.3595C33.3417 16.3595 35.167 16.7542 35.2315 17.2967C35.296 17.8392 34.9047 18.3817 34.46 18.3983Z" fill="#007CBA"/>
<path d="M25.556 14.3795C25.556 14.3795 27.9093 13.8048 28.394 14.1683C28.8786 14.5318 29.4878 15.5701 29.4878 15.5701C29.4878 15.5701 28.1172 16.2216 25.556 14.3795Z" fill="#007CBA"/>
<path d="M19.2535 12.1942C19.3436 12.7323 19.4547 13.3059 19.587 13.8918C19.2909 14.1305 19.0521 14.4326 18.8882 14.7758C18.7243 15.119 18.6395 15.4947 18.6399 15.875C18.6395 16.059 18.6596 16.2425 18.7 16.422C17.1359 19.518 15.4529 23.6234 13.92 28.6505C11.1198 37.8407 10.0026 41.0346 8.60527 42.412C7.45534 41.4473 6.39804 40.3773 5.44714 39.2159L5.48049 39.1681C5.57943 39.028 5.67058 38.8868 5.76507 38.7456C5.95071 38.4644 6.13524 38.1831 6.31088 37.8985C6.66882 37.3316 7.01417 36.7605 7.34691 36.1854C7.6804 35.6096 8.01389 35.0337 8.32625 34.449C8.48633 34.1585 8.64381 33.8668 8.7987 33.5741C8.9521 33.2806 9.11329 32.9927 9.26113 32.6959C10.4698 30.3398 11.5815 27.9438 12.596 25.5077L13.3597 23.6857L13.741 22.773L14.1278 21.8636C14.6447 20.6508 15.1683 19.4424 15.713 18.2518C15.9854 17.6582 16.2588 17.0656 16.5456 16.4842C16.8324 15.9028 17.127 15.327 17.4427 14.77C17.9548 13.8506 18.5617 12.9873 19.2535 12.1942Z" fill="#007CBA"/>
<path d="M27.1041 8.52094C25.7135 8.69214 23.8915 9.13793 22.7187 10.2741C22.1441 10.8572 21.6264 11.4937 21.1725 12.175C21.0757 11.6192 21.0024 11.1045 20.9501 10.6431C21.5041 10.2309 22.0959 9.87205 22.7176 9.57148C22.9966 9.43252 23.2857 9.31135 23.5747 9.19017C23.7203 9.13014 23.867 9.07901 24.0193 9.02009C24.1716 8.96117 24.3084 8.92004 24.454 8.87112C25.0367 8.69365 25.6373 8.58179 26.2448 8.53762C26.5307 8.51631 26.8176 8.51074 27.1041 8.52094Z" fill="#007CBA"/>
<path d="M27.9826 16.0852C28.5118 16.0852 28.9408 15.6561 28.9408 15.1269C28.9408 14.5977 28.5118 14.1686 27.9826 14.1686C27.4534 14.1686 27.0244 14.5977 27.0244 15.1269C27.0244 15.6561 27.4534 16.0852 27.9826 16.0852Z" fill="black"/>
<path d="M41.6668 24.1392C41.3511 23.5433 41.0077 22.9808 40.6408 22.4239C40.2755 21.8641 39.8694 21.332 39.4258 20.8319C39.3146 20.7085 39.1957 20.5885 39.0801 20.4662L38.7155 20.1171L38.3687 19.7836C38.2575 19.6669 38.1463 19.5524 38.0352 19.4345C37.6016 18.9583 37.2036 18.4507 36.8446 17.916C36.4849 17.3767 36.1582 16.8162 35.8664 16.2374C35.574 15.6593 35.3106 15.0645 35.0705 14.4587C34.9493 14.1574 34.837 13.8528 34.7259 13.5482L34.5647 13.088C34.508 12.9312 34.4535 12.7678 34.3913 12.6088C34.1475 11.9614 33.8309 11.3437 33.4475 10.7679C33.2521 10.4769 33.0382 10.1988 32.8072 9.93524C32.5718 9.67303 32.3189 9.42715 32.0502 9.19931C31.781 8.97059 31.4969 8.76002 31.1998 8.56898C31.0486 8.47894 30.8996 8.38333 30.7451 8.29996C30.5906 8.21658 30.4361 8.12987 30.2749 8.05872C29.6347 7.75882 28.9595 7.53998 28.2651 7.40728C27.569 7.27771 26.86 7.23106 26.153 7.26832C26.0329 7.2761 25.9129 7.28722 25.7928 7.29945C25.7579 6.95053 25.6958 6.60486 25.6072 6.26558C21.9655 5.96543 18.8796 8.8369 18.8796 8.8369C18.8796 8.8369 18.9074 9.55616 19.0341 10.6412C18.9585 10.7168 18.8829 10.7912 18.8118 10.8691C17.8846 11.8784 17.0993 13.0094 16.4774 14.2308C16.1606 14.8266 15.8827 15.4381 15.6181 16.0506C15.3535 16.6631 15.1179 17.2846 14.8933 17.9071C14.442 19.1522 14.0318 20.405 13.5927 21.6446L13.2592 22.5717L12.9068 23.4911C12.6712 24.1047 12.4166 24.7139 12.1543 25.3109C11.1031 27.7136 9.90702 30.0502 8.5726 32.3078C8.40919 32.5913 8.23244 32.8636 8.06236 33.146L7.80557 33.5618C7.71887 33.7007 7.62771 33.8364 7.53878 33.9731C7.18306 34.5212 6.81511 35.0614 6.4405 35.5939C6.06588 36.1264 5.67458 36.6467 5.26773 37.1503C5.06652 37.4049 4.85865 37.6528 4.65077 37.8984L4.53961 38.0285C4.6567 38.1893 4.77491 38.349 4.89422 38.5076L4.97982 38.6188C5.13211 38.8178 5.28885 39.0135 5.44781 39.2069L5.48116 39.1591C5.5801 39.019 5.67125 38.8778 5.76574 38.7366C5.95138 38.4554 6.13591 38.1741 6.31155 37.8895C6.66949 37.3226 7.01484 36.7516 7.34758 36.1764C7.68107 35.6006 8.01456 35.0247 8.32693 34.44C8.487 34.1495 8.64448 33.8579 8.79937 33.5651C8.95277 33.2716 9.11396 32.9837 9.26181 32.6869C10.4705 30.3309 11.5821 27.9348 12.5967 25.4988L13.3593 23.6856L13.7406 22.7729L14.1274 21.8636C14.6443 20.6507 15.1679 19.4423 15.7126 18.2517C15.9849 17.6581 16.2584 17.0656 16.5452 16.4841C16.832 15.9027 17.1266 15.3269 17.4423 14.7699C17.9545 13.8517 18.5615 12.9895 19.2531 12.1975C19.3432 12.7356 19.4543 13.3092 19.5866 13.895C19.2905 14.1338 19.0517 14.4359 18.8878 14.7791C18.7239 15.1223 18.639 15.4979 18.6395 15.8783C18.6391 16.0623 18.6592 16.2457 18.6995 16.4252C18.8007 16.8866 19.0279 17.3108 19.356 17.6505C19.6841 17.9903 20.1 18.2322 20.5575 18.3494C21.015 18.4666 21.4961 18.4545 21.9471 18.3144C22.3981 18.1742 22.8013 17.9116 23.1119 17.5557C23.4224 17.1998 23.6279 16.7647 23.7057 16.2989C23.7834 15.833 23.7303 15.3547 23.5522 14.9173C23.3741 14.4799 23.078 14.1005 22.697 13.8215C22.3159 13.5424 21.8649 13.3747 21.3941 13.337C21.3074 12.9412 21.2318 12.5521 21.1718 12.1786C21.0751 11.6228 21.0017 11.1081 20.9495 10.6467C21.5034 10.2344 22.0952 9.87562 22.7169 9.57506C22.996 9.4361 23.285 9.31492 23.574 9.19375C23.7196 9.13372 23.8664 9.08258 24.0187 9.02366C24.1709 8.96474 24.3077 8.92361 24.4533 8.8747C25.036 8.69723 25.6366 8.58537 26.2441 8.54119C27.4646 8.45174 28.689 8.64815 29.8202 9.11482C29.9648 9.16707 30.0993 9.23933 30.2393 9.30158C30.3794 9.36384 30.5106 9.44276 30.6462 9.5128C30.9104 9.66518 31.1647 9.83413 31.4076 10.0186C31.651 10.2041 31.8816 10.4058 32.098 10.6223C32.3144 10.8413 32.5164 11.0741 32.7027 11.3193C33.0801 11.8185 33.399 12.3593 33.6531 12.9312C33.7198 13.0757 33.7765 13.2203 33.8388 13.3703L34.0266 13.8339C34.1556 14.1418 34.2868 14.4487 34.4268 14.751C34.704 15.358 35.0052 15.9535 35.3306 16.5375C35.6506 17.1219 36.0001 17.6895 36.3777 18.2384C36.7606 18.7907 37.1834 19.3142 37.6428 19.8047C37.7595 19.9259 37.8806 20.0437 37.9996 20.1627L38.372 20.5051L38.7299 20.8286C38.8411 20.9398 38.9623 21.0509 39.0756 21.1621C39.5328 21.6226 39.9592 22.1128 40.3518 22.6295C40.6908 23.0747 40.9952 23.5452 41.2622 24.0369H41.2411L41.1788 24.0291C41.1044 24.0213 41.0288 24.0124 40.9565 24.0002C40.7675 23.9735 40.5763 23.938 40.3863 23.8968C40.0061 23.8168 39.6292 23.7178 39.2546 23.6056C38.5054 23.3832 37.7662 23.1264 37.0314 22.8563L35.9309 22.4472L35.6563 22.3438L35.5051 22.2905C35.4506 22.2727 35.3939 22.2571 35.3417 22.2415C35.1236 22.1848 34.8999 22.152 34.6747 22.1437C34.5609 22.1402 34.447 22.1428 34.3334 22.1515C34.2768 22.1515 34.2223 22.1626 34.1645 22.1704L34.0111 22.1926C33.8243 22.2215 33.6331 22.2449 33.4408 22.2671C33.0573 22.316 32.6682 22.356 32.2792 22.3938C31.501 22.4694 30.7173 22.5339 29.9303 22.6017L29.6335 22.6273L29.4845 22.6406L29.41 22.6473H29.3723H29.3545H29.3222C29.1698 22.6693 29.0225 22.7187 28.8876 22.7929C28.7744 22.858 28.6676 22.9335 28.5685 23.0186C28.2268 23.3068 27.9317 23.6462 27.6937 24.0247C27.6337 24.1158 27.5825 24.2103 27.5214 24.3093C27.4603 24.4082 27.4102 24.5238 27.3702 24.6083C27.2768 24.7906 27.1879 24.9759 27.1034 25.1641C26.9242 25.5448 26.7791 25.9407 26.6699 26.347C26.5555 26.7565 26.4869 27.1774 26.4653 27.6021C26.4477 28.0193 26.454 28.4373 26.4842 28.8538C26.5478 29.6609 26.6618 30.4633 26.8255 31.2562C26.9767 32.041 27.159 32.8125 27.3302 33.584L27.5959 34.7379C27.6881 35.1226 27.7626 35.5039 27.846 35.8874C27.9294 36.2709 28.0038 36.6545 28.0761 37.0391L28.1873 37.6161L28.2851 38.1964C28.3518 38.5821 28.4174 38.969 28.4729 39.357C28.5285 39.7449 28.5908 40.1351 28.6364 40.5209L28.7097 41.1045L28.7731 41.6893C28.8176 42.0795 28.852 42.4674 28.8842 42.861C28.9165 43.2545 28.9443 43.6392 28.9732 44.0338C29.0021 44.4284 29.0176 44.8175 29.0299 45.21C29.0554 45.9637 29.0721 46.7218 29.0443 47.47H29.0599L29.1811 47.4433L29.3278 47.41C29.4478 44.2973 29.2344 41.199 28.862 38.1141L28.7887 37.5249L28.7031 36.9379C28.6464 36.5455 28.5919 36.1598 28.523 35.764C28.3918 34.9858 28.2606 34.2077 28.1383 33.4295C28.0761 33.0437 28.0205 32.6513 27.9705 32.2678C27.9205 31.8843 27.8727 31.4896 27.8326 31.1061C27.7486 30.3448 27.7037 29.5797 27.6981 28.8138C27.7102 28.0805 27.78 27.3494 27.9071 26.6271C27.9694 26.2692 28.0483 25.9101 28.1461 25.5488C28.1962 25.3676 28.2573 25.1875 28.3129 25.0074C28.3395 24.9262 28.371 24.8468 28.4074 24.7695C28.4418 24.6939 28.4841 24.6172 28.5274 24.5472C28.6961 24.25 28.9103 23.9811 29.1622 23.7501C29.243 23.6717 29.3407 23.6127 29.4478 23.5778L29.7235 23.5433L30.0148 23.51L30.3605 23.4733C30.6942 24.1117 30.9363 24.7939 31.0797 25.4999C30.9063 25.7055 30.6695 26.2025 30.7662 26.5793C30.9007 27.1007 31.2909 27.4498 31.6377 27.3575C31.9846 27.2652 32.1591 26.7739 32.0246 26.2525C31.9301 25.8856 31.7089 25.6044 31.4688 25.501C31.3132 24.7995 30.9963 23.9124 30.724 23.4321C31.272 23.3755 31.8201 23.321 32.3692 23.2554C32.7627 23.2109 33.1562 23.1631 33.5531 23.1064C33.751 23.0775 33.9488 23.0453 34.15 23.0075L34.2879 22.9819C34.329 22.9752 34.3701 22.9686 34.4113 22.9641C34.4939 22.954 34.577 22.9488 34.6603 22.9486C34.8278 22.9478 34.9949 22.9661 35.1583 23.003C35.1983 23.0119 35.2394 23.0231 35.2794 23.0342L35.4073 23.0731L35.6919 23.1609C35.8808 23.2187 36.0698 23.2798 36.2599 23.3354L36.8324 23.4966C37.5987 23.7034 38.3709 23.8868 39.149 24.0469C39.5392 24.1258 39.9272 24.1948 40.324 24.257C40.5219 24.2859 40.7186 24.3148 40.9176 24.3359C41.0177 24.3482 41.1177 24.356 41.2189 24.3626C41.3243 24.3706 41.43 24.3728 41.5357 24.3693L41.7802 24.3604L41.6668 24.1392ZM24.0709 7.64518C23.9042 7.69854 23.7319 7.75635 23.5696 7.81082C23.4073 7.86529 23.2472 7.92866 23.0871 7.99313C22.767 8.11987 22.4524 8.26105 22.1433 8.41668C21.6795 8.6476 21.2306 8.9075 20.7994 9.19486C20.7727 8.84135 20.7649 8.63902 20.7649 8.63902C20.7649 8.63902 22.03 7.35058 24.4088 6.92147C24.4567 7.12268 24.4905 7.32699 24.51 7.5329C24.3633 7.56625 24.2165 7.60182 24.0709 7.64518Z" fill="black"/>
<path d="M28.3162 15.2168C28.5004 15.2168 28.6497 15.0674 28.6497 14.8832C28.6497 14.6991 28.5004 14.5497 28.3162 14.5497C28.132 14.5497 27.9827 14.6991 27.9827 14.8832C27.9827 15.0674 28.132 15.2168 28.3162 15.2168Z" fill="white"/>
</svg>
