<svg width="114" height="86" viewBox="0 0 114 86" fill="none" xmlns="http://www.w3.org/2000/svg">
<g clip-path="url(#clip0_484_6526)">
<path d="M66.4998 66.4024C42.75 66.4024 22.5658 54.5699 22.5658 40.3955C22.5658 26.2211 40.3751 14.4298 64.125 14.4298C94.1199 14.4298 108.02 25.9071 108.02 40.0815C108.02 54.2559 92.6985 66.4024 66.4998 66.4024ZM57 0.255371C26.1251 0.255371 0 16.792 0 38.0536C0 58.1343 25.9671 74.8048 56.8424 74.8048C87.7172 74.8048 114 59.3152 114 38.0536C114 16.792 87.8749 0.255371 57 0.255371Z" fill="url(#paint0_linear_484_6526)"/>
<path d="M47.1787 23.213V85.7172H66.1682V61.4104C70.9156 61.4104 73.7434 60.3792 76.8494 66.0401C81.5969 74.1425 87.5311 85.7172 87.5311 85.7172H110.081C110.081 85.7172 95.8389 62.5678 94.6521 61.4104C92.4634 59.0951 89.9047 59.0951 86.3444 57.9376C93.4654 56.7802 100.104 53.8412 102.412 47.5443C104.43 41.7571 104.193 34.3953 99.8676 29.4586C96.1221 25.5522 92.2786 23.213 82.7837 23.213H47.1787ZM66.1682 36.2304H78.6298C81.5849 36.2304 83.9704 39.1242 83.9704 42.0176C83.9704 44.9114 81.5969 47.8052 78.6298 47.8052H66.1682V36.2304Z" fill="#2165B6"/>
</g>
<defs>
<linearGradient id="paint0_linear_484_6526" x1="43.2892" y1="12.928" x2="78.0601" y2="72.2809" gradientUnits="userSpaceOnUse">
<stop stop-color="#C9CBCE"/>
<stop offset="1" stop-color="#7B7A81"/>
</linearGradient>
<clipPath id="clip0_484_6526">
<rect width="114" height="85.5" fill="white" transform="translate(0 0.25)"/>
</clipPath>
</defs>
</svg>
