<svg width="114" height="114" viewBox="0 0 114 114" fill="none" xmlns="http://www.w3.org/2000/svg">
<path d="M87.9266 75.0003L23.1309 113.631L107.03 107.914L113.491 22.9757L87.9262 74.9999L87.9266 75.0003Z" fill="url(#paint0_linear_484_6480)"/>
<path d="M107.167 107.856L99.9557 57.8851L80.3135 83.9263L107.167 107.857V107.856Z" fill="url(#paint1_linear_484_6480)"/>
<path d="M107.264 107.856L54.434 103.693L23.4102 113.522L107.264 107.856Z" fill="url(#paint2_linear_484_6480)"/>
<path d="M23.4851 113.533L36.6829 70.1234L7.64062 76.3576L23.4847 113.532L23.4851 113.533Z" fill="url(#paint3_linear_484_6480)"/>
<path d="M80.3081 84.0694L68.1642 36.3127L33.4121 69.0196L80.3081 84.0703V84.0694Z" fill="url(#paint4_linear_484_6480)"/>
<path d="M110.736 36.9852L77.885 10.0472L68.7373 39.74L110.736 36.9852Z" fill="url(#paint5_linear_484_6480)"/>
<path d="M95.3729 0.442578L76.0521 11.1631L63.8623 0.299072L95.3729 0.443025V0.442578Z" fill="url(#paint6_linear_484_6480)"/>
<path d="M0 90.9192L8.09368 76.0988L1.54642 58.4426L0 90.9192Z" fill="url(#paint7_linear_484_6480)"/>
<path d="M1.11133 57.8852L7.69866 76.6451L36.322 70.1976L69.0004 39.7051L78.2228 10.2944L63.7017 0L39.0136 9.27647C31.2352 16.5403 16.1419 30.9123 15.5978 31.1824C15.059 31.4586 5.63082 49.3504 1.11133 57.8852Z" fill="white"/>
<path d="M24.2414 24.1832C41.0993 7.40156 62.8317 -2.51332 71.1716 5.9352C79.507 14.3837 70.6675 34.9149 53.8096 51.6912C36.9516 68.4671 15.4887 78.9283 7.15412 70.4798C-1.1858 62.0371 7.38343 40.9596 24.2414 24.1832Z" fill="url(#paint8_linear_484_6480)"/>
<path d="M23.4854 113.515L36.5799 69.9678L80.0673 83.9947C64.3438 98.7981 46.8558 111.313 23.4854 113.515Z" fill="url(#paint9_linear_484_6480)"/>
<path d="M69.0576 39.6193L80.2219 84.018C93.3564 70.152 105.145 55.2453 110.918 36.8073L69.0581 39.6193H69.0576Z" fill="url(#paint10_linear_484_6480)"/>
<path d="M110.804 37.0312C115.273 23.4934 116.303 4.07179 95.2349 0.46582L77.9473 10.053L110.804 37.0312Z" fill="url(#paint11_linear_484_6480)"/>
<path d="M0 90.7238C0.618926 113.067 16.6745 113.4 23.5138 113.596L7.71565 76.553L0 90.7238Z" fill="#9E1209"/>
<path d="M69.1201 39.6885C79.2131 45.917 99.5544 58.4256 99.9667 58.6554C100.608 59.0175 108.736 44.8932 110.581 36.9105L69.1201 39.6885Z" fill="url(#paint12_radial_484_6480)"/>
<path d="M36.5625 69.9678L54.0674 103.876C64.4182 98.2402 72.5239 91.3734 79.947 84.0179L36.5625 69.9678Z" fill="url(#paint13_radial_484_6480)"/>
<path d="M7.64715 76.599L5.16699 106.252C9.84678 112.67 16.2854 113.228 23.0384 112.728C18.1524 100.518 8.39164 76.1045 7.64715 76.599Z" fill="url(#paint14_linear_484_6480)"/>
<path d="M77.8447 10.1276L112.62 15.0274C110.764 7.13144 105.065 2.03586 95.3496 0.442993L77.8447 10.1276Z" fill="url(#paint15_linear_484_6480)"/>
<defs>
<linearGradient id="paint0_linear_484_6480" x1="99.711" y1="123.964" x2="75.6509" y2="81.5915" gradientUnits="userSpaceOnUse">
<stop stop-color="#FB7655"/>
<stop offset="0.41" stop-color="#E42B1E"/>
<stop offset="0.99" stop-color="#990000"/>
<stop offset="1" stop-color="#990000"/>
</linearGradient>
<linearGradient id="paint1_linear_484_6480" x1="111.638" y1="88.3127" x2="78.0105" y2="81.7701" gradientUnits="userSpaceOnUse">
<stop stop-color="#871101"/>
<stop offset="0.99" stop-color="#911209"/>
<stop offset="1" stop-color="#911209"/>
</linearGradient>
<linearGradient id="paint2_linear_484_6480" x1="86.9492" y1="125.25" x2="86.5126" y2="103.842" gradientUnits="userSpaceOnUse">
<stop stop-color="#871101"/>
<stop offset="0.99" stop-color="#911209"/>
<stop offset="1" stop-color="#911209"/>
</linearGradient>
<linearGradient id="paint3_linear_484_6480" x1="22.1653" y1="73.2636" x2="32.2328" y2="102.666" gradientUnits="userSpaceOnUse">
<stop stop-color="white"/>
<stop offset="0.23" stop-color="#E57252"/>
<stop offset="0.46" stop-color="#DE3B20"/>
<stop offset="0.99" stop-color="#A60003"/>
<stop offset="1" stop-color="#A60003"/>
</linearGradient>
<linearGradient id="paint4_linear_484_6480" x1="55.0658" y1="44.1201" x2="56.8933" y2="75.9702" gradientUnits="userSpaceOnUse">
<stop stop-color="white"/>
<stop offset="0.23" stop-color="#E4714E"/>
<stop offset="0.56" stop-color="#BE1A0D"/>
<stop offset="0.99" stop-color="#A80D00"/>
<stop offset="1" stop-color="#A80D00"/>
</linearGradient>
<linearGradient id="paint5_linear_484_6480" x1="84.262" y1="14.6775" x2="86.9341" y2="37.8073" gradientUnits="userSpaceOnUse">
<stop stop-color="white"/>
<stop offset="0.18" stop-color="#E46342"/>
<stop offset="0.4" stop-color="#C82410"/>
<stop offset="0.99" stop-color="#A80D00"/>
<stop offset="1" stop-color="#A80D00"/>
</linearGradient>
<linearGradient id="paint6_linear_484_6480" x1="68.1506" y1="6.63777" x2="71.9168" y2="-9.26807" gradientUnits="userSpaceOnUse">
<stop stop-color="white"/>
<stop offset="0.54" stop-color="#C81F11"/>
<stop offset="0.99" stop-color="#BF0905"/>
<stop offset="1" stop-color="#BF0905"/>
</linearGradient>
<linearGradient id="paint7_linear_484_6480" x1="2.2358" y1="65.3066" x2="12.0325" y2="71.4228" gradientUnits="userSpaceOnUse">
<stop stop-color="white"/>
<stop offset="0.31" stop-color="#DE4024"/>
<stop offset="0.99" stop-color="#BF190B"/>
<stop offset="1" stop-color="#BF190B"/>
</linearGradient>
<linearGradient id="paint8_linear_484_6480" x1="-10.629" y1="89.2024" x2="77.5723" y2="-1.38805" gradientUnits="userSpaceOnUse">
<stop stop-color="#BD0012"/>
<stop offset="0.07" stop-color="white"/>
<stop offset="0.17" stop-color="white"/>
<stop offset="0.27" stop-color="#C82F1C"/>
<stop offset="0.33" stop-color="#820C01"/>
<stop offset="0.46" stop-color="#A31601"/>
<stop offset="0.72" stop-color="#B31301"/>
<stop offset="0.99" stop-color="#E82609"/>
<stop offset="1" stop-color="#E82609"/>
</linearGradient>
<linearGradient id="paint9_linear_484_6480" x1="56.751" y1="98.3629" x2="31.8636" y2="87.9517" gradientUnits="userSpaceOnUse">
<stop stop-color="#8C0C01"/>
<stop offset="0.54" stop-color="#990C00"/>
<stop offset="0.99" stop-color="#A80D0E"/>
<stop offset="1" stop-color="#A80D0E"/>
</linearGradient>
<linearGradient id="paint10_linear_484_6480" x1="102.261" y1="66.4339" x2="76.587" y2="48.2706" gradientUnits="userSpaceOnUse">
<stop stop-color="#7E110B"/>
<stop offset="0.99" stop-color="#9E0C00"/>
<stop offset="1" stop-color="#9E0C00"/>
</linearGradient>
<linearGradient id="paint11_linear_484_6480" x1="110.91" y1="27.5688" x2="98.8193" y2="15.3447" gradientUnits="userSpaceOnUse">
<stop stop-color="#79130D"/>
<stop offset="0.99" stop-color="#9E120B"/>
<stop offset="1" stop-color="#9E120B"/>
</linearGradient>
<radialGradient id="paint12_radial_484_6480" cx="0" cy="0" r="1" gradientUnits="userSpaceOnUse" gradientTransform="translate(82.388 45.6569) scale(28.8456 15.1333)">
<stop stop-color="#A80D00"/>
<stop offset="0.99" stop-color="#7E0E08"/>
<stop offset="1" stop-color="#7E0E08"/>
</radialGradient>
<radialGradient id="paint13_radial_484_6480" cx="0" cy="0" r="1" gradientUnits="userSpaceOnUse" gradientTransform="translate(42.4407 83.8228) scale(38.3458 29.9704)">
<stop stop-color="#A30C00"/>
<stop offset="0.99" stop-color="#800E08"/>
<stop offset="1" stop-color="#800E08"/>
</radialGradient>
<linearGradient id="paint14_linear_484_6480" x1="15.2768" y1="113.49" x2="-6.38268" y2="95.5831" gradientUnits="userSpaceOnUse">
<stop stop-color="#8B2114"/>
<stop offset="0.43" stop-color="#9E100A"/>
<stop offset="0.99" stop-color="#B3100C"/>
<stop offset="1" stop-color="#B3100C"/>
</linearGradient>
<linearGradient id="paint15_linear_484_6480" x1="88.5799" y1="5.63489" x2="94.7501" y2="21.1817" gradientUnits="userSpaceOnUse">
<stop stop-color="#B31000"/>
<stop offset="0.44" stop-color="#910F08"/>
<stop offset="0.99" stop-color="#791C12"/>
<stop offset="1" stop-color="#791C12"/>
</linearGradient>
</defs>
</svg>
