<svg width="70" height="114" viewBox="0 0 70 114" fill="none" xmlns="http://www.w3.org/2000/svg">
<g clip-path="url(#clip0_484_6530)">
<path d="M0 70.0176V78.7073C0 80.172 31.8218 82.6252 52.5547 87.397C62.5702 85.0915 70 82.2459 70 78.7073V70.0176C70 66.4809 62.5702 63.6334 52.5547 61.3279C31.8216 66.1004 0 68.5539 0 70.0176Z" fill="url(#paint0_linear_484_6530)"/>
<path d="M0 35.2588V43.9485C0 45.4132 31.8218 47.8665 52.5547 52.6382C62.5702 50.3327 70 47.4871 70 43.9485V35.2588C70 31.7221 62.5702 28.8746 52.5547 26.5691C31.8216 31.3416 0 33.7951 0 35.2588Z" fill="url(#paint1_linear_484_6530)"/>
<path d="M0 52.6382V78.7073C0 76.5349 70 72.19 70 61.3279V35.2588C70 46.1209 0 50.4658 0 52.6382Z" fill="url(#paint2_linear_484_6530)"/>
<path d="M0 17.8794V43.9485C0 41.7761 70 37.4312 70 26.5691V0.499992C70 11.3621 0 15.707 0 17.8794Z" fill="url(#paint3_linear_484_6530)"/>
<path d="M0 87.397V113.466C0 111.294 70 106.949 70 96.0867V70.0176C70 80.8797 0 85.2245 0 87.397Z" fill="url(#paint4_linear_484_6530)"/>
</g>
<defs>
<linearGradient id="paint0_linear_484_6530" x1="0" y1="74.3624" x2="70" y2="74.3624" gradientUnits="userSpaceOnUse">
<stop stop-color="#4F4F4F"/>
<stop offset="1"/>
</linearGradient>
<linearGradient id="paint1_linear_484_6530" x1="0" y1="39.6036" x2="70" y2="39.6036" gradientUnits="userSpaceOnUse">
<stop stop-color="#4F4F4F"/>
<stop offset="1"/>
</linearGradient>
<linearGradient id="paint2_linear_484_6530" x1="0" y1="56.983" x2="70" y2="56.983" gradientUnits="userSpaceOnUse">
<stop stop-color="#C40000"/>
<stop offset="1" stop-color="#FF0000"/>
</linearGradient>
<linearGradient id="paint3_linear_484_6530" x1="0" y1="22.2242" x2="70" y2="22.2242" gradientUnits="userSpaceOnUse">
<stop stop-color="#C40000"/>
<stop offset="1" stop-color="#FF0000"/>
</linearGradient>
<linearGradient id="paint4_linear_484_6530" x1="0" y1="91.7418" x2="70" y2="91.7418" gradientUnits="userSpaceOnUse">
<stop stop-color="#C40000"/>
<stop offset="1" stop-color="#FF0000"/>
</linearGradient>
<clipPath id="clip0_484_6530">
<rect width="70" height="113" fill="white" transform="translate(0 0.5)"/>
</clipPath>
</defs>
</svg>
