<svg width="114" height="114" viewBox="0 0 114 114" fill="none" xmlns="http://www.w3.org/2000/svg">
<path d="M0 57V0H114V114H0" fill="#007ACC"/>
<path d="M24.9941 57.1995V61.845H39.8142V104.025H50.3307V61.845H65.1507V57.285C65.1507 54.72 65.1507 52.6395 65.0367 52.5825C65.0367 52.497 56.0022 52.4685 45.0297 52.4685L25.0796 52.554V57.228L24.9941 57.1995ZM91.5987 52.44C94.5057 53.124 96.7287 54.435 98.7237 56.5155C99.7782 57.6555 101.346 59.6505 101.46 60.1635C101.46 60.3345 96.5292 63.669 93.5367 65.5215C93.4227 65.607 92.9667 65.1225 92.5107 64.3815C91.0287 62.2725 89.5182 61.3605 87.1527 61.1895C83.7327 60.9615 81.4527 62.757 81.4527 65.7495C81.4527 66.6615 81.6237 67.1745 81.9657 67.9155C82.7352 69.483 84.1602 70.4235 88.5777 72.3615C96.7287 75.867 100.263 78.1755 102.4 81.4816C104.823 85.1866 105.364 91.0006 103.74 95.3611C101.916 100.121 97.4697 103.341 91.1142 104.396C89.1192 104.738 84.5592 104.681 82.4217 104.31C77.8617 103.455 73.5012 101.175 70.8222 98.2396C69.7677 97.0996 67.7442 94.0501 67.8582 93.8506L68.9412 93.1666L73.2162 90.6871L76.4367 88.8061L77.1777 89.8036C78.1182 91.2856 80.2272 93.2806 81.4527 93.9646C85.1577 95.8741 90.1167 95.6176 92.5677 93.3946C93.6222 92.4256 94.0782 91.3996 94.0782 89.9746C94.0782 88.6636 93.8787 88.0651 93.2232 87.0676C92.3112 85.8136 90.4872 84.7876 85.3572 82.5076C79.4577 79.9995 76.9497 78.4035 74.6127 75.9525C73.2732 74.4705 72.0477 72.162 71.4777 70.2525C71.0502 68.5995 70.9077 64.5525 71.3067 62.928C72.5322 57.228 76.8357 53.238 82.9917 52.098C84.9867 51.699 89.6892 51.87 91.6557 52.383L91.5987 52.44Z" fill="white"/>
</svg>
