<svg width="35" height="38" viewBox="0 0 35 38" fill="none" xmlns="http://www.w3.org/2000/svg">
<path fill-rule="evenodd" clip-rule="evenodd" d="M30.9006 1.13799C30.9006 1.13793 30.9006 1.13793 30.9006 1.13793L30.895 1.13679L30.8817 1.13411L30.8335 1.12457C30.7922 1.11644 30.7326 1.10487 30.6568 1.09057C30.5053 1.06199 30.2887 1.02238 30.0236 0.977319C29.4947 0.887432 28.7658 0.774715 27.9711 0.684807C27.1807 0.595386 26.3009 0.525692 25.4764 0.528203C24.6882 0.530604 23.8042 0.59716 23.0864 0.865223C22.7193 1.00233 22.2267 1.27245 21.7248 1.56708C21.1924 1.87962 20.5514 2.27914 19.8497 2.72979C18.4447 3.63205 16.7596 4.7628 15.1427 5.86553C13.5241 6.96939 11.9664 8.05023 10.8139 8.85475C10.2374 9.25711 9.76195 9.59062 9.43043 9.82364L8.91042 10.1899C8.7004 10.3383 8.53572 10.5421 8.43473 10.7786L0.626572 29.0627C0.424153 29.5046 0.460011 30.0399 0.766752 30.4606C0.766747 30.4606 0.766743 30.4606 0.766962 30.4604C0.766966 30.4604 0.76697 30.4604 0.766975 30.4604L0.766752 30.4606L0.774852 30.4716L0.794432 30.4982C0.811189 30.521 0.835264 30.5534 0.865937 30.5945C0.927244 30.6765 1.01513 30.7929 1.12383 30.9338C1.34052 31.2147 1.64338 31.5974 1.98568 32.0009C2.32553 32.4016 2.7178 32.8389 3.11249 33.2218C3.48117 33.5794 3.95015 33.9879 4.43953 34.2293C4.85326 34.4335 5.77768 34.7299 6.78556 35.0308C7.8547 35.35 9.18109 35.7205 10.5155 36.0734C11.8493 36.4262 13.2022 36.7643 14.3232 37.0175C15.3785 37.2559 16.3913 37.4587 16.9385 37.4712C17.3377 37.4804 17.789 37.383 18.1694 37.2821C18.5872 37.1712 19.0677 37.0143 19.5787 36.8272C20.6027 36.4522 21.8133 35.9325 23.0023 35.3477C24.1882 34.7645 25.3851 34.1007 26.3693 33.4319C26.8611 33.0977 27.3216 32.7476 27.7078 32.391C28.0789 32.0482 28.4558 31.6324 28.6948 31.1549C29.2638 30.0179 30.5447 26.6377 31.6599 23.4022C32.2241 21.7653 32.7593 20.1268 33.1544 18.7781C33.3517 18.1049 33.5181 17.49 33.6362 16.9766C33.7448 16.5043 33.8429 15.9945 33.8404 15.5935C33.8382 15.2474 33.8995 14.5714 34.0002 13.6299C34.0267 13.3818 34.0555 13.1192 34.0853 12.8468C34.1637 12.1321 34.2494 11.3494 34.3217 10.5819C34.4212 9.52349 34.5006 8.44019 34.5002 7.53042C34.5 7.07695 34.4803 6.63066 34.4237 6.23418C34.3736 5.88291 34.2717 5.38326 33.9889 4.96366C33.5874 4.36805 33.0315 3.55405 32.5774 2.89129C32.3501 2.55941 32.1477 2.26456 32.0021 2.05268L31.7676 1.71149C31.5553 1.40308 31.2407 1.20717 30.9006 1.13799ZM31.3824 12.0132C31.3637 12.185 31.3451 12.3551 31.3267 12.5229C31.2962 12.8007 31.2665 13.0721 31.2384 13.3345C31.1434 14.2231 31.0596 15.0737 31.063 15.6107C31.0627 15.6172 31.0599 15.6792 31.0376 15.8177C31.0154 15.9561 30.9798 16.1347 30.9293 16.3542C30.8284 16.7932 30.6785 17.3503 30.489 17.9971C30.1107 19.2884 29.5907 20.8821 29.0341 22.4971C27.9076 25.7654 26.6836 28.9676 26.2111 29.9117C26.1897 29.9545 26.091 30.1034 25.8235 30.3504C25.571 30.5836 25.2296 30.8483 24.8082 31.1347C23.9661 31.7069 22.8917 32.307 21.7766 32.8554C20.6646 33.4022 19.5445 33.8819 18.6237 34.219C18.1624 34.388 17.7669 34.5153 17.4571 34.5975C17.1805 34.6709 17.0432 34.6886 17.009 34.693L17.0088 34.693C17.0002 34.6941 16.9983 34.6944 17.0024 34.6945C16.8186 34.6903 16.2523 34.596 15.3518 34.4006C15.5393 34.3505 15.7218 34.2908 15.8896 34.2315C16.3136 34.0817 16.7946 33.8787 17.2998 33.6452C18.3124 33.1772 19.4925 32.5539 20.6342 31.8968C21.7757 31.2399 22.9035 30.535 23.8084 29.8989C24.2596 29.5817 24.6725 29.2697 25.0097 28.9801C25.3128 28.7198 25.672 28.3805 25.8962 28.0057C26.0571 27.7366 26.2468 27.3057 26.4347 26.8508C26.6357 26.364 26.8737 25.7515 27.1338 25.0576C27.6545 23.6682 28.2746 21.9226 28.8809 20.1425C29.4872 18.3625 30.083 16.5385 30.5544 14.9926C30.9068 13.837 31.2068 12.7829 31.3824 12.0132ZM1.88911 29.6423L1.46296 30.9641C1.46296 30.9641 1.46233 30.9639 1.88911 29.6423ZM3.76642 28.7824L10.8341 12.2321L11.0276 12.0959C11.357 11.8644 11.83 11.5327 12.4036 11.1323C13.5512 10.3312 15.1001 9.25651 16.7076 8.16017C18.3169 7.0627 19.9774 5.94862 21.3505 5.06685C22.0378 4.62549 22.644 4.24819 23.131 3.9623C23.6485 3.65849 23.9474 3.50854 24.0582 3.46715C24.2964 3.37821 24.7718 3.30784 25.4849 3.30566C26.1618 3.3036 26.9254 3.36169 27.6589 3.44467C28.2302 3.5093 28.7685 3.58732 29.2127 3.65849C29.199 4.24248 29.178 4.99669 29.1467 5.81414C29.0759 7.66982 28.9555 9.75592 28.7646 10.9499C28.6792 11.484 28.3686 12.6385 27.8978 14.1824C27.4375 15.6917 26.8516 17.486 26.2517 19.247C25.652 21.0079 25.0415 22.7261 24.533 24.0828C24.2785 24.762 24.0522 25.3432 23.8674 25.7907C23.775 26.0147 23.6957 26.1983 23.6305 26.3404C23.5981 26.4112 23.571 26.4676 23.5492 26.5108C23.5384 26.5322 23.5297 26.5488 23.523 26.5612L23.517 26.572C23.517 26.572 23.516 26.5727 23.5133 26.5754C23.5117 26.577 23.5095 26.5792 23.5067 26.5823C23.4789 26.6128 23.392 26.7081 23.2 26.8731C22.9555 27.0831 22.6213 27.3383 22.2111 27.6266C21.3931 28.2017 20.3401 28.8615 19.2488 29.4895C18.1576 30.1175 17.0528 30.6996 16.1345 31.124C15.6741 31.3368 15.2781 31.5018 14.9643 31.6127C14.6761 31.7145 14.5349 31.7421 14.5031 31.7484L14.4971 31.7495L14.4968 31.7495C14.4832 31.7489 14.43 31.7464 14.3236 31.7324C14.1932 31.7153 14.0227 31.6864 13.8114 31.6445C13.389 31.5606 12.8517 31.4339 12.2312 31.2746C10.9925 30.9566 9.48003 30.5234 8.00517 30.0841C6.53297 29.6457 5.11008 29.2047 4.05443 28.873L3.76642 28.7824Z" fill="#007CBA"/>
</svg>
