<svg width="37" height="36" viewBox="0 0 37 36" fill="none" xmlns="http://www.w3.org/2000/svg">
<path fill-rule="evenodd" clip-rule="evenodd" d="M12.7224 0.498246C13.9185 0.00283607 15.2345 -0.126786 16.5042 0.125772C17.7739 0.37833 18.9402 1.00172 19.8556 1.91712C20.771 2.83252 21.3944 3.99881 21.647 5.2685C21.8995 6.5382 21.7699 7.85427 21.2745 9.05029C20.7791 10.2463 19.9401 11.2686 18.8637 11.9878C17.7873 12.707 16.5218 13.0909 15.2273 13.0909H3.77273C3.06839 13.0909 2.44307 12.6402 2.22034 11.972C1.9976 11.3038 2.22744 10.5681 2.79091 10.1455L8.73866 5.68464C8.86991 4.69533 9.22625 3.74511 9.78493 2.909C10.5041 1.8326 11.5264 0.993656 12.7224 0.498246ZM15.8657 3.33561C15.2309 3.20934 14.5729 3.27415 13.9749 3.52185C13.3768 3.76956 12.8657 4.18903 12.5061 4.72723C12.1465 5.26542 11.9545 5.89817 11.9545 6.54546C11.9545 7.06051 11.712 7.54551 11.3 7.85455L8.68182 9.81818H15.2273C15.8746 9.81818 16.5073 9.62624 17.0455 9.26663C17.5837 8.90702 18.0032 8.39589 18.2509 7.79787C18.4986 7.19986 18.5634 6.54183 18.4371 5.90698C18.3108 5.27213 17.9991 4.68899 17.5414 4.23129C17.0837 3.77359 16.5006 3.46189 15.8657 3.33561ZM27.4497 7.0437C28.6457 6.54829 29.9618 6.41867 31.2315 6.67123C32.5012 6.92378 33.6675 7.54718 34.5829 8.46258C35.4983 9.37797 36.1217 10.5443 36.3742 11.814C36.6268 13.0836 36.4972 14.3997 36.0018 15.5957C35.5063 16.7918 34.6674 17.814 33.591 18.5333C32.5146 19.2525 31.2491 19.6364 29.9545 19.6364H2.13636C1.23262 19.6364 0.5 18.9037 0.5 18C0.5 17.0963 1.23262 16.3636 2.13636 16.3636H29.9545C30.6018 16.3636 31.2346 16.1717 31.7728 15.8121C32.311 15.4525 32.7304 14.9413 32.9781 14.3433C33.2259 13.7453 33.2907 13.0873 33.1644 12.4524C33.0381 11.8176 32.7264 11.2344 32.2687 10.7767C31.811 10.319 31.2279 10.0073 30.593 9.88107C29.9582 9.75479 29.3001 9.8196 28.7021 10.0673C28.1041 10.315 27.593 10.7345 27.2334 11.2727C26.8738 11.8109 26.6818 12.4436 26.6818 13.0909C26.6818 13.9946 25.9492 14.7273 25.0455 14.7273C24.1417 14.7273 23.4091 13.9946 23.4091 13.0909C23.4091 11.7963 23.793 10.5308 24.5122 9.45445C25.2314 8.37806 26.2537 7.53911 27.4497 7.0437ZM3.79899 24.2535C3.94014 23.4751 4.61797 22.9091 5.40909 22.9091H23.4091C24.7037 22.9091 25.9692 23.293 27.0455 24.0122C28.1219 24.7314 28.9609 25.7537 29.4563 26.9497C29.9517 28.1457 30.0813 29.4618 29.8288 30.7315C29.5762 32.0012 28.9528 33.1675 28.0374 34.0829C27.122 34.9983 25.9557 35.6217 24.686 35.8742C23.4163 36.1268 22.1003 35.9972 20.9043 35.5018C19.7082 35.0063 18.686 34.1674 17.9667 33.091C17.4672 32.3435 17.1295 31.5047 16.9697 30.6283L4.83452 26.0776C4.09378 25.7998 3.65783 25.0319 3.79899 24.2535ZM14.4331 26.1818L19.0746 27.9224C19.7132 28.1619 20.1364 28.7724 20.1364 29.4545C20.1364 30.1018 20.3283 30.7346 20.6879 31.2728C21.0475 31.811 21.5587 32.2304 22.1567 32.4781C22.7547 32.7259 23.4127 32.7907 24.0476 32.6644C24.6824 32.5381 25.2656 32.2264 25.7233 31.7687C26.181 31.311 26.4927 30.7279 26.6189 30.093C26.7452 29.4582 26.6804 28.8001 26.4327 28.2021C26.185 27.6041 25.7655 27.093 25.2273 26.7334C24.6891 26.3738 24.0564 26.1818 23.4091 26.1818H14.4331Z" fill="#007CBA"/>
</svg>
