<svg width="33" height="38" viewBox="0 0 33 38" fill="none" xmlns="http://www.w3.org/2000/svg">
<path fill-rule="evenodd" clip-rule="evenodd" d="M16.5 0C16.9943 0 17.4663 0.199938 17.8026 0.551824L22.9706 5.95819L22.9711 5.95873C23.1119 6.10613 23.254 6.25465 23.3972 6.40428C25.3747 8.47103 27.5555 10.7503 29.2617 13.2297C31.1061 15.9102 32.5 18.9658 32.5 22.4545C32.5 26.5775 30.8143 30.5315 27.8137 33.4468C24.8131 36.3622 20.7435 38 16.5 38C12.2565 38 8.18687 36.3622 5.18629 33.4468C2.18571 30.5315 0.5 26.5775 0.5 22.4545C0.5 18.9651 1.89377 15.909 3.73833 13.2284C5.4456 10.7474 7.62798 8.46734 9.60648 6.40028C9.74848 6.25191 9.88944 6.10465 10.0291 5.95848L10.0294 5.95819L15.1974 0.551824C15.5337 0.199938 16.0057 0 16.5 0ZM16.5 4.26543L12.6349 8.30879C12.6348 8.30889 12.6347 8.30899 12.6346 8.30908C12.5089 8.4407 12.3831 8.57217 12.2575 8.70354C10.2339 10.819 8.23646 12.9071 6.69412 15.1485C5.07067 17.5077 4.05556 19.8951 4.05556 22.4545C4.05556 25.6613 5.36666 28.7366 7.70045 31.0041C10.0342 33.2716 13.1995 34.5455 16.5 34.5455C19.8005 34.5455 22.9658 33.2716 25.2996 31.0041C27.6333 28.7366 28.9444 25.6613 28.9444 22.4545C28.9444 19.8961 27.9294 17.5091 26.3059 15.1498C24.7645 12.9098 22.7687 10.8226 20.7464 8.70769C20.6194 8.57495 20.4924 8.44209 20.3654 8.30908C20.3652 8.30891 20.365 8.30873 20.3649 8.30855L16.5 4.26543Z" fill="#007CBA"/>
</svg>
