<svg width="804" height="577" viewBox="0 0 804 577" fill="none" xmlns="http://www.w3.org/2000/svg">
<path d="M50.5134 357.601C41.906 345.256 11.0564 340.659 -15.6099 357.205C-42.2762 373.751 -42.0678 399.577 -32.9866 413.296C-23.3686 427.867 -2.35798 440.523 25.3934 420.168C53.1447 399.814 58.9128 369.632 50.5134 357.601Z" fill="#BCD6E8"/>
<path d="M746.1 2.60094C735.156 8.88394 728.95 34.4933 740.677 58.2294C752.403 81.9656 773.928 83.8034 786.053 77.2285C798.929 70.2685 811.088 53.5693 796.274 28.6229C781.459 3.67656 756.767 -3.5315 746.1 2.60094Z" fill="#BCD6E8"/>
<path d="M708.573 479.546C700.872 473.092 680.044 475.495 665.546 490.787C651.047 506.079 655.593 522.674 663.836 529.93C672.574 537.642 688.386 542.139 702.939 524.205C717.492 506.272 716.085 485.833 708.573 479.546Z" fill="#7AAED1"/>
<path d="M181.916 509.064C172.4 513.813 166.029 534.883 174.876 555.192C183.723 575.502 201.809 577.994 212.333 573.055C223.51 567.828 234.511 554.45 223.111 532.995C211.712 511.539 191.19 504.428 181.916 509.064Z" fill="#D1E3EE"/>
<path d="M164.335 4.94962C159.575 6.12813 154.586 14.9691 156.524 25.0009C158.461 35.0327 166.35 37.9769 171.584 36.8143C177.14 35.588 183.438 30.6759 180.467 19.8708C177.496 9.06571 168.976 3.79771 164.335 4.94962Z" fill="#E6EFF5"/>
</svg>
