<svg width="1440" height="503" viewBox="0 0 1440 503" fill="none" xmlns="http://www.w3.org/2000/svg">
<path d="M93.7151 247.601C85.1077 235.256 54.258 230.659 27.5918 247.205C0.925507 263.751 1.13385 289.577 10.2151 303.296C19.8331 317.867 40.8437 330.523 68.595 310.168C96.3463 289.814 102.114 259.632 93.7151 247.601Z" fill="#BCD6E8"/>
<path d="M1422.01 206.067C1416.4 203.85 1404.99 209.166 1399.62 220.627C1394.26 232.087 1399.99 240.68 1406.06 243.252C1412.5 245.989 1422.36 245.555 1427.25 232.579C1432.15 219.604 1427.48 208.225 1422.01 206.067Z" fill="#E6EFF5"/>
<path d="M1219.62 2.60101C1208.68 8.88402 1202.47 34.4933 1214.2 58.2295C1225.92 81.9657 1247.45 83.8034 1259.57 77.2286C1272.45 70.2686 1284.61 53.5694 1269.79 28.623C1254.98 3.67664 1230.29 -3.53142 1219.62 2.60101Z" fill="#BCD6E8"/>
<path d="M1326.06 421.546C1318.36 415.092 1297.54 417.495 1283.04 432.787C1268.54 448.079 1273.09 464.674 1281.33 471.93C1290.07 479.642 1305.88 484.139 1320.43 466.205C1334.98 448.272 1333.58 427.833 1326.06 421.546Z" fill="#7AAED1"/>
<path d="M194.016 435.064C184.501 439.813 178.13 460.883 186.976 481.192C195.823 501.502 213.909 503.994 224.434 499.055C235.61 493.828 246.612 480.45 235.212 458.995C223.813 437.539 203.29 430.428 194.016 435.064Z" fill="#D1E3EE"/>
<path d="M149.46 52.9496C144.699 54.1281 139.711 62.9691 141.648 73.0009C143.586 83.0327 151.475 85.9769 156.709 84.8143C162.265 83.588 168.563 78.6759 165.592 67.8708C162.621 57.0657 154.1 51.7977 149.46 52.9496Z" fill="#E6EFF5"/>
</svg>
