<svg width="20" height="23" viewBox="0 0 20 23" fill="none" xmlns="http://www.w3.org/2000/svg">
<path fill-rule="evenodd" clip-rule="evenodd" d="M10 22.8555C9.62119 22.8555 9.25789 22.705 8.99003 22.4371C8.72217 22.1693 8.57169 21.806 8.57169 21.4272L8.57169 4.87871L2.44136 11.0119C2.30857 11.1447 2.15091 11.25 1.9774 11.3219C1.80389 11.3938 1.61792 11.4308 1.43012 11.4308C1.24231 11.4308 1.05634 11.3938 0.882835 11.3219C0.709325 11.25 0.55167 11.1447 0.418871 11.0119C0.286073 10.8791 0.180731 10.7214 0.10886 10.5479C0.0369904 10.3744 5.32247e-07 10.1884 5.48666e-07 10.0006C5.65084e-07 9.81284 0.0369904 9.62687 0.108861 9.45336C0.180731 9.27985 0.286073 9.1222 0.418871 8.9894L8.98875 0.419515C9.12143 0.286502 9.27905 0.180971 9.45258 0.108965C9.6261 0.0369598 9.81213 -0.000104517 10 -0.0001045C10.1879 -0.000104484 10.3739 0.0369599 10.5474 0.108965C10.721 0.180971 10.8786 0.286502 11.0112 0.419516L19.5811 8.9894C19.7139 9.1222 19.8193 9.27985 19.8911 9.45336C19.963 9.62687 20 9.81284 20 10.0006C20 10.1885 19.963 10.3744 19.8911 10.5479C19.8193 10.7214 19.7139 10.8791 19.5811 11.0119C19.3129 11.2801 18.9492 11.4308 18.5699 11.4308C18.3821 11.4308 18.1961 11.3938 18.0226 11.3219C17.8491 11.25 17.6914 11.1447 17.5586 11.0119L11.4283 4.87871L11.4283 21.4272C11.4283 21.806 11.2778 22.1693 11.01 22.4371C10.7421 22.705 10.3788 22.8555 10 22.8555V22.8555Z" fill="#007CBA"/>
</svg>
