<svg width="50" height="50" viewBox="0 0 50 50" fill="none" xmlns="http://www.w3.org/2000/svg">
<circle cx="25" cy="25" r="24.5" fill="white" stroke="#007CBA"/>
<path fill-rule="evenodd" clip-rule="evenodd" d="M25 36.8555C24.6212 36.8555 24.2579 36.705 23.99 36.4371C23.7222 36.1693 23.5717 35.806 23.5717 35.4272L23.5717 18.8787L17.4414 25.0119C17.3086 25.1447 17.1509 25.25 16.9774 25.3219C16.8039 25.3938 16.6179 25.4308 16.4301 25.4308C16.2423 25.4308 16.0563 25.3938 15.8828 25.3219C15.7093 25.25 15.5517 25.1447 15.4189 25.0119C15.2861 24.8791 15.1807 24.7214 15.1089 24.5479C15.037 24.3744 15 24.1884 15 24.0006C15 23.8128 15.037 23.6269 15.1089 23.4534C15.1807 23.2799 15.2861 23.1222 15.4189 22.9894L23.9888 14.4195C24.1214 14.2865 24.279 14.181 24.4526 14.109C24.6261 14.037 24.8121 13.9999 25 13.9999C25.1879 13.9999 25.3739 14.037 25.5474 14.109C25.721 14.181 25.8786 14.2865 26.0112 14.4195L34.5811 22.9894C34.7139 23.1222 34.8193 23.2799 34.8911 23.4534C34.963 23.6269 35 23.8128 35 24.0006C35 24.1885 34.963 24.3744 34.8911 24.5479C34.8193 24.7214 34.7139 24.8791 34.5811 25.0119C34.3129 25.2801 33.9492 25.4308 33.5699 25.4308C33.3821 25.4308 33.1961 25.3938 33.0226 25.3219C32.8491 25.25 32.6914 25.1447 32.5586 25.0119L26.4283 18.8787L26.4283 35.4272C26.4283 35.806 26.2778 36.1693 26.01 36.4371C25.7421 36.705 25.3788 36.8555 25 36.8555Z" fill="#007CBA"/>
</svg>
