<svg width="60" height="60" viewBox="0 0 60 60" fill="none" xmlns="http://www.w3.org/2000/svg">
<path d="M55.4875 30L60 24.0375L53.55 20.25L55.4375 13.0125L53.25 12.7L48.025 11.975L48 11.7625L46.9875 4.5625L45.275 5.0125L39.75 6.45L39.425 5.8875L35.9625 0L35.0125 0.725L30 4.5125L29.3125 3.9875L24.0375 0L23.75 0.4875L20.25 6.45L13.0125 4.5625L11.975 11.975L4.5625 13.0125L6.45 20.25L0.4875 23.75L0 24.0375L3.9875 29.3125L4.5125 30L0.725 35.0125L0 35.9625L5.8875 39.425L6.45 39.75L5.0125 45.275L4.5625 46.9875L11.7625 48L11.975 48.025L12.7 53.25L13.0125 55.4375L20.25 53.55L24.0375 60L30 55.4875L35.9625 60L39.75 53.55L46.9875 55.4375L48.025 48.025L55.4375 46.9875L53.55 39.75L60 35.9625L55.4875 30V30ZM12.4875 44.3125L9.2625 43.8625L9.675 42.275L10.075 40.7L10.7875 37.95L10.1 37.55L8.35 36.525L5.5375 34.8625L6.175 34.025L7.5 32.2625L9.2125 30L8.6 29.1875L7.5 27.7375L5.5375 25.1375L5.9 24.925L8.35 23.475L10.7875 22.05L10.075 19.3L9.2625 16.1375L12.4875 15.6875L15.3 15.3L15.6875 12.4875L16.1375 9.2625L19.3 10.075L22.05 10.7875L23.475 8.35L24.925 5.9L25.1375 5.5375L27.7375 7.5L29.1875 8.6L30 9.2125L32.2625 7.5L34.025 6.175L34.8625 5.5375L36.525 8.35L37.55 10.1L37.95 10.7875L40.7 10.075L42.275 9.675L43.8625 9.2625L44.3125 12.4875L44.65 14.95L44.7 15.3L47.5125 15.6875L48.7 15.85L50.7375 16.1375L49.925 19.3L49.2125 22.05L51.65 23.475L54.4625 25.1375L52.5 27.7375L50.7875 30L52.5 32.2625L54.4625 34.8625L51.65 36.525L49.2125 37.95L49.925 40.7L50.7375 43.8625L47.5125 44.3125L44.7 44.7L44.3125 47.5125L43.8625 50.7375L40.7 49.925L37.95 49.2125L36.525 51.65L34.8625 54.4625L32.2625 52.5L30 50.7875L27.7375 52.5L25.1375 54.4625L23.475 51.65L22.05 49.2125L19.3 49.925L16.1375 50.7375L15.85 48.7L15.6875 47.5125L15.3 44.7L14.95 44.65L12.4875 44.3125V44.3125Z" fill="#000C13"/>
<path d="M26.0126 31.7625L22.0251 27.775L18.0376 31.7625L26.0126 39.7375L41.9626 23.8L37.9751 19.8125L26.0126 31.7625Z" fill="#007CBA"/>
</svg>
