<svg width="48" height="60" viewBox="0 0 48 60" fill="none" xmlns="http://www.w3.org/2000/svg">
<path d="M44.728 35.9001C48.1816 23.0867 43.5768 11.2494 41.3996 6.51947C42.8386 8.3714 44.8657 20.6467 42.6008 31.0826C40.0356 42.9324 30.4882 57.1848 10.2046 53.6686C10.0044 53.631 9.80415 53.606 9.61646 53.5685C11.4934 54.8198 13.4705 55.7207 15.4225 56.2338C25.5581 58.9366 39.3224 56.0085 44.7405 35.9001H44.728Z" fill="#007CBA"/>
<path d="M30.3129 3.99164C30.876 3.99164 31.389 4.05421 31.852 4.15431C37.6956 5.55577 46.6674 18.7445 42.3004 37.9395C38.6841 53.8561 28.7988 56.2211 23.2305 56.2211C21.3536 56.2211 19.4641 55.9708 17.6122 55.4828C13.3577 54.3441 9.41612 51.1533 7.0887 46.9239C4.18567 41.6684 3.81028 35.1116 6.02509 27.9666C10.8176 12.538 23.4307 3.99164 30.3129 3.99164ZM30.3129 0.237732C21.2785 0.237732 7.57671 10.2857 2.44636 26.878C-3.17199 45.0344 7.11372 56.5839 16.6612 59.1241C18.7133 59.6747 20.9531 60 23.243 60C32.2774 60 42.2879 54.9823 45.9667 38.7904C50.5965 18.4817 41.3118 2.56516 32.7404 0.513019C31.9771 0.337836 31.1763 0.237732 30.3254 0.237732H30.3129Z" fill="#000C13"/>
</svg>
