<svg width="1410" height="1003" viewBox="0 0 1410 1003" fill="none" xmlns="http://www.w3.org/2000/svg">
<path d="M93.5129 207.601C84.9055 195.256 54.0559 190.659 27.3896 207.205C0.723358 223.751 0.931697 249.577 10.013 263.296C19.6309 277.867 40.6415 290.523 68.3929 270.168C96.1442 249.814 101.912 219.632 93.5129 207.601Z" fill="#E6EFF5"/>
<path d="M1391.82 326.067C1386.21 323.85 1374.8 329.166 1369.43 340.627C1364.06 352.087 1369.8 360.68 1375.87 363.252C1382.3 365.989 1392.16 365.555 1397.06 352.579C1401.96 339.604 1397.29 328.225 1391.82 326.067Z" fill="#E6EFF5"/>
<path d="M989.432 2.60099C978.488 8.884 972.282 34.4933 984.009 58.2295C995.735 81.9656 1017.26 83.8034 1029.38 77.2286C1042.26 70.2685 1054.42 53.5693 1039.61 28.623C1024.79 3.67661 1000.1 -3.53145 989.432 2.60099Z" fill="#BCD6E8"/>
<path d="M1305.87 831.546C1298.17 825.092 1277.34 827.495 1262.85 842.787C1248.35 858.079 1252.89 874.674 1261.14 881.93C1269.87 889.642 1285.69 894.139 1300.24 876.205C1314.79 858.272 1313.38 837.833 1305.87 831.546Z" fill="#BCD6E8"/>
<path d="M413.83 935.064C404.314 939.813 397.943 960.883 406.79 981.192C415.637 1001.5 433.723 1003.99 444.247 999.055C455.424 993.828 466.425 980.45 455.025 958.995C443.626 937.539 423.104 930.428 413.83 935.064Z" fill="#90BAD8"/>
<path d="M369.274 2.94961C364.514 4.12813 359.525 12.9691 361.463 23.0009C363.4 33.0327 371.289 35.9769 376.523 34.8143C382.079 33.588 388.377 28.6758 385.406 17.8708C382.435 7.0657 373.915 1.79771 369.274 2.94961Z" fill="#E6EFF5"/>
</svg>
