<svg width="1440" height="934" viewBox="0 0 1440 934" fill="none" xmlns="http://www.w3.org/2000/svg">
<rect width="1440" height="934" fill="#E6EFF5"/>
<g style="mix-blend-mode:lighten">
<path fill-rule="evenodd" clip-rule="evenodd" d="M27.0107 366.798H290.099C287.176 349.752 274.055 336.188 257.241 332.612C256.687 309.726 237.961 291.343 214.942 291.343C214.282 291.343 213.626 291.359 212.973 291.388L212.973 291.343C212.973 269.062 194.911 251 172.63 251C153.518 251 137.511 264.289 133.343 282.13C131.416 281.72 129.417 281.504 127.367 281.504C111.607 281.504 98.8312 294.279 98.8312 310.039C98.8312 310.351 98.8362 310.661 98.8461 310.971C95.9855 310.36 93.0178 310.039 89.9751 310.039C68.95 310.039 51.5066 325.375 48.2202 345.47C48.0353 345.465 47.8498 345.463 47.6637 345.463C36.2515 345.463 27 354.714 27 366.126C27 366.351 27.0036 366.575 27.0107 366.798Z" fill="url(#paint0_linear_507_7056)"/>
</g>
<g style="mix-blend-mode:lighten">
<path fill-rule="evenodd" clip-rule="evenodd" d="M973.65 89.9336C974.822 85.3534 975.445 80.5534 975.445 75.608C975.445 43.7874 949.649 17.9917 917.829 17.9917C891.7 17.9917 869.633 35.3847 862.575 59.2245C858.694 58.5177 854.695 58.1485 850.61 58.1485C813.968 58.1485 784.264 87.8526 784.264 124.495C784.264 125.066 784.271 125.636 784.286 126.205C779.807 125.088 775.121 124.495 770.296 124.495C740.54 124.495 716.052 147.052 713 176H1088.75C1082.2 151.371 1059.75 133.224 1033.06 133.224C1031.74 133.224 1030.43 133.269 1029.13 133.357C1020.64 109.905 999.322 92.5998 973.65 89.9336Z" fill="url(#paint1_linear_507_7056)"/>
</g>
<g style="mix-blend-mode:lighten">
<path fill-rule="evenodd" clip-rule="evenodd" d="M1074.19 787.197L1074.19 787.285C1072.91 787.226 1071.62 787.197 1070.32 787.197C1025.04 787.197 988.21 823.283 987.121 868.21C978.252 870.092 969.905 873.385 962.328 877.841C954.404 856.495 933.821 841.282 909.678 841.282C900.347 841.282 891.548 843.554 883.805 847.575C869.779 799.304 825.148 764.017 772.258 764.017C715.712 764.017 668.606 804.351 658.247 857.763C648.107 853.373 636.919 850.94 625.161 850.94C615.094 850.94 605.444 852.724 596.512 855.992C591.24 841.405 581.82 828.121 568.515 818.056C531.885 790.345 479.681 797.515 451.915 834.072C448.299 838.832 445.277 843.856 442.834 849.054C442.361 848.672 441.88 848.296 441.392 847.926C416.688 829.238 381.481 834.074 362.755 858.728C360.319 861.935 358.282 865.319 356.636 868.822C337.216 860.187 315.384 859.876 296.082 867.212C296.114 866.299 296.129 865.382 296.129 864.462C296.129 820.722 260.601 785.265 216.775 785.265C172.948 785.265 137.42 820.722 137.42 864.462V864.55C136.137 864.491 134.846 864.462 133.549 864.462C111.328 864.462 91.1412 873.152 76.2151 887.314C69.283 874.838 55.952 866.393 40.6449 866.393C18.1971 866.393 -0.000244141 884.554 -0.000244141 906.957C-0.000244141 917.346 3.91321 926.823 10.3492 934H445.275C446.55 932.839 447.78 931.611 448.961 930.316C449.794 931.564 450.663 932.792 451.569 934L1440 934C1440 911.597 1421.8 893.436 1399.35 893.436C1398.99 893.436 1398.62 893.441 1398.26 893.45C1391.8 854.002 1357.49 823.897 1316.13 823.897C1310.14 823.897 1304.31 824.528 1298.68 825.726C1298.7 825.119 1298.71 824.509 1298.71 823.897C1298.71 792.96 1273.58 767.88 1242.58 767.88C1238.55 767.88 1234.62 768.305 1230.82 769.111C1222.63 734.087 1191.14 708 1153.55 708C1109.72 708 1074.19 743.458 1074.19 787.197ZM1195.51 854.427C1195.31 854.553 1195.1 854.679 1194.9 854.803H1195.76C1195.68 854.678 1195.59 854.553 1195.51 854.427Z" fill="url(#paint2_linear_507_7056)"/>
</g>
<path fill-rule="evenodd" clip-rule="evenodd" d="M1312 453.5C1312 453.633 1312 453.767 1312 453.9C1328.96 457.342 1342.46 470.323 1346.65 487H1209.24C1208.43 484.308 1208 481.455 1208 478.5C1208 462.208 1221.21 449 1237.5 449C1238.77 449 1240.02 449.08 1241.25 449.237C1243.36 431.641 1258.34 418 1276.5 418C1296.11 418 1312 433.894 1312 453.5Z" fill="url(#paint3_linear_507_7056)"/>
<defs>
<linearGradient id="paint0_linear_507_7056" x1="158.549" y1="251" x2="158.549" y2="366.798" gradientUnits="userSpaceOnUse">
<stop offset="0.203646" stop-color="white"/>
<stop offset="1" stop-color="#E6EFF5"/>
</linearGradient>
<linearGradient id="paint1_linear_507_7056" x1="900.874" y1="17.9917" x2="900.874" y2="176" gradientUnits="userSpaceOnUse">
<stop offset="0.203646" stop-color="white"/>
<stop offset="1" stop-color="#E6EFF5"/>
</linearGradient>
<linearGradient id="paint2_linear_507_7056" x1="720" y1="708" x2="720" y2="934" gradientUnits="userSpaceOnUse">
<stop offset="0.203646" stop-color="white"/>
<stop offset="1" stop-color="#E6EFF5"/>
</linearGradient>
<linearGradient id="paint3_linear_507_7056" x1="1277.32" y1="418" x2="1277.32" y2="487" gradientUnits="userSpaceOnUse">
<stop offset="0.203646" stop-color="white"/>
<stop offset="1" stop-color="#E6EFF5"/>
</linearGradient>
</defs>
</svg>
