<svg width="36" height="36" viewBox="0 0 36 36" fill="none" xmlns="http://www.w3.org/2000/svg">
<path d="M27 15H36L31.5 9L27 15ZM27 21H36L31.5 27L27 21Z" fill="#61A2CA"/>
<path d="M1.5 0H10.5V36H1.5C1.10218 36 0.720643 35.842 0.439339 35.5607C0.158034 35.2794 0 34.8978 0 34.5V1.5C0 1.10218 0.158034 0.720643 0.439339 0.439339C0.720643 0.158034 1.10218 0 1.5 0Z" fill="#007CBA"/>
<path d="M13.5 0H22.5C22.8978 0 23.2794 0.158034 23.5607 0.439339C23.842 0.720643 24 1.10218 24 1.5V34.5C24 34.8978 23.842 35.2794 23.5607 35.5607C23.2794 35.842 22.8978 36 22.5 36H13.5V0Z" fill="#90BAD8"/>
</svg>
