<svg width="20" height="20" viewBox="0 0 20 20" fill="none" xmlns="http://www.w3.org/2000/svg">
<path d="M17.9218 0H2.07823C0.929804 0 0 0.929804 0 2.07823V17.9218C0 19.0702 0.929804 20 2.07823 20H17.9218C19.0702 20 20 19.0702 20 17.9218V2.07823C20 0.929804 19.0702 0 17.9218 0V0ZM6.1267 17.1605H3.17398V7.62018H6.1267V17.1605ZM4.63585 6.36902C3.6718 6.36902 2.8895 5.57882 2.8895 4.60687C2.8895 3.63493 3.6718 2.84736 4.63585 2.84736C5.59989 2.84736 6.38219 3.63493 6.38219 4.60687C6.38219 5.57882 5.59989 6.36902 4.63585 6.36902ZM17.1948 17.1605H14.2552V12.1533C14.2552 10.781 13.7337 10.0119 12.6485 10.0119C11.4658 10.0119 10.8495 10.81 10.8495 12.1533V17.1605H8.01528V7.62018H10.8495V8.90557C10.8495 8.90557 11.7003 7.33044 13.7258 7.33044C15.7513 7.33044 17.1974 8.56578 17.1974 11.1208V17.1632L17.1948 17.1605Z" fill="white"/>
</svg>
