<svg width="21" height="20" viewBox="0 0 21 20" fill="none" xmlns="http://www.w3.org/2000/svg">
<path d="M19.5735 0H1.42363C0.639181 0 0 0.608744 0 1.35584V18.6414C0 19.3913 0.639181 19.9972 1.42363 19.9972H11.0578V12.15L8.41976 12.1334V9.07028L11.0578 9.08688V6.12341C11.0578 3.95407 12.2548 2.81959 14.9133 2.81959H18.0365V5.83011H15.4537C14.7709 5.83011 14.6285 6.10127 14.6285 6.78473V9.08688L17.8593 9.07858L17.6385 11.6076C17.6152 11.8899 17.3683 12.1057 17.0719 12.1057L14.6314 12.114V19.9972H19.5764C20.3637 19.9972 21 19.3885 21 18.6414V1.35584C21 0.605977 20.3608 0 19.5764 0H19.5735Z" fill="white"/>
</svg>
