<svg width="20" height="20" viewBox="0 0 20 20" fill="none" xmlns="http://www.w3.org/2000/svg">
<path d="M9.99997 5.93433C7.75357 5.93433 5.93427 7.75363 5.93427 10C5.93427 12.2464 7.75357 14.0657 9.99997 14.0657C12.2464 14.0657 14.0657 12.2464 14.0657 10C14.0657 7.75363 12.2464 5.93433 9.99997 5.93433Z" fill="white"/>
<path d="M19.5113 2.80493C19.2895 2.23409 19.0267 1.82752 18.5996 1.40041C18.1725 0.973306 17.7659 0.710472 17.1951 0.488706C16.7639 0.320329 16.1191 0.123203 14.9281 0.0698152C13.6427 0.0123203 13.2567 0 10 0C6.74333 0 6.35729 0.0123203 5.07187 0.0698152C3.8809 0.123203 3.23614 0.324435 2.80493 0.488706C2.23409 0.710472 1.82752 0.973306 1.40041 1.40041C0.973306 1.82752 0.710472 2.23409 0.488706 2.80493C0.320329 3.23614 0.123203 3.8809 0.0698152 5.07187C0.0123203 6.35729 0 6.74333 0 10C0 13.2567 0.0123203 13.6427 0.0698152 14.9281C0.123203 16.1191 0.324435 16.7639 0.488706 17.1951C0.710472 17.7659 0.973306 18.1725 1.40041 18.5996C1.82752 19.0267 2.23409 19.2895 2.80493 19.5113C3.23614 19.6797 3.8809 19.8768 5.07187 19.9302C6.35729 19.9877 6.74333 20 10 20C13.2567 20 13.6427 19.9877 14.9281 19.9302C16.1191 19.8768 16.7639 19.6756 17.1951 19.5113C17.7659 19.2895 18.1725 19.0267 18.5996 18.5996C19.0267 18.1725 19.2895 17.7659 19.5113 17.1951C19.6797 16.7639 19.8768 16.1191 19.9302 14.9281C19.9877 13.6427 20 13.2567 20 10C20 6.74333 19.9877 6.35729 19.9302 5.07187C19.8768 3.8809 19.6756 3.23614 19.5113 2.80493ZM10 16.2669C6.54209 16.2669 3.73717 13.462 3.73717 10.0041C3.73717 6.5462 6.54209 3.74127 10 3.74127C13.4579 3.74127 16.2628 6.5462 16.2628 10.0041C16.2628 13.462 13.4579 16.2669 10 16.2669ZM16.5133 4.95277C15.7043 4.95277 15.0513 4.29569 15.0513 3.49076C15.0513 2.68583 15.7084 2.02875 16.5133 2.02875C17.3183 2.02875 17.9754 2.68583 17.9754 3.49076C17.9754 4.29569 17.3183 4.95277 16.5133 4.95277Z" fill="white"/>
</svg>
