<svg width="46" height="60" viewBox="0 0 46 60" fill="none" xmlns="http://www.w3.org/2000/svg">
<g clip-path="url(#clip0_489_3336)">
<path d="M31.3325 24.2875H7.99219V27.7H31.3325V24.2875Z" fill="#007CBA"/>
<path d="M39.2743 14.95L25.1305 0H0.5V54.675H25.7578C25.0949 53.6125 24.6097 52.475 24.4085 51.25H3.73119V3.4125H21.8993V18.3625H36.0905V33.6125H39.3217V15L39.2743 14.95ZM25.1305 14.95V4.8375L34.7057 14.95H25.1305Z" fill="#000C13"/>
<path d="M31.3325 30.1875H7.99219V33.6H31.3325V30.1875Z" fill="#007CBA"/>
<path d="M24.3139 36.075H7.99219V39.4875H24.3139V36.075Z" fill="#007CBA"/>
<path d="M24.3139 41.9625H7.99219V45.375H24.3139V41.9625Z" fill="#007CBA"/>
<path d="M41.9492 39.8625V50.0625C41.9492 51.525 39.0494 54.0875 36.0904 55.8C33.1315 54.0875 30.2317 51.525 30.2317 50.0625V39.8625H41.9373H41.9492ZM45.4881 36.1125H26.6809V50.0625C26.6809 55.55 36.0904 60 36.0904 60C36.0904 60 45.4999 55.55 45.4999 50.0625V36.1125H45.4881Z" fill="#000C13"/>
<path d="M36.0905 41.1125H31.4153V50.0125C31.5691 50.9 33.5812 52.825 36.0905 54.3625V41.1V41.1125Z" fill="#007CBA"/>
</g>
<defs>
<clipPath id="clip0_489_3336">
<rect width="45" height="60" fill="white" transform="translate(0.5)"/>
</clipPath>
</defs>
</svg>
