<svg width="53" height="58" viewBox="0 0 53 58" fill="none" xmlns="http://www.w3.org/2000/svg">
<g clip-path="url(#clip0_489_4124)">
<path d="M32.0663 26.1884H7.79199V29.5106H32.0663V26.1884Z" fill="#007CBA"/>
<path d="M32.0663 20.627H7.79199V23.9492H32.0663V20.627Z" fill="#007CBA"/>
<path d="M40.3259 14.5545L25.6161 0H0V53.2286H40.3751V14.6032L40.3259 14.5545ZM25.6161 4.70952L35.5744 14.5545H25.6161V4.70952ZM3.36049 49.8942V3.32222H22.2556V17.8767H37.0146V49.8942H3.36049Z" fill="#000C13"/>
<path d="M32.0663 31.9201H7.79199V35.2423H32.0663V31.9201Z" fill="#007CBA"/>
<path d="M47.8594 24.3143C45.2991 24.3143 43.2188 26.3709 43.2188 28.9021V50.1984L47.8594 57.5L52.5001 50.1984V28.9143C52.5001 26.3831 50.4198 24.3265 47.8594 24.3265V24.3143ZM49.1396 49.237L47.8594 51.245L46.5792 49.237V28.9143C46.5792 28.2206 47.1578 27.6487 47.8594 27.6487C48.5611 27.6487 49.1396 28.2206 49.1396 28.9143V49.2492V49.237Z" fill="#007CBA"/>
<path d="M18.1194 46.718C17.6762 46.718 17.2577 46.645 16.8884 46.4746C16.3222 46.219 15.3497 45.5497 15.2513 43.8704C15.2513 43.773 15.2389 43.7122 15.2266 43.6635C14.4019 43.5053 11.5707 44.8317 9.29346 46.4624L7.5332 44.0651C9.37963 42.7386 13.9711 39.7815 16.5807 40.9984C17.1592 41.2661 18.1317 41.972 18.2302 43.6878C18.2302 43.7243 18.2302 43.7487 18.2302 43.773C19.2518 43.773 22.1815 42.1545 24.6434 40.2196L26.5144 42.5317C24.7911 43.8947 20.8767 46.7058 18.1194 46.7058V46.718Z" fill="#007CBA"/>
</g>
<defs>
<clipPath id="clip0_489_4124">
<rect width="52.5" height="57.5" fill="white"/>
</clipPath>
</defs>
</svg>
