<svg width="46" height="60" viewBox="0 0 46 60" fill="none" xmlns="http://www.w3.org/2000/svg">
<g clip-path="url(#clip0_489_4132)">
<path d="M36.2352 26.6625H13.6914V30.4125H36.2352V26.6625Z" fill="#007CBA"/>
<path d="M45.45 16.4L29.0579 0H0.5V60H45.5V16.4625L45.45 16.4125V16.4ZM29.0579 5.3125L40.161 16.4125H29.0579V5.3125V5.3125ZM4.25104 56.2375V3.75H25.3069V20.15H41.7615V56.2375H4.25104V56.2375Z" fill="#000C13"/>
<path d="M36.2352 33.125H13.6914V36.875H36.2352V33.125Z" fill="#007CBA"/>
<path d="M36.2349 39.5875H13.7036V43.3375H36.2349V39.5875Z" fill="#007CBA"/>
<path d="M36.2349 46.05H13.7036V49.8H36.2349V46.05Z" fill="#007CBA"/>
<path d="M14.1912 16.6C15.8347 16.6 17.167 15.268 17.167 13.625C17.167 11.982 15.8347 10.65 14.1912 10.65C12.5477 10.65 11.2153 11.982 11.2153 13.625C11.2153 15.268 12.5477 16.6 14.1912 16.6Z" fill="#007CBA"/>
<path d="M19.1927 20.1375C19.0802 18.7125 18.3925 17.45 17.3422 16.6C16.5545 17.4375 15.4292 17.975 14.1913 17.975C12.9535 17.975 11.8282 17.4375 11.0405 16.6C9.99016 17.45 9.30247 18.7125 9.18994 20.1375H19.1927Z" fill="#007CBA"/>
<path d="M10.1775 29.5375C10.73 29.5375 11.1778 29.0898 11.1778 28.5375C11.1778 27.9852 10.73 27.5375 10.1775 27.5375C9.62509 27.5375 9.17725 27.9852 9.17725 28.5375C9.17725 29.0898 9.62509 29.5375 10.1775 29.5375Z" fill="#181A2D"/>
<path d="M10.1775 36C10.73 36 11.1778 35.5523 11.1778 35C11.1778 34.4477 10.73 34 10.1775 34C9.62509 34 9.17725 34.4477 9.17725 35C9.17725 35.5523 9.62509 36 10.1775 36Z" fill="#181A2D"/>
<path d="M10.1775 42.4625C10.73 42.4625 11.1778 42.0148 11.1778 41.4625C11.1778 40.9102 10.73 40.4625 10.1775 40.4625C9.62509 40.4625 9.17725 40.9102 9.17725 41.4625C9.17725 42.0148 9.62509 42.4625 10.1775 42.4625Z" fill="#181A2D"/>
<path d="M10.1775 48.925C10.73 48.925 11.1778 48.4773 11.1778 47.925C11.1778 47.3727 10.73 46.925 10.1775 46.925C9.62509 46.925 9.17725 47.3727 9.17725 47.925C9.17725 48.4773 9.62509 48.925 10.1775 48.925Z" fill="#181A2D"/>
</g>
<defs>
<clipPath id="clip0_489_4132">
<rect width="45" height="60" fill="white" transform="translate(0.5)"/>
</clipPath>
</defs>
</svg>
