<svg width="171" height="50" viewBox="0 0 171 50" fill="none" xmlns="http://www.w3.org/2000/svg">
<path d="M78.4469 17.8695C78.4469 23.2734 75.0654 26.3898 69.1637 26.3898H64.5551V33.0208H59.3168V9.81226H69.1637C75.0654 9.81226 78.4469 12.7307 78.4469 17.8695ZM73.469 18.035C73.469 15.4488 71.8113 14.1558 68.894 14.1558H64.5551V22.0173H68.8986C71.8159 22.0173 73.4737 20.6872 73.4737 18.035H73.469Z" fill="white"/>
<path d="M87.0344 9.81226V33.0208H81.796V9.81226H87.0344Z" fill="white"/>
<path d="M113.16 21.4165C113.16 28.2467 108.087 33.0208 100.761 33.0208H91.1127V9.81226H100.959C108.153 9.81226 113.16 14.554 113.16 21.4165ZM107.822 21.4501C107.822 17.1668 104.838 14.2217 100.859 14.2217H96.3511V28.6159H101.097C104.971 28.6159 107.822 25.694 107.822 21.4501Z" fill="white"/>
<path d="M131.992 21.3228H136.534V30.2367C134.08 32.0276 130.334 33.2536 127.118 33.2536C120.09 33.2536 114.752 28.1483 114.752 21.4178C114.752 14.7208 120.193 9.64795 127.417 9.64795C130.864 9.64795 134.379 10.9746 136.733 13.0306L133.783 16.7767C132.058 15.185 129.671 14.1906 127.415 14.1906C123.305 14.1906 120.122 17.3405 120.122 21.4178C120.122 25.5286 123.338 28.6785 127.45 28.6785C128.839 28.6785 130.499 28.1819 131.992 27.419V21.3228Z" fill="white"/>
<path d="M145.652 9.81226V33.0208H140.414V9.81226H145.652Z" fill="white"/>
<path d="M154.405 9.81226L165.677 24.732V9.81226H170.655V33.0208H165.881L154.641 18.1346V33.0208H149.634V9.81226H154.405Z" fill="white"/>
<path d="M61.9782 36.238C61.4651 36.238 60.9731 36.4418 60.6103 36.8046C60.2475 37.1674 60.0437 37.6594 60.0437 38.1724C60.0437 38.6855 60.2475 39.1775 60.6103 39.5403C60.9731 39.9031 61.4651 40.1069 61.9782 40.1069C62.5133 40.1024 63.027 39.8956 63.416 39.5281L63.7563 39.8962C63.2686 40.3604 62.6236 40.6233 61.9504 40.6324C60.5473 40.6324 59.436 39.5489 59.436 38.1736C59.436 36.7983 60.5612 35.7356 61.9712 35.7356C62.6319 35.7399 63.2667 35.9929 63.7494 36.4441L63.416 36.8469C63.0349 36.4636 62.5187 36.245 61.9782 36.238Z" fill="white"/>
<path d="M70.6605 38.1759C70.6605 39.5443 69.5353 40.6278 68.1137 40.6278C66.6921 40.6278 65.5669 39.5443 65.5669 38.1759C65.5669 36.8076 66.6921 35.731 68.1137 35.731C69.5353 35.731 70.6605 36.8076 70.6605 38.1759ZM66.1318 38.1759C66.1318 38.7009 66.3404 39.2044 66.7116 39.5757C67.0829 39.9469 67.5864 40.1555 68.1114 40.1555C68.6364 40.1555 69.1399 39.9469 69.5112 39.5757C69.8824 39.2044 70.091 38.7009 70.091 38.1759C70.0734 37.6626 69.8572 37.1762 69.4878 36.8193C69.1185 36.4624 68.625 36.2629 68.1114 36.2629C67.5978 36.2629 67.1043 36.4624 66.735 36.8193C66.3656 37.1762 66.1494 37.6626 66.1318 38.1759Z" fill="white"/>
<path d="M73.4181 35.7449L76.3353 39.6971V35.7449H76.8841V40.607H76.3145L73.3949 36.6617V40.607H72.8392V35.7449H73.4181Z" fill="white"/>
<path d="M82.8228 35.7447V36.2564H81.2322V40.6046H80.6766V36.2564H79.0929V35.7424L82.8228 35.7447Z" fill="white"/>
<path d="M87.634 39.3637H84.983L84.4412 40.607H83.8508L86.0318 35.7449H86.6107L88.7847 40.607H88.1781L87.634 39.3637ZM87.4025 38.8497L86.2981 36.3492L85.2076 38.8497H87.4025Z" fill="white"/>
<path d="M92.9013 36.238C92.3883 36.238 91.8963 36.4418 91.5335 36.8046C91.1707 37.1674 90.9669 37.6594 90.9669 38.1724C90.9669 38.6855 91.1707 39.1775 91.5335 39.5403C91.8963 39.9031 92.3883 40.1069 92.9013 40.1069C93.4365 40.1024 93.9501 39.8956 94.3391 39.5281L94.6795 39.8962C94.1918 40.3604 93.5468 40.6233 92.8735 40.6324C91.4705 40.6324 90.3591 39.5489 90.3591 38.1736C90.3591 36.7983 91.4844 35.7356 92.8944 35.7356C93.5551 35.7399 94.1899 35.9929 94.6725 36.4441L94.3391 36.8469C93.958 36.4636 93.4418 36.245 92.9013 36.238Z" fill="white"/>
<path d="M100.137 35.7447V36.2564H98.5483V40.6046H97.9927V36.2564H96.409V35.7424L100.137 35.7447Z" fill="white"/>
<path d="M107.217 36.2657C106.592 36.2657 106.182 36.5157 106.182 36.9325C106.182 38.1966 108.919 37.5368 108.912 39.301C108.912 40.1114 108.196 40.6277 107.154 40.6277C106.463 40.6202 105.799 40.3552 105.293 39.8845L105.543 39.4052C105.98 39.8254 106.558 40.068 107.164 40.0859C107.865 40.0859 108.303 39.8011 108.303 39.3288C108.31 38.0299 105.573 38.7176 105.573 36.9741C105.573 36.2101 106.247 35.7239 107.254 35.7239C107.8 35.7249 108.335 35.8815 108.796 36.1754L108.564 36.6685C108.162 36.4111 107.695 36.2715 107.217 36.2657Z" fill="white"/>
<path d="M116.073 38.1759C116.073 39.5443 114.948 40.6278 113.526 40.6278C112.104 40.6278 110.979 39.5443 110.979 38.1759C110.979 36.8076 112.104 35.731 113.526 35.731C114.948 35.731 116.073 36.8076 116.073 38.1759ZM111.544 38.1759C111.544 38.7009 111.753 39.2044 112.124 39.5757C112.495 39.9469 112.999 40.1555 113.524 40.1555C114.049 40.1555 114.552 39.9469 114.923 39.5757C115.295 39.2044 115.503 38.7009 115.503 38.1759C115.486 37.6626 115.269 37.1762 114.9 36.8193C114.531 36.4624 114.037 36.2629 113.524 36.2629C113.01 36.2629 112.517 36.4624 112.147 36.8193C111.778 37.1762 111.562 37.6626 111.544 38.1759Z" fill="white"/>
<path d="M119.032 35.7449V40.093H121.164V40.607H118.476V35.7449H119.032Z" fill="white"/>
<path d="M125.394 40.1208C126.32 40.1208 126.874 39.5651 126.874 38.6066V35.7449H127.429V38.6066C127.429 39.88 126.665 40.6278 125.394 40.6278C124.123 40.6278 123.345 39.8777 123.345 38.6066V35.7449H123.901V38.6066C123.901 39.5651 124.47 40.1208 125.394 40.1208Z" fill="white"/>
<path d="M133.245 35.7447V36.2564H131.659V40.6046H131.104V36.2564H129.52V35.7424L133.245 35.7447Z" fill="white"/>
<path d="M136.001 35.7449V40.607H135.445V35.7449H136.001Z" fill="white"/>
<path d="M143.495 38.1759C143.495 39.5443 142.37 40.6278 140.948 40.6278C139.527 40.6278 138.402 39.5443 138.402 38.1759C138.402 36.8076 139.527 35.731 140.948 35.731C142.37 35.731 143.495 36.8076 143.495 38.1759ZM138.966 38.1759C138.966 38.7009 139.175 39.2044 139.546 39.5757C139.918 39.9469 140.421 40.1555 140.946 40.1555C141.471 40.1555 141.975 39.9469 142.346 39.5757C142.717 39.2044 142.926 38.7009 142.926 38.1759C142.908 37.6626 142.692 37.1762 142.323 36.8193C141.953 36.4624 141.46 36.2629 140.946 36.2629C140.432 36.2629 139.939 36.4624 139.57 36.8193C139.2 37.1762 138.984 37.6626 138.966 38.1759Z" fill="white"/>
<path d="M146.475 35.7449L149.392 39.6971V35.7449H149.941V40.607H149.371L146.454 36.6617V40.607H145.898V35.7449H146.475Z" fill="white"/>
<path d="M154.22 36.2657C153.595 36.2657 153.185 36.5157 153.185 36.9325C153.185 38.1966 155.921 37.5368 155.914 39.301C155.914 40.1114 155.199 40.6277 154.157 40.6277C153.466 40.6202 152.802 40.3552 152.296 39.8845L152.546 39.4052C152.983 39.8254 153.56 40.068 154.166 40.0859C154.868 40.0859 155.306 39.8011 155.306 39.3288C155.312 38.0299 152.576 38.7176 152.576 36.9741C152.576 36.2101 153.25 35.7239 154.257 35.7239C154.803 35.7249 155.338 35.8815 155.799 36.1754L155.567 36.6685C155.164 36.4111 154.698 36.2715 154.22 36.2657Z" fill="white"/>
<path d="M49.9873 24.9925C49.9873 36.8862 41.6777 46.8396 30.5457 49.3633L30.3929 49.398L30.2667 49.4258H30.2505C29.7875 49.5254 29.3171 49.6118 28.8394 49.6851C27.5676 49.8812 26.2827 49.9795 24.996 49.9792C19.135 49.9887 13.4588 47.9286 8.96832 44.162C7.76881 43.1589 6.66543 42.0463 5.67249 40.8384C5.50695 40.6369 5.34372 40.4332 5.18512 40.226L5.09599 40.1102C4.97096 39.9458 4.84786 39.7795 4.7267 39.6113C1.6485 35.3589 -0.00595416 30.242 1.61015e-05 24.9925C1.61015e-05 11.1887 11.1887 0 24.9913 0C38.794 0 49.9873 11.1887 49.9873 24.9925Z" fill="white"/>
<path d="M43.2463 25.2239C43.2463 25.2239 42.1639 25.2865 38.9445 24.2978H38.9294C38.3436 24.1184 37.6873 23.9031 36.9533 23.6461C36.5118 23.4923 36.0382 23.4548 35.578 23.5373C34.4956 23.7294 32.4466 23.9031 31.179 24.0281C30.9717 24.0478 30.7854 24.0675 30.6268 24.0848C30.0178 24.1531 29.285 25.1881 29.0431 25.7495C29.0003 25.8502 28.9586 25.9486 28.9192 26.047C28.4605 27.1295 28.2209 28.2922 28.2142 29.4679C28.2103 30.1781 28.254 30.8878 28.345 31.5922C28.4978 32.8656 28.7792 34.3972 29.1797 36.3825C30.7252 44.0438 30.3975 49.4188 30.3975 49.4188L30.2714 49.4466H30.2552C29.7921 49.5461 29.3217 49.6326 28.844 49.7059C27.5722 49.9019 26.2874 50.0002 25.0006 49.9999C21.303 49.9991 17.6516 49.1782 14.3094 47.5964C10.9672 46.0145 8.0174 43.7112 5.67249 40.8522C5.50695 40.6508 5.34372 40.447 5.18512 40.2398C6.24588 38.8487 7.2246 37.3968 8.11629 35.8917C8.8757 34.6322 9.72426 33.1214 10.6203 31.3525C11.3565 29.8951 12.1252 28.2628 12.902 26.4522C13.9173 24.0825 14.7288 21.8911 15.5137 19.9034C15.9536 18.7897 16.3865 17.7397 16.8426 16.7581V16.7465C17.9818 14.2911 19.2679 12.2652 21.1931 10.7406C22.2897 9.88154 23.5211 9.21027 24.8374 8.75408C25.1129 8.65568 25.3919 8.57001 25.6732 8.4994C26.1077 8.38858 26.5501 8.31118 26.9964 8.26787C28.5065 8.11769 30.0292 8.37389 31.407 9.00992C33.6066 10.031 34.8661 11.7559 35.5954 13.7563C36.6905 16.7488 38.1758 19.4288 40.1461 21.1768C42.1164 22.9249 43.2463 25.2239 43.2463 25.2239Z" fill="white"/>
<path d="M42.8886 25.0364C42.811 25.0283 42.7323 25.019 42.6571 25.0063C42.4603 24.9785 42.2612 24.9415 42.0632 24.8986C41.6673 24.8153 41.2748 24.7123 40.8847 24.5953C40.1045 24.3638 39.3346 24.0964 38.5694 23.8151L37.4233 23.3891L37.1374 23.2814L36.98 23.2258C36.9232 23.2073 36.8642 23.1911 36.8098 23.1749C36.5827 23.1158 36.3498 23.0816 36.1152 23.073C35.9967 23.0694 35.878 23.0721 35.7598 23.0811C35.7008 23.0811 35.644 23.0927 35.5838 23.1008L35.4241 23.124C35.2296 23.1541 35.0305 23.1784 34.8302 23.2015C34.4308 23.2525 34.0257 23.2941 33.6205 23.3335C32.8101 23.4122 31.994 23.4794 31.1744 23.55L30.8653 23.5766L30.7101 23.5905L30.6326 23.5974H30.5932H30.5747H30.5411C30.3824 23.6204 30.229 23.6718 30.0885 23.7491C29.969 23.817 29.8562 23.896 29.7516 23.9853C29.3957 24.2854 29.0884 24.6388 28.8405 25.0329C28.778 25.1279 28.7248 25.2263 28.6611 25.3293C28.5974 25.4323 28.5453 25.5527 28.5037 25.6407C28.4064 25.8306 28.3138 26.0235 28.2258 26.2195C28.0392 26.6159 27.8881 27.0281 27.7743 27.4513C27.6552 27.8777 27.5837 28.316 27.5613 28.7582C27.5429 29.1928 27.5495 29.628 27.581 30.0618C27.6472 30.9022 27.7659 31.7378 27.9364 32.5634C28.0939 33.3807 28.2837 34.1841 28.462 34.9876L28.7387 36.1892C28.8348 36.5897 28.9123 36.9868 28.9991 37.3862C29.086 37.7856 29.1635 38.185 29.2388 38.5855L29.3545 39.1863L29.4564 39.7906C29.5259 40.1923 29.5942 40.5952 29.6521 40.9992C29.7099 41.4032 29.7748 41.8096 29.8222 42.2113L29.8986 42.819L29.9646 43.428C30.0109 43.8343 30.0468 44.2383 30.0804 44.6481C30.114 45.0579 30.1429 45.4585 30.173 45.8695C30.2031 46.2804 30.2193 46.6856 30.232 47.0942C30.2587 47.8791 30.276 48.6686 30.2471 49.4477C29.784 49.5473 29.3136 49.6337 28.8359 49.7071C28.8717 45.456 28.5779 41.2086 27.9573 37.003C26.9073 29.9784 22.9215 23.7294 22.9215 23.7294C21.3668 21.2127 21.9954 21.1756 22.9215 21.5449C29.1022 24.0628 32.3575 23.1529 34.4331 22.397C35.6869 21.9409 36.6165 22.397 36.6165 22.397C37.8146 22.7975 42.0597 24.6694 42.8886 25.0364Z" fill="black"/>
<path d="M35.8871 19.1742C35.4241 19.1915 35.3384 18.2839 34.9795 17.9239C34.6207 17.5639 34.0372 17.051 34.7225 17.051C34.7225 17.051 36.6234 17.462 36.6905 18.0269C36.7577 18.5919 36.3502 19.1568 35.8871 19.1742Z" fill="black"/>
<path d="M26.6144 14.9893C26.6144 14.9893 29.0651 14.3908 29.5699 14.7693C30.0746 15.1479 30.709 16.2291 30.709 16.2291C30.709 16.2291 29.2816 16.9075 26.6144 14.9893Z" fill="black"/>
<path d="M20.0505 12.7134C20.1443 13.2737 20.26 13.871 20.3978 14.4811C20.0894 14.7297 19.8407 15.0443 19.67 15.4017C19.4993 15.7591 19.411 16.1503 19.4115 16.5464C19.411 16.7379 19.432 16.929 19.474 17.1159C17.8452 20.34 16.0925 24.6152 14.4961 29.8501C11.58 39.4203 10.4165 42.7463 8.96137 44.1806C7.76382 43.176 6.66274 42.0618 5.67249 40.8523L5.70722 40.8026C5.81025 40.6567 5.90517 40.5097 6.00357 40.3627C6.1969 40.0698 6.38907 39.7769 6.57198 39.4805C6.94474 38.8901 7.30438 38.2955 7.65091 37.6966C7.9982 37.0969 8.3455 36.4973 8.67079 35.8883C8.8375 35.5858 9.0015 35.2821 9.1628 34.9773C9.32255 34.6717 9.49041 34.3718 9.64438 34.0627C10.9031 31.6093 12.0608 29.1142 13.1173 26.5774L13.9126 24.68L14.3097 23.7296L14.7126 22.7826C15.2509 21.5196 15.7961 20.2612 16.3634 19.0214C16.647 18.4032 16.9318 17.7862 17.2304 17.1807C17.5291 16.5753 17.8359 15.9756 18.1647 15.3957C18.6979 14.4382 19.33 13.5392 20.0505 12.7134Z" fill="white"/>
<path d="M28.2258 8.88846C26.7776 9.06673 24.8802 9.53095 23.6589 10.7141C23.0605 11.3213 22.5213 11.9842 22.0486 12.6936C21.9479 12.1148 21.8715 11.5788 21.8171 11.0984C22.394 10.6691 23.0103 10.2954 23.6577 9.98243C23.9483 9.83773 24.2493 9.71155 24.5503 9.58536C24.7019 9.52285 24.8547 9.4696 25.0133 9.40824C25.1719 9.34689 25.3143 9.30405 25.466 9.25312C26.0728 9.06831 26.6983 8.95182 27.331 8.90582C27.6287 8.88363 27.9274 8.87783 28.2258 8.88846Z" fill="white"/>
<path d="M29.1415 16.7651C29.6926 16.7651 30.1394 16.3183 30.1394 15.7672C30.1394 15.2161 29.6926 14.7693 29.1415 14.7693C28.5904 14.7693 28.1436 15.2161 28.1436 15.7672C28.1436 16.3183 28.5904 16.7651 29.1415 16.7651Z" fill="black"/>
<path d="M43.3922 25.1522C43.0634 24.5317 42.7057 23.9459 42.3236 23.3659C41.9432 22.783 41.5203 22.2289 41.0583 21.7082C40.9426 21.5797 40.8187 21.4546 40.6983 21.3273L40.3186 20.9638L39.9574 20.6165C39.8416 20.495 39.7259 20.3757 39.6101 20.253C39.1586 19.757 38.7442 19.2285 38.3703 18.6717C37.9957 18.1101 37.6555 17.5263 37.3515 16.9236C37.0471 16.3216 36.7727 15.7023 36.5227 15.0714C36.3965 14.7577 36.2796 14.4405 36.1638 14.1233L35.9959 13.644C35.9369 13.4808 35.8802 13.3106 35.8153 13.145C35.5615 12.4708 35.2318 11.8276 34.8325 11.228C34.629 10.925 34.4063 10.6354 34.1657 10.3609C33.9206 10.0878 33.6572 9.8318 33.3773 9.59454C33.097 9.35636 32.8012 9.13708 32.4917 8.93815C32.3343 8.84438 32.1792 8.74482 32.0183 8.658C31.8573 8.57118 31.6964 8.48088 31.5286 8.40679C30.8618 8.09448 30.1587 7.86659 29.4355 7.72841C28.7106 7.59348 27.9723 7.5449 27.236 7.5837C27.111 7.59181 26.986 7.60338 26.8609 7.61612C26.8245 7.25277 26.7599 6.89281 26.6676 6.5395C22.8751 6.22694 19.6615 9.21714 19.6615 9.21714C19.6615 9.21714 19.6905 9.96614 19.8224 11.096C19.7437 11.1747 19.665 11.2523 19.5909 11.3333C18.6254 12.3845 17.8075 13.5622 17.1598 14.8341C16.8299 15.4546 16.5405 16.0913 16.265 16.7291C15.9895 17.367 15.744 18.0141 15.5102 18.6624C15.0402 19.959 14.613 21.2636 14.1557 22.5544L13.8084 23.5199L13.4415 24.4773C13.196 25.1163 12.9309 25.7507 12.6577 26.3723C11.5631 28.8744 10.3175 31.3076 8.92779 33.6586C8.75762 33.9538 8.57355 34.2374 8.39643 34.5314L8.12902 34.9644C8.03872 35.1091 7.94379 35.2503 7.85118 35.3927C7.48073 35.9635 7.09755 36.5261 6.70742 37.0806C6.3173 37.6351 5.9098 38.1769 5.4861 38.7013C5.27657 38.9664 5.06009 39.2246 4.84361 39.4804L4.72784 39.6158C4.84978 39.7833 4.97288 39.9496 5.09713 40.1148L5.18627 40.2305C5.34487 40.4378 5.5081 40.6415 5.67364 40.8429L5.70837 40.7932C5.8114 40.6473 5.90633 40.5003 6.00473 40.3533C6.19806 40.0604 6.39023 39.7675 6.57314 39.4711C6.9459 38.8807 7.30554 38.2861 7.65207 37.6872C7.99936 37.0875 8.34665 36.4879 8.67195 35.8789C8.83866 35.5764 9.00266 35.2727 9.16395 34.9679C9.32371 34.6623 9.49157 34.3624 9.64554 34.0533C10.9043 31.5999 12.0619 29.1048 13.1185 26.568L13.9126 24.6799L14.3097 23.7294L14.7126 22.7825C15.2509 21.5195 15.7961 20.2611 16.3634 19.0213C16.647 18.4031 16.9318 17.7861 17.2305 17.1806C17.5291 16.5752 17.8359 15.9755 18.1647 15.3955C18.6982 14.4393 19.3302 13.5415 20.0505 12.7167C20.1443 13.277 20.26 13.8744 20.3978 14.4844C20.0894 14.733 19.8407 15.0476 19.67 15.405C19.4993 15.7625 19.411 16.1536 19.4115 16.5497C19.411 16.7413 19.432 16.9323 19.474 17.1193C19.5793 17.5997 19.816 18.0414 20.1576 18.3952C20.4993 18.749 20.9325 19.001 21.4089 19.123C21.8854 19.2451 22.3863 19.2324 22.856 19.0865C23.3257 18.9406 23.7456 18.6671 24.069 18.2965C24.3923 17.9259 24.6064 17.4728 24.6874 16.9877C24.7684 16.5025 24.713 16.0045 24.5276 15.549C24.3421 15.0934 24.0337 14.6984 23.6369 14.4078C23.2401 14.1173 22.7704 13.9426 22.2801 13.9033C22.1898 13.4912 22.1111 13.086 22.0486 12.697C21.9479 12.1182 21.8715 11.5822 21.8171 11.1018C22.394 10.6725 23.0103 10.2988 23.6577 9.98582C23.9483 9.84112 24.2493 9.71493 24.5503 9.58875C24.7019 9.52624 24.8547 9.47298 25.0133 9.41163C25.1719 9.35027 25.3143 9.30744 25.466 9.2565C26.0728 9.0717 26.6983 8.95521 27.3309 8.90921C28.6019 8.81606 29.877 9.02059 31.0551 9.50656C31.2056 9.56096 31.3457 9.63621 31.4915 9.70104C31.6374 9.76587 31.774 9.84806 31.9152 9.92099C32.1904 10.0797 32.4553 10.2556 32.7082 10.4477C32.9617 10.6409 33.2018 10.8509 33.4271 11.0763C33.6525 11.3044 33.8629 11.5469 34.0569 11.8022C34.4499 12.322 34.782 12.8852 35.0467 13.4808C35.1161 13.6313 35.1752 13.7818 35.24 13.938L35.4356 14.4208C35.5699 14.7414 35.7065 15.061 35.8524 15.3758C36.141 16.0079 36.4548 16.628 36.7936 17.2362C37.1268 17.8447 37.4908 18.4359 37.8841 19.0074C38.2828 19.5825 38.7231 20.1277 39.2015 20.6385C39.323 20.7647 39.4492 20.8874 39.5731 21.0113L39.9609 21.3678L40.3336 21.7047C40.4494 21.8205 40.5756 21.9362 40.6937 22.052C41.1698 22.5316 41.6138 23.042 42.0227 23.5801C42.3757 24.0436 42.6927 24.5336 42.9708 25.0457H42.9488L42.8839 25.0376C42.8064 25.0295 42.7277 25.0202 42.6524 25.0075C42.4556 24.9797 42.2565 24.9426 42.0585 24.8998C41.6626 24.8165 41.2702 24.7134 40.8801 24.5965C40.0998 24.365 39.33 24.0976 38.5648 23.8163L37.4187 23.3902L37.1327 23.2826L36.9753 23.227C36.9186 23.2085 36.8595 23.1923 36.8051 23.1761C36.578 23.117 36.3451 23.0828 36.1105 23.0742C35.992 23.0705 35.8734 23.0732 35.7551 23.0823C35.6961 23.0823 35.6394 23.0939 35.5792 23.102L35.4194 23.1251C35.2249 23.1552 35.0258 23.1795 34.8256 23.2027C34.4262 23.2536 34.021 23.2953 33.6158 23.3347C32.8055 23.4134 31.9893 23.4805 31.1697 23.5511L30.8606 23.5778L30.7055 23.5917L30.6279 23.5986H30.5886H30.57H30.5365C30.3777 23.6216 30.2244 23.6729 30.0838 23.7503C29.966 23.818 29.8547 23.8967 29.7516 23.9853C29.3957 24.2854 29.0884 24.6388 28.8405 25.0329C28.778 25.1279 28.7247 25.2263 28.6611 25.3293C28.5974 25.4323 28.5453 25.5527 28.5036 25.6407C28.4064 25.8306 28.3138 26.0235 28.2258 26.2195C28.0392 26.6159 27.8881 27.0281 27.7743 27.4513C27.6552 27.8777 27.5837 28.3161 27.5613 28.7583C27.5429 29.1928 27.5495 29.628 27.581 30.0618C27.6472 30.9023 27.7659 31.7378 27.9364 32.5634C28.0938 33.3807 28.2837 34.1842 28.462 34.9876L28.7386 36.1892C28.8347 36.5897 28.9123 36.9868 28.9991 37.3862C29.0859 37.7856 29.1635 38.185 29.2387 38.5855L29.3545 39.1864L29.4564 39.7906C29.5258 40.1923 29.5941 40.5952 29.652 40.9992C29.7099 41.4032 29.7747 41.8096 29.8222 42.2113L29.8986 42.8191L29.9646 43.428C30.0109 43.8343 30.0468 44.2383 30.0804 44.6481C30.1139 45.0579 30.1429 45.4585 30.173 45.8695C30.2031 46.2804 30.2193 46.6856 30.232 47.0942C30.2586 47.8791 30.276 48.6687 30.2471 49.4478H30.2633L30.3894 49.42L30.5423 49.3852C30.6673 46.1438 30.445 42.9175 30.0572 39.705L29.9808 39.0914L29.8917 38.4802C29.8326 38.0715 29.7759 37.6698 29.7041 37.2577C29.5675 36.4474 29.4309 35.637 29.3036 34.8266C29.2387 34.4249 29.1809 34.0163 29.1288 33.6169C29.0767 33.2175 29.0269 32.8066 28.9852 32.4072C28.8977 31.6144 28.8509 30.8177 28.8451 30.0201C28.8577 29.2565 28.9304 28.4951 29.0628 27.743C29.1276 27.3702 29.2098 26.9963 29.3117 26.6201C29.3638 26.4314 29.4274 26.2438 29.4853 26.0563C29.513 25.9718 29.5459 25.889 29.5837 25.8086C29.6196 25.7298 29.6636 25.65 29.7087 25.577C29.8845 25.2676 30.1075 24.9875 30.3698 24.747C30.454 24.6653 30.5557 24.604 30.6673 24.5676L30.9544 24.5317L31.2577 24.497L31.6177 24.4587C31.9652 25.1236 32.2174 25.834 32.3667 26.5691C32.1861 26.7833 31.9395 27.3008 32.0402 27.6932C32.1803 28.2362 32.5867 28.5997 32.9478 28.5036C33.309 28.4075 33.4908 27.8958 33.3507 27.3529C33.2523 26.9708 33.0219 26.678 32.7719 26.5703C32.6098 25.8398 32.2799 24.916 31.9963 24.4159C32.567 24.3569 33.1377 24.3001 33.7096 24.2318C34.1194 24.1855 34.5292 24.1358 34.9425 24.0767C35.1485 24.0466 35.3546 24.0131 35.5641 23.9737L35.7077 23.9471C35.7505 23.9401 35.7933 23.9332 35.8362 23.9285C35.9222 23.918 36.0088 23.9125 36.0955 23.9123C36.27 23.9115 36.444 23.9306 36.6141 23.9691C36.6558 23.9783 36.6986 23.9899 36.7403 24.0015L36.8734 24.042L37.1698 24.1334C37.3666 24.1936 37.5634 24.2573 37.7614 24.3152L38.3575 24.4831C39.1555 24.6984 39.9597 24.8894 40.7701 25.0561C41.1764 25.1383 41.5804 25.2101 41.9937 25.2749C42.1998 25.305 42.4047 25.3351 42.6119 25.3571C42.7161 25.3698 42.8203 25.3779 42.9256 25.3849C43.0354 25.3931 43.1455 25.3954 43.2556 25.3918L43.5102 25.3826L43.3922 25.1522ZM25.0677 7.97615C24.8941 8.03171 24.7146 8.09191 24.5456 8.14863C24.3766 8.20536 24.2099 8.27134 24.0432 8.33849C23.7098 8.47046 23.3822 8.61748 23.0604 8.77955C22.5773 9.02001 22.1098 9.29067 21.6608 9.58991C21.633 9.22177 21.6249 9.01108 21.6249 9.01108C21.6249 9.01108 22.9423 7.66937 25.4197 7.22252C25.4695 7.43204 25.5047 7.64479 25.525 7.85922C25.3722 7.89395 25.2194 7.931 25.0677 7.97615Z" fill="black"/>
<path d="M29.4876 15.8608C29.6794 15.8608 29.8349 15.7054 29.8349 15.5136C29.8349 15.3217 29.6794 15.1663 29.4876 15.1663C29.2958 15.1663 29.1403 15.3217 29.1403 15.5136C29.1403 15.7054 29.2958 15.8608 29.4876 15.8608Z" fill="white"/>
</svg>
