<svg width="171" height="50" viewBox="0 0 171 50" fill="none" xmlns="http://www.w3.org/2000/svg">
<path d="M78.4186 17.8598C78.4186 23.2654 75.0383 26.3827 69.1387 26.3827H64.5318V33.0158H59.2953V9.80016H69.1387C75.0383 9.80016 78.4186 12.7195 78.4186 17.8598ZM73.4425 18.0254C73.4425 15.4385 71.7853 14.145 68.8691 14.145H64.5318V22.009H68.8737C71.7899 22.009 73.4471 20.6784 73.4471 18.0254H73.4425Z" fill="black"/>
<path d="M87.0034 9.80014V33.0157H81.767V9.80014H87.0034Z" fill="black"/>
<path d="M113.119 21.4079C113.119 28.2401 108.048 33.0157 100.724 33.0157H91.08V9.80014H100.922C108.114 9.80014 113.119 14.5433 113.119 21.4079ZM107.783 21.4415C107.783 17.1569 104.8 14.211 100.823 14.211H96.3164V28.6096H101.061C104.933 28.6096 107.783 25.6868 107.783 21.4415Z" fill="black"/>
<path d="M131.945 21.3141H136.486V30.2307C134.033 32.0221 130.288 33.2484 127.073 33.2484C120.048 33.2484 114.712 28.1416 114.712 21.409C114.712 14.71 120.151 9.63562 127.372 9.63562C130.818 9.63562 134.332 10.9627 136.685 13.0193L133.736 16.7666C132.011 15.1743 129.625 14.1796 127.371 14.1796C123.261 14.1796 120.08 17.3305 120.08 21.409C120.08 25.5211 123.295 28.672 127.406 28.672C128.794 28.672 130.454 28.1752 131.945 27.4121V21.3141Z" fill="black"/>
<path d="M145.6 9.80014V33.0157H140.363V9.80014H145.6Z" fill="black"/>
<path d="M154.35 9.80014L165.618 24.7245V9.80014H170.594V33.0157H165.822L154.586 18.125V33.0157H149.581V9.80014H154.35Z" fill="black"/>
<path d="M61.9559 36.2337C61.443 36.2337 60.9512 36.4376 60.5885 36.8005C60.2259 37.1633 60.0222 37.6555 60.0222 38.1687C60.0222 38.6819 60.2259 39.1741 60.5885 39.537C60.9512 39.8999 61.443 40.1037 61.9559 40.1037C62.4909 40.0992 63.0043 39.8924 63.3932 39.5247L63.7334 39.893C63.2459 40.3573 62.6011 40.6204 61.9281 40.6295C60.5256 40.6295 59.4146 39.5456 59.4146 38.1699C59.4146 36.7942 60.5394 35.7311 61.949 35.7311C62.6094 35.7355 63.244 35.9885 63.7265 36.4398L63.3932 36.8428C63.0122 36.4594 62.4962 36.2407 61.9559 36.2337Z" fill="#007CBA"/>
<path d="M70.6356 38.1721C70.6356 39.5408 69.5108 40.6247 68.0897 40.6247C66.6687 40.6247 65.5438 39.5408 65.5438 38.1721C65.5438 36.8033 66.6687 35.7264 68.0897 35.7264C69.5108 35.7264 70.6356 36.8033 70.6356 38.1721ZM66.1086 38.1721C66.1086 38.6973 66.317 39.2009 66.6881 39.5723C67.0593 39.9437 67.5626 40.1523 68.0874 40.1523C68.6122 40.1523 69.1156 39.9437 69.4867 39.5723C69.8578 39.2009 70.0663 38.6973 70.0663 38.1721C70.0487 37.6586 69.8326 37.1721 69.4634 36.8151C69.0942 36.458 68.6008 36.2585 68.0874 36.2585C67.574 36.2585 67.0807 36.458 66.7115 36.8151C66.3423 37.1721 66.1261 37.6586 66.1086 38.1721Z" fill="#007CBA"/>
<path d="M73.3927 35.7404L76.3089 39.6939V35.7404H76.8575V40.604H76.2881L73.3696 36.6576V40.604H72.8141V35.7404H73.3927Z" fill="#007CBA"/>
<path d="M82.7927 35.7409V36.2528H81.2026V40.6022H80.6472V36.2528H79.0641V35.7386L82.7927 35.7409Z" fill="#007CBA"/>
<path d="M87.6036 39.3603H84.9535L84.412 40.604H83.8218L86.002 35.7404H86.5806L88.7539 40.604H88.1475L87.6036 39.3603ZM87.3722 38.8462L86.2682 36.3449L85.1781 38.8462H87.3722Z" fill="#007CBA"/>
<path d="M92.8682 36.2337C92.3553 36.2337 91.8635 36.4376 91.5008 36.8005C91.1382 37.1633 90.9344 37.6555 90.9344 38.1687C90.9344 38.6819 91.1382 39.1741 91.5008 39.537C91.8635 39.8999 92.3553 40.1037 92.8682 40.1037C93.4031 40.0992 93.9166 39.8924 94.3055 39.5247L94.6457 39.893C94.1581 40.3573 93.5134 40.6204 92.8404 40.6295C91.4378 40.6295 90.3269 39.5456 90.3269 38.1699C90.3269 36.7942 91.4517 35.7311 92.8612 35.7311C93.5217 35.7355 94.1563 35.9885 94.6387 36.4398L94.3055 36.8428C93.9245 36.4594 93.4085 36.2407 92.8682 36.2337Z" fill="#007CBA"/>
<path d="M100.1 35.7409V36.2528H98.5124V40.6022H97.9569V36.2528H96.3738V35.7386L100.1 35.7409Z" fill="#007CBA"/>
<path d="M107.178 36.2621C106.553 36.2621 106.143 36.5122 106.143 36.9291C106.143 38.1936 108.879 37.5336 108.872 39.2984C108.872 40.109 108.157 40.6254 107.115 40.6254C106.424 40.6179 105.761 40.3529 105.255 39.882L105.505 39.4026C105.941 39.8229 106.519 40.0656 107.125 40.0835C107.826 40.0835 108.263 39.7986 108.263 39.3262C108.27 38.0269 105.535 38.7147 105.535 36.9708C105.535 36.2065 106.208 35.7201 107.215 35.7201C107.761 35.7211 108.296 35.8778 108.756 36.1718L108.525 36.6651C108.122 36.4076 107.656 36.268 107.178 36.2621Z" fill="#007CBA"/>
<path d="M116.032 38.1722C116.032 39.5409 114.907 40.6248 113.486 40.6248C112.065 40.6248 110.94 39.5409 110.94 38.1722C110.94 36.8034 112.065 35.7265 113.486 35.7265C114.907 35.7265 116.032 36.8034 116.032 38.1722ZM111.505 38.1722C111.505 38.6973 111.713 39.201 112.084 39.5724C112.455 39.9437 112.959 40.1524 113.484 40.1524C114.008 40.1524 114.512 39.9437 114.883 39.5724C115.254 39.201 115.463 38.6973 115.463 38.1722C115.445 37.6587 115.229 37.1722 114.86 36.8151C114.49 36.4581 113.997 36.2586 113.484 36.2586C112.97 36.2586 112.477 36.4581 112.108 36.8151C111.739 37.1722 111.522 37.6587 111.505 38.1722Z" fill="#007CBA"/>
<path d="M118.989 35.7405V40.09H121.121V40.6041H118.434V35.7405H118.989Z" fill="#007CBA"/>
<path d="M125.349 40.1177C126.275 40.1177 126.828 39.5619 126.828 38.6031V35.7405H127.384V38.6031C127.384 39.8769 126.62 40.625 125.349 40.625C124.079 40.625 123.301 39.8746 123.301 38.6031V35.7405H123.857V38.6031C123.857 39.5619 124.426 40.1177 125.349 40.1177Z" fill="#007CBA"/>
<path d="M133.198 35.741V36.2528H131.612V40.6023H131.057V36.2528H129.474V35.7387L133.198 35.741Z" fill="#007CBA"/>
<path d="M135.952 35.7405V40.6041H135.397V35.7405H135.952Z" fill="#007CBA"/>
<path d="M143.444 38.1722C143.444 39.5409 142.319 40.6248 140.898 40.6248C139.477 40.6248 138.352 39.5409 138.352 38.1722C138.352 36.8034 139.477 35.7265 140.898 35.7265C142.319 35.7265 143.444 36.8034 143.444 38.1722ZM138.917 38.1722C138.917 38.6973 139.125 39.201 139.496 39.5724C139.867 39.9437 140.371 40.1524 140.896 40.1524C141.42 40.1524 141.924 39.9437 142.295 39.5724C142.666 39.201 142.874 38.6973 142.874 38.1722C142.857 37.6587 142.641 37.1722 142.272 36.8151C141.902 36.4581 141.409 36.2586 140.896 36.2586C140.382 36.2586 139.889 36.4581 139.52 36.8151C139.15 37.1722 138.934 37.6587 138.917 38.1722Z" fill="#007CBA"/>
<path d="M146.423 35.7405L149.339 39.6939V35.7405H149.888V40.6041H149.318L146.402 36.6576V40.6041H145.847V35.7405H146.423Z" fill="#007CBA"/>
<path d="M154.165 36.2622C153.54 36.2622 153.13 36.5123 153.13 36.9292C153.13 38.1937 155.866 37.5336 155.859 39.2984C155.859 40.109 155.144 40.6255 154.102 40.6255C153.411 40.618 152.748 40.3529 152.242 39.8821L152.492 39.4027C152.928 39.823 153.506 40.0656 154.112 40.0836C154.813 40.0836 155.25 39.7987 155.25 39.3262C155.257 38.027 152.522 38.7148 152.522 36.9709C152.522 36.2066 153.195 35.7202 154.202 35.7202C154.748 35.7212 155.283 35.8779 155.743 36.1718L155.512 36.6651C155.109 36.4076 154.643 36.268 154.165 36.2622Z" fill="#007CBA"/>
<path d="M49.9692 24.9989C49.9692 36.8962 41.6626 46.8538 30.5347 49.3783L30.3819 49.413L30.2558 49.4408H30.2396C29.7767 49.5404 29.3064 49.6269 28.8289 49.7002C27.5576 49.8963 26.2732 49.9946 24.9869 49.9943C21.2919 49.9935 17.643 49.1729 14.3029 47.5916C10.9628 46.0104 8.01456 43.7078 5.67044 40.8496C5.50495 40.6481 5.34178 40.4443 5.18324 40.237L5.09414 40.1212C4.96916 39.9568 4.8461 39.7904 4.72498 39.6221C1.64776 35.3686 -0.00610967 30.25 1.69604e-05 24.9989C1.69604e-05 11.1921 11.1846 0 24.9823 0C38.7799 0 49.9692 11.1921 49.9692 24.9989Z" fill="#007CBA"/>
<path d="M43.2311 25.2165C43.2311 25.2165 42.1491 25.279 38.9308 24.2901H38.9158C38.3302 24.1106 37.6741 23.8952 36.9404 23.6381C36.4991 23.4843 36.0256 23.4468 35.5656 23.5293C34.4836 23.7215 32.4353 23.8952 31.1681 24.0203C30.961 24.0399 30.7746 24.0596 30.6161 24.077C30.0074 24.1453 29.2749 25.1806 29.033 25.7422C28.9902 25.843 28.9485 25.9414 28.9092 26.0398C28.4506 27.1226 28.2111 28.2857 28.2044 29.4617C28.2005 30.1721 28.2442 30.8821 28.3352 31.5866C28.488 32.8604 28.7692 34.3925 29.1696 36.3785C30.7145 44.0421 30.387 49.4187 30.387 49.4187L30.2608 49.4465H30.2446C29.7817 49.5461 29.3115 49.6326 28.834 49.7059C27.5627 49.902 26.2783 50.0003 24.992 50C21.2957 49.9992 17.6456 49.178 14.3046 47.5957C10.9636 46.0134 8.01491 43.7094 5.67085 40.8495C5.50537 40.648 5.3422 40.4442 5.18365 40.2369C6.24403 38.8453 7.2224 37.3931 8.11376 35.8875C8.87291 34.6276 9.72116 33.1164 10.6169 31.3469C11.3529 29.889 12.1213 28.2562 12.8978 26.4451C13.9126 24.0747 14.7239 21.8826 15.5085 19.8943C15.9482 18.7803 16.381 17.73 16.837 16.748V16.7364C17.9757 14.2803 19.2614 12.2538 21.1858 10.7287C22.282 9.8694 23.5131 9.19792 24.8288 8.74159C25.1042 8.64316 25.3831 8.55747 25.6643 8.48683C26.0987 8.37598 26.5409 8.29855 26.987 8.25523C28.4966 8.10501 30.0188 8.36128 31.3961 8.99751C33.5948 10.0189 34.8539 11.7443 35.5829 13.7453C36.6777 16.7387 38.1624 19.4195 40.132 21.1681C42.1016 22.9167 43.2311 25.2165 43.2311 25.2165Z" fill="white"/>
<path d="M42.8727 25.0291C42.7951 25.021 42.7165 25.0117 42.6412 24.999C42.4445 24.9712 42.2455 24.9341 42.0476 24.8913C41.6518 24.8079 41.2595 24.7049 40.8695 24.5879C40.0895 24.3563 39.32 24.0888 38.5551 23.8074L37.4094 23.3813L37.1236 23.2736L36.9662 23.218C36.9095 23.1995 36.8505 23.1832 36.7961 23.167C36.569 23.1079 36.3362 23.0737 36.1017 23.0651C35.9832 23.0615 35.8647 23.0642 35.7465 23.0732C35.6874 23.0732 35.6307 23.0848 35.5706 23.0929L35.4109 23.1161C35.2164 23.1462 35.0174 23.1705 34.8172 23.1937C34.418 23.2446 34.0129 23.2863 33.6079 23.3257C32.7978 23.4044 31.982 23.4716 31.1627 23.5422L30.8537 23.5689L30.6986 23.5828L30.6211 23.5897H30.5817H30.5632H30.5297C30.371 23.6126 30.2177 23.664 30.0772 23.7414C29.9577 23.8093 29.8449 23.8884 29.7404 23.9776C29.3847 24.2779 29.0775 24.6314 28.8297 25.0256C28.7672 25.1206 28.714 25.219 28.6503 25.3221C28.5867 25.4251 28.5346 25.5456 28.4929 25.6336C28.3957 25.8235 28.3032 26.0165 28.2152 26.2126C28.0287 26.6091 27.8776 27.0214 27.7639 27.4447C27.6448 27.8713 27.5734 28.3097 27.551 28.7521C27.5325 29.1867 27.5391 29.6221 27.5706 30.056C27.6368 30.8967 27.7554 31.7325 27.9259 32.5584C28.0833 33.376 28.2731 34.1796 28.4513 34.9833L28.7279 36.1853C28.8239 36.5859 28.9014 36.9831 28.9882 37.3826C29.075 37.7822 29.1526 38.1817 29.2278 38.5823L29.3435 39.1833L29.4453 39.7878C29.5148 40.1896 29.5831 40.5926 29.6409 40.9968C29.6988 41.4009 29.7636 41.8074 29.811 42.2092L29.8874 42.8171L29.9534 43.4263C29.9997 43.8327 30.0355 44.2369 30.0691 44.6468C30.1026 45.0567 30.1316 45.4574 30.1617 45.8685C30.1918 46.2796 30.208 46.6849 30.2207 47.0936C30.2473 47.8788 30.2647 48.6685 30.2357 49.4479C29.7728 49.5474 29.3026 49.6339 28.8251 49.7072C28.8608 45.4549 28.5672 41.2062 27.9467 36.9994C26.8971 29.9726 22.9128 23.7217 22.9128 23.7217C21.3586 21.2042 21.987 21.1672 22.9128 21.5366C29.0912 24.0552 32.3454 23.145 34.4203 22.3889C35.6736 21.9326 36.6028 22.3889 36.6028 22.3889C37.8005 22.7895 42.0441 24.662 42.8727 25.0291Z" fill="#007CBA"/>
<path d="M35.8738 19.1649C35.4109 19.1823 35.3252 18.2744 34.9665 17.9143C34.6078 17.5542 34.0245 17.0412 34.7096 17.0412C34.7096 17.0412 36.6098 17.4523 36.6769 18.0174C36.744 18.5825 36.3367 19.1476 35.8738 19.1649Z" fill="#007CBA"/>
<path d="M26.6044 14.9787C26.6044 14.9787 29.0542 14.38 29.5588 14.7586C30.0633 15.1373 30.6975 16.2189 30.6975 16.2189C30.6975 16.2189 29.2706 16.8975 26.6044 14.9787Z" fill="#007CBA"/>
<path d="M20.0434 12.7023C20.1372 13.2628 20.2529 13.8603 20.3906 14.4706C20.0824 14.7193 19.8338 15.0339 19.6631 15.3915C19.4925 15.749 19.4042 16.1403 19.4047 16.5365C19.4042 16.7281 19.4252 16.9192 19.4671 17.1062C17.8389 20.3312 16.0869 24.6077 14.4911 29.8442C11.576 39.4174 10.413 42.7444 8.95834 44.1791C7.76123 43.1742 6.66056 42.0596 5.67065 40.8499L5.70537 40.8001C5.80836 40.6542 5.90326 40.5071 6.00162 40.36C6.19488 40.0671 6.38698 39.7741 6.56982 39.4776C6.94245 38.8871 7.30196 38.2922 7.64836 37.6931C7.99553 37.0933 8.3427 36.4935 8.66788 35.8844C8.83452 35.5817 8.99846 35.2779 9.1597 34.973C9.3194 34.6673 9.4872 34.3674 9.64111 34.0582C10.8994 31.604 12.0566 29.1081 13.1128 26.5706L13.9078 24.6726L14.3047 23.7219L14.7075 22.7746C15.2456 21.5112 15.7906 20.2525 16.3577 19.0123C16.6412 18.3939 16.9259 17.7767 17.2244 17.1711C17.523 16.5654 17.8297 15.9656 18.1583 15.3854C18.6914 14.4277 19.3232 13.5284 20.0434 12.7023Z" fill="#007CBA"/>
<path d="M28.2161 8.87598C26.7684 9.05431 24.8717 9.51867 23.6508 10.7021C23.0526 11.3096 22.5136 11.9726 22.0411 12.6823C21.9404 12.1033 21.864 11.5672 21.8096 11.0866C22.3863 10.6572 23.0024 10.2834 23.6496 9.97029C23.9401 9.82554 24.241 9.69932 24.5419 9.57309C24.6935 9.51056 24.8462 9.45729 25.0047 9.39592C25.1633 9.33455 25.3056 9.2917 25.4572 9.24075C26.0638 9.05588 26.6891 8.93936 27.3215 8.89335C27.6192 8.87115 27.9178 8.86535 28.2161 8.87598Z" fill="#007CBA"/>
<path d="M29.1305 16.7554C29.6815 16.7554 30.1281 16.3085 30.1281 15.7572C30.1281 15.2059 29.6815 14.759 29.1305 14.759C28.5796 14.759 28.133 15.2059 28.133 15.7572C28.133 16.3085 28.5796 16.7554 29.1305 16.7554Z" fill="black"/>
<path d="M43.3762 25.145C43.0476 24.5243 42.69 23.9383 42.3081 23.3582C41.9278 22.7751 41.505 22.2208 41.0433 21.6999C40.9275 21.5714 40.8037 21.4463 40.6834 21.319L40.3038 20.9553L39.9427 20.6079C39.827 20.4864 39.7113 20.3671 39.5956 20.2443C39.1442 19.7482 38.7299 19.2195 38.3562 18.6625C37.9817 18.1008 37.6416 17.5168 37.3378 16.9139C37.0335 16.3118 36.7592 15.6922 36.5092 15.0611C36.3831 14.7473 36.2662 14.43 36.1505 14.1127L35.9827 13.6333C35.9237 13.47 35.867 13.2998 35.8022 13.1342C35.5484 12.4598 35.2188 11.8164 34.8197 11.2166C34.6162 10.9135 34.3936 10.6238 34.1531 10.3492C33.9081 10.0761 33.6448 9.81996 33.365 9.58262C33.0848 9.34437 32.7891 9.12503 32.4798 8.92604C32.3224 8.83224 32.1673 8.73265 32.0064 8.6458C31.8456 8.55895 31.6847 8.46863 31.5169 8.39452C30.8504 8.08211 30.1476 7.85416 29.4247 7.71593C28.7 7.58096 27.962 7.53237 27.2259 7.57118C27.1009 7.57928 26.976 7.59086 26.851 7.6036C26.8146 7.24015 26.75 6.88008 26.6577 6.52666C22.8666 6.214 19.6542 9.20512 19.6542 9.20512C19.6542 9.20512 19.6831 9.95434 19.815 11.0846C19.7363 11.1633 19.6576 11.2409 19.5836 11.3219C18.6184 12.3734 17.8008 13.5515 17.1534 14.8237C16.8236 15.4444 16.5343 16.0813 16.2589 16.7194C15.9834 17.3574 15.7381 18.0048 15.5043 18.6532C15.0345 19.9502 14.6075 21.2553 14.1504 22.5464L13.8032 23.5122L13.4364 24.4699C13.191 25.1091 12.926 25.7437 12.6529 26.3655C11.5587 28.8683 10.3135 31.3023 8.92432 33.654C8.75421 33.9493 8.57021 34.233 8.39316 34.5271L8.12584 34.9602C8.03557 35.1049 7.94068 35.2462 7.8481 35.3887C7.47779 35.9595 7.09474 36.5223 6.70476 37.077C6.31477 37.6317 5.90742 38.1736 5.48388 38.6982C5.27442 38.9634 5.05802 39.2216 4.84161 39.4776L4.72589 39.613C4.84779 39.7806 4.97084 39.9469 5.09505 40.1121L5.18416 40.2279C5.3427 40.4352 5.50586 40.639 5.67135 40.8405L5.70607 40.7907C5.80906 40.6448 5.90395 40.4978 6.00232 40.3507C6.19557 40.0577 6.38767 39.7647 6.57052 39.4683C6.94315 38.8777 7.30266 38.2829 7.64906 37.6838C7.99623 37.084 8.34339 36.4841 8.66858 35.875C8.83522 35.5724 8.99916 35.2686 9.1604 34.9637C9.3201 34.658 9.4879 34.358 9.64181 34.0488C10.9001 31.5947 12.0573 29.0988 13.1135 26.5612L13.9074 24.6725L14.3043 23.7218L14.707 22.7746C15.2451 21.5112 15.7902 20.2524 16.3572 19.0122C16.6407 18.3938 16.9254 17.7766 17.224 17.171C17.5225 16.5654 17.8292 15.9655 18.1579 15.3854C18.6912 14.4288 19.323 13.5307 20.043 12.7058C20.1367 13.2662 20.2525 13.8637 20.3902 14.474C20.0819 14.7227 19.8333 15.0374 19.6627 15.3949C19.4921 15.7524 19.4037 16.1437 19.4042 16.5399C19.4038 16.7315 19.4247 16.9226 19.4667 17.1096C19.572 17.5902 19.8086 18.032 20.1501 18.386C20.4916 18.7399 20.9247 18.9919 21.4009 19.114C21.8772 19.2361 22.378 19.2235 22.8475 19.0775C23.317 18.9315 23.7368 18.6579 24.06 18.2872C24.3833 17.9165 24.5973 17.4633 24.6782 16.978C24.7592 16.4927 24.7039 15.9945 24.5184 15.5388C24.333 15.0832 24.0248 14.688 23.6281 14.3974C23.2315 14.1067 22.7619 13.932 22.2718 13.8927C22.1816 13.4805 22.1029 13.0752 22.0404 12.6861C21.9397 12.1071 21.8633 11.5709 21.8089 11.0903C22.3856 10.6609 23.0017 10.2871 23.6489 9.97403C23.9394 9.82928 24.2403 9.70306 24.5412 9.57683C24.6927 9.5143 24.8455 9.46103 25.004 9.39966C25.1626 9.33829 25.3049 9.29544 25.4565 9.24449C26.0631 9.05963 26.6884 8.9431 27.3208 8.89709C28.5913 8.80391 29.866 9.0085 31.0436 9.49462C31.1941 9.54904 31.3341 9.62431 31.4799 9.68916C31.6257 9.75401 31.7623 9.83623 31.9035 9.90918C32.1785 10.0679 32.4433 10.2439 32.6962 10.4361C32.9495 10.6293 33.1896 10.8394 33.4148 11.0649C33.6401 11.293 33.8504 11.5355 34.0443 11.7909C34.4372 12.3109 34.7692 12.8743 35.0338 13.47C35.1032 13.6206 35.1622 13.7711 35.227 13.9274L35.4226 14.4103C35.5568 14.7311 35.6934 15.0507 35.8392 15.3657C36.1277 15.9979 36.4413 16.6182 36.78 17.2266C37.1131 17.8353 37.477 18.4266 37.8701 18.9983C38.2687 19.5736 38.7089 20.119 39.1871 20.6299C39.3086 20.7562 39.4347 20.8789 39.5585 21.0028L39.9462 21.3595L40.3188 21.6965C40.4346 21.8123 40.5607 21.9281 40.6787 22.0439C41.1547 22.5236 41.5985 23.0342 42.0072 23.5724C42.3602 24.0361 42.677 24.5262 42.955 25.0385H42.933L42.8682 25.0303C42.7907 25.0222 42.712 25.013 42.6368 25.0002C42.44 24.9724 42.241 24.9354 42.0431 24.8925C41.6473 24.8092 41.255 24.7061 40.865 24.5891C40.0851 24.3575 39.3155 24.09 38.5506 23.8087L37.4049 23.3825L37.1191 23.2748L36.9617 23.2192C36.905 23.2007 36.846 23.1845 36.7916 23.1683C36.5645 23.1091 36.3317 23.075 36.0973 23.0664C35.9788 23.0627 35.8602 23.0654 35.742 23.0745C35.683 23.0745 35.6263 23.0861 35.5661 23.0942L35.4064 23.1173C35.212 23.1474 35.0129 23.1718 34.8127 23.1949C34.4135 23.2459 34.0085 23.2876 33.6034 23.3269C32.7934 23.4057 31.9775 23.4728 31.1582 23.5435L30.8492 23.5701L30.6941 23.584L30.6166 23.591H30.5773H30.5588H30.5252C30.3665 23.6139 30.2132 23.6653 30.0727 23.7426C29.9549 23.8104 29.8437 23.8891 29.7406 23.9777C29.3848 24.278 29.0776 24.6315 28.8298 25.0257C28.7674 25.1207 28.7141 25.2191 28.6505 25.3222C28.5868 25.4252 28.5348 25.5457 28.4931 25.6337C28.3959 25.8236 28.3033 26.0166 28.2154 26.2127C28.0288 26.6092 27.8778 27.0215 27.764 27.4448C27.6449 27.8713 27.5735 28.3098 27.5511 28.7522C27.5327 29.1868 27.5393 29.6222 27.5708 30.0561C27.6369 30.8968 27.7556 31.7326 27.9261 32.5585C28.0834 33.3761 28.2732 34.1797 28.4514 34.9834L28.728 36.1854C28.8241 36.586 28.9016 36.9832 28.9884 37.3827C29.0752 37.7822 29.1527 38.1817 29.2279 38.5824L29.3437 39.1834L29.4455 39.7879C29.5149 40.1897 29.5832 40.5927 29.6411 40.9968C29.6989 41.401 29.7637 41.8074 29.8112 42.2093L29.8876 42.8172L29.9535 43.4263C29.9998 43.8328 30.0357 44.2369 30.0692 44.6469C30.1028 45.0568 30.1317 45.4575 30.1618 45.8686C30.1919 46.2796 30.2081 46.6849 30.2208 47.0937C30.2475 47.8788 30.2648 48.6686 30.2359 49.4479H30.2521L30.3782 49.4201L30.531 49.3854C30.656 46.143 30.4338 42.9157 30.0461 39.7022L29.9697 39.0885L29.8806 38.477C29.8216 38.0683 29.7649 37.6664 29.6931 37.2542C29.5566 36.4436 29.42 35.633 29.2927 34.8224C29.2279 34.4206 29.1701 34.0118 29.118 33.6123C29.0659 33.2128 29.0162 32.8017 28.9745 32.4022C28.887 31.6092 28.8402 30.8122 28.8345 30.0144C28.847 29.2506 28.9197 28.4889 29.052 27.7366C29.1168 27.3637 29.199 26.9897 29.3008 26.6133C29.3529 26.4246 29.4166 26.237 29.4744 26.0494C29.5021 25.9648 29.5349 25.8821 29.5728 25.8016C29.6087 25.7228 29.6526 25.6429 29.6978 25.57C29.8734 25.2604 30.0964 24.9803 30.3585 24.7397C30.4427 24.658 30.5445 24.5966 30.656 24.5602L30.943 24.5243L31.2461 24.4896L31.606 24.4513C31.9534 25.1164 32.2055 25.827 32.3548 26.5624C32.1742 26.7766 31.9278 27.2942 32.0284 27.6868C32.1685 28.2299 32.5746 28.5935 32.9357 28.4974C33.2968 28.4013 33.4784 27.8894 33.3384 27.3463C33.2401 26.9642 33.0098 26.6712 32.7598 26.5635C32.5978 25.8328 32.268 24.9088 31.9845 24.4085C32.555 24.3494 33.1255 24.2927 33.6972 24.2244C34.1068 24.1781 34.5165 24.1283 34.9296 24.0692C35.1356 24.0391 35.3416 24.0055 35.551 23.9661L35.6945 23.9395C35.7374 23.9326 35.7802 23.9256 35.823 23.921C35.909 23.9104 35.9956 23.905 36.0822 23.9048C36.2566 23.904 36.4305 23.923 36.6007 23.9615C36.6423 23.9708 36.6851 23.9824 36.7268 23.9939L36.8599 24.0345L37.1561 24.1259C37.3528 24.1862 37.5496 24.2499 37.7475 24.3078L38.3434 24.4757C39.1412 24.691 39.945 24.8821 40.7551 25.0489C41.1613 25.1311 41.5652 25.2029 41.9783 25.2677C42.1843 25.2978 42.3891 25.328 42.5963 25.35C42.7004 25.3627 42.8046 25.3708 42.9099 25.3777C43.0196 25.386 43.1297 25.3883 43.2397 25.3847L43.4943 25.3754L43.3762 25.145ZM25.0584 7.96374C24.8848 8.01932 24.7055 8.07954 24.5365 8.13628C24.3676 8.19302 24.2009 8.25903 24.0343 8.32619C23.701 8.45821 23.3735 8.60527 23.0518 8.76739C22.5689 9.00793 22.1016 9.27866 21.6527 9.57799C21.6249 9.20975 21.6168 8.99899 21.6168 8.99899C21.6168 8.99899 22.9338 7.65687 25.4102 7.20988C25.4601 7.41947 25.4953 7.63229 25.5155 7.84678C25.3628 7.88152 25.21 7.91858 25.0584 7.96374Z" fill="black"/>
<path d="M29.4779 15.8508C29.6696 15.8508 29.8251 15.6952 29.8251 15.5034C29.8251 15.3115 29.6696 15.156 29.4779 15.156C29.2862 15.156 29.1307 15.3115 29.1307 15.5034C29.1307 15.6952 29.2862 15.8508 29.4779 15.8508Z" fill="white"/>
</svg>
