<svg width="31" height="38" viewBox="0 0 31 38" fill="none" xmlns="http://www.w3.org/2000/svg">
<path d="M29.2258 17.197C28.3985 15.3412 27.1959 13.6755 25.6932 12.3042L24.4531 11.1702C24.411 11.1327 24.3603 11.1062 24.3055 11.0928C24.2507 11.0794 24.1934 11.0797 24.1387 11.0935C24.084 11.1073 24.0336 11.1344 23.9918 11.1722C23.95 11.21 23.9182 11.2574 23.8991 11.3103L23.3451 12.8946C23 13.8884 22.365 14.9035 21.4659 15.9016C21.4062 15.9653 21.338 15.9823 21.2912 15.9866C21.2443 15.9908 21.1719 15.9823 21.1079 15.9229C21.0483 15.8719 21.0184 15.7954 21.0227 15.719C21.1804 13.1621 20.4133 10.2783 18.7344 7.13956C17.3452 4.53175 15.4148 2.49733 13.0028 1.07875L11.2429 0.0466693C11.0128 -0.0892424 10.7187 0.0891415 10.7315 0.356718L10.8253 2.39539C10.8892 3.78849 10.7273 5.02019 10.3437 6.04377C9.87499 7.29671 9.2017 8.46045 8.3409 9.50527C7.74185 10.2314 7.06288 10.8882 6.31676 11.4633C4.51976 12.8401 3.05858 14.6042 2.04261 16.6236C1.02915 18.6607 0.501236 20.9034 0.5 23.1771C0.5 25.1818 0.896306 27.1228 1.6804 28.9534C2.4375 30.7158 3.53008 32.3154 4.89772 33.6636C6.2784 35.0227 7.88067 36.093 9.66618 36.8363C11.5156 37.6093 13.4758 38 15.5 38C17.5241 38 19.4844 37.6093 21.3338 36.8405C23.1149 36.1016 24.7345 35.024 26.1022 33.6678C27.4829 32.3087 28.5653 30.7202 29.3196 28.9576C30.1025 27.1321 30.5041 25.1667 30.5 23.1814C30.5 21.1087 30.0738 19.0955 29.2258 17.197V17.197ZM24.0653 31.6079C21.777 33.8674 18.7386 35.1076 15.5 35.1076C12.2614 35.1076 9.223 33.8674 6.93465 31.6079C4.65483 29.3526 3.39772 26.3626 3.39772 23.1814C3.39772 21.3338 3.81534 19.5627 4.63778 17.9148C5.43892 16.3051 6.6321 14.8653 8.08096 13.7568C9.00498 13.0525 9.84308 12.2429 10.5781 11.3443C11.6435 10.0489 12.4787 8.60486 13.0582 7.05461C13.296 6.41514 13.4687 5.7535 13.5738 5.07965C14.6008 6.02254 15.4616 7.16079 16.1818 8.49443C17.6051 11.1532 18.2613 13.5189 18.1335 15.5321C18.103 16.0063 18.1807 16.4811 18.3607 16.921C18.5408 17.361 18.8186 17.7544 19.1733 18.072C19.4806 18.3486 19.84 18.5617 20.2307 18.6988C20.6213 18.8359 21.0354 18.8942 21.4488 18.8704C22.2883 18.828 23.0596 18.4585 23.6221 17.8341C24.1889 17.2013 24.679 16.5557 25.088 15.8974C25.6846 16.6576 26.1832 17.4858 26.5795 18.3778C27.2571 19.8983 27.6022 21.5165 27.6022 23.1814C27.6022 26.3626 26.3451 29.3569 24.0653 31.6079Z" fill="#007CBA"/>
</svg>
