<svg xmlns="http://www.w3.org/2000/svg" viewBox="0 0 50 50"><defs><style>.cls-1{fill:#3b579d;}</style></defs><title>facebook_icon</title><g id="Capa_2" data-name="Capa 2"><g id="ARTES"><path class="cls-1" d="M46.61,0H3.39A3.39,3.39,0,0,0,0,3.39V46.61A3.39,3.39,0,0,0,3.39,50H26.33V30.38l-6.28-.05V22.68l6.28,0V15.31c0-5.42,2.85-8.25,9.18-8.25H43v7.52H36.8c-1.63,0-2,.68-2,2.39v5.75l7.7,0L42,29a1.36,1.36,0,0,1-1.35,1.25l-5.82,0V50H46.61A3.39,3.39,0,0,0,50,46.61V3.39A3.39,3.39,0,0,0,46.61,0Z"/></g></g></svg>