<svg xmlns="http://www.w3.org/2000/svg" viewBox="0 0 50 50"><defs><style>.cls-1{fill:#666;}</style></defs><title>instagram_iconbw</title><g id="Capa_2" data-name="Capa 2"><g id="ARTES"><path class="cls-1" d="M25,14.84A10.16,10.16,0,1,0,35.16,25,10.16,10.16,0,0,0,25,14.84Z"/><path class="cls-1" d="M48.77,7a9.36,9.36,0,0,0-2.28-3.51A9.36,9.36,0,0,0,43,1.23a16.58,16.58,0,0,0-5.66-1C34.11,0,33.14,0,25,0S15.89,0,12.68.18A16.58,16.58,0,0,0,7,1.23,9.36,9.36,0,0,0,3.51,3.51,9.36,9.36,0,0,0,1.23,7a16.58,16.58,0,0,0-1,5.66C0,15.89,0,16.86,0,25s0,9.11.18,12.32A16.58,16.58,0,0,0,1.23,43a9.36,9.36,0,0,0,2.28,3.51A9.36,9.36,0,0,0,7,48.77a16.58,16.58,0,0,0,5.66,1C15.89,50,16.86,50,25,50s9.11,0,12.32-.18a16.58,16.58,0,0,0,5.66-1A10.07,10.07,0,0,0,48.77,43a16.58,16.58,0,0,0,1-5.66C50,34.11,50,33.14,50,25s0-9.11-.18-12.32A16.58,16.58,0,0,0,48.77,7ZM25,40.66A15.66,15.66,0,1,1,40.66,25,15.66,15.66,0,0,1,25,40.66ZM41.28,12.38a3.66,3.66,0,1,1,3.66-3.66A3.66,3.66,0,0,1,41.28,12.38Z"/></g></g></svg>