<svg xmlns="http://www.w3.org/2000/svg" viewBox="0 0 50 50"><defs><style>.cls-1{fill:#666;}</style></defs><title>linkedin_iconbw</title><g id="Capa_2" data-name="Capa 2"><g id="ARTES"><path class="cls-1" d="M44.8,0H5.2A5.2,5.2,0,0,0,0,5.2V44.8A5.2,5.2,0,0,0,5.2,50H44.8A5.2,5.2,0,0,0,50,44.8V5.2A5.2,5.2,0,0,0,44.8,0ZM15.31,42.9H7.93V19.05h7.38Zm-3.72-27A4.4,4.4,0,1,1,16,11.52,4.39,4.39,0,0,1,11.59,15.92ZM43,42.9H35.63V30.38c0-3.43-1.3-5.35-4-5.35-2.95,0-4.49,2-4.49,5.35V42.9H20V19.05h7.09v3.21a8.29,8.29,0,0,1,7.18-3.94c5.06,0,8.68,3.09,8.68,9.48Z"/></g></g></svg>