<svg xmlns="http://www.w3.org/2000/svg" xmlns:xlink="http://www.w3.org/1999/xlink" viewBox="0 0 271.4 104"><defs><style>.cls-1{fill:none;}.cls-2{clip-path:url(#clip-path);}.cls-3{fill:#007aba;}.cls-4{fill:#fff;}</style><clipPath id="clip-path"><circle class="cls-1" cx="52.03" cy="52" r="34.67"/></clipPath></defs><title>logo</title><g id="Capa_2" data-name="Capa 2"><g id="ARTES"><g class="cls-2"><circle class="cls-3" cx="52.03" cy="52" r="34.67"/><path id="Relleno" class="cls-4" d="M24,73.82S29.48,67.47,35.25,54c5.22-12.18,6.55-21,16.57-24.55a12,12,0,0,1,9.11.35,11,11,0,0,1,5.81,6.58c1.52,4.15,3.58,7.86,6.31,10.29a20.57,20.57,0,0,1,4.3,5.62s-2.1.12-8.73-2.19A3.76,3.76,0,0,0,66.71,50c-1.74.32-5.3.59-6.87.76-.85.1-1.86,1.53-2.2,2.31-1.65,3.84-1.47,6.5.19,14.75a77.59,77.59,0,0,1,1.69,18.09v2.89H24Z"/><path class="cls-3" d="M59.35,86.31v-7l-1-8.36L56.79,63l-.5-8.12,3.06-3.84,2.88-1,5.36-.59L71.37,51l5.68,1.12s-7-3.13-8.9-3.75a4.13,4.13,0,0,0-3,0c-2.88,1-7.39,2.31-16-1.18-1.28-.51-2.16-.46,0,3,0,0,5.53,8.67,7,18.41a113,113,0,0,1,1.21,18Z"/><path class="cls-3" d="M67.14,43.91c-.64,0-.76-1.24-1.26-1.73S64.57,41,65.52,41c0,0,2.64.57,2.73,1.36A1.39,1.39,0,0,1,67.14,43.91Z"/><path class="cls-3" d="M54.28,38.1s3.4-.83,4.1-.3a9,9,0,0,1,1.58,2S58,40.77,54.28,38.1Z"/><path class="cls-3" d="M24.43,73l6.08-8.52,5-11.46,6.21-14.71,3.63-5.34,8.59-4.3,5.45.86s-6.12-.29-9.17,2.67S41.87,44.3,37.48,58.72s-5.92,18.62-8.21,20.34-6-4.68-6-4.68Z"/><circle cx="57.78" cy="39.18" r="1.38"/><path d="M77.55,52.2a27.81,27.81,0,0,0-1.48-2.47,20.5,20.5,0,0,0-1.75-2.3l-.5-.53-.53-.51-.5-.48-.48-.5a18.32,18.32,0,0,1-1.72-2.2,21.59,21.59,0,0,1-1.42-2.42c-.42-.83-.8-1.69-1.15-2.56l-.5-1.32-.23-.66c-.08-.23-.16-.46-.25-.69a12.6,12.6,0,0,0-1.36-2.66,12,12,0,0,0-.93-1.2,11,11,0,0,0-1.09-1.07,11.17,11.17,0,0,0-1.23-.91c-.22-.13-.43-.27-.65-.39s-.45-.24-.68-.34A12.39,12.39,0,0,0,58.19,28a13.54,13.54,0,0,0-3-.2l-.52.05a10.21,10.21,0,0,0-.27-1.5c-5.26-.43-9.72,3.72-9.72,3.72s0,1,.23,2.61l-.33.32a22.26,22.26,0,0,0-3.37,4.86c-.45.86-.85,1.74-1.24,2.63s-.72,1.78-1,2.68c-.65,1.8-1.25,3.61-1.88,5.4L36.51,50,36,51.28c-.35.88-.71,1.76-1.09,2.63A92.4,92.4,0,0,1,29.74,64c-.23.41-.49.81-.73,1.21l-.37.61-.39.59c-.51.79-1.05,1.57-1.59,2.34S25.56,70.28,25,71c-.29.37-.59.73-.89,1.08-.16.17-.31.35-.46.52s-.32.35-.46.48l1.67,1.45c.17-.23.3-.42.44-.63s.28-.4.41-.61c.27-.4.54-.81.79-1.22.52-.82,1-1.64,1.5-2.48s1-1.66,1.41-2.5l.69-1.27c.22-.42.45-.84.66-1.27,1.75-3.4,3.35-6.87,4.83-10.38l1.1-2.64.55-1.32.56-1.31c.75-1.75,1.5-3.5,2.29-5.22q.59-1.29,1.2-2.55c.41-.85.84-1.67,1.3-2.48A21.69,21.69,0,0,1,45.17,35c.13.77.29,1.6.49,2.45a3.68,3.68,0,1,0,2.61-.81c-.31-1.42-.52-2.77-.65-3.88a15.09,15.09,0,0,1,2.55-1.55c.4-.2.82-.38,1.24-.55l.63-.25.63-.21a12,12,0,0,1,2.59-.49,11.45,11.45,0,0,1,5.17.83c.2.08.4.18.6.27l.59.31a10,10,0,0,1,1.1.73,9.06,9.06,0,0,1,1,.87,10.61,10.61,0,0,1,.88,1A11.5,11.5,0,0,1,66,36c.1.2.18.41.27.63l.27.67c.19.44.38.89.58,1.32.4.88.83,1.74,1.31,2.58a27.28,27.28,0,0,0,1.52,2.47,20.78,20.78,0,0,0,1.83,2.26l.51.52.54.49.52.47.5.48A23.3,23.3,0,0,1,75.65,50a15.12,15.12,0,0,1,1.32,2h0l-.41,0c-.27,0-.55-.09-.82-.15-.55-.11-1.1-.26-1.64-.42-1.08-.32-2.15-.69-3.21-1.08l-1.59-.59-.4-.15-.21-.08-.24-.07a4.54,4.54,0,0,0-1-.14,4,4,0,0,0-.49,0l-.25,0-.22,0-.82.11q-.84.11-1.68.18c-1.12.11-2.25.2-3.39.3l-.43,0L60,50h-.23a2.12,2.12,0,0,0-.63.21,3.08,3.08,0,0,0-.46.31A6.56,6.56,0,0,0,57.37,52c-.09.13-.17.27-.25.41s-.16.31-.22.43c-.13.27-.26.54-.38.81a9.68,9.68,0,0,0-.63,1.71,8,8,0,0,0-.29,1.81,15.59,15.59,0,0,0,0,1.81,27.87,27.87,0,0,0,.5,3.47c.21,1.13.48,2.25.72,3.36l.39,1.67c.13.56.24,1.11.36,1.66s.23,1.11.33,1.66l.16.84.14.83q.15.84.27,1.68t.24,1.68l.11.85.09.84c.06.56.11,1.13.16,1.69s.09,1.13.13,1.7.06,1.13.08,1.69c0,1.14.06,2.27,0,3.4l.4,0a83.32,83.32,0,0,0-.66-13.67L59,71.53l-.12-.85c-.08-.56-.16-1.13-.26-1.69-.19-1.13-.38-2.25-.56-3.37q-.13-.84-.24-1.68c-.07-.56-.14-1.12-.2-1.68-.11-1.12-.19-2.23-.19-3.31a20.39,20.39,0,0,1,.3-3.16A14.56,14.56,0,0,1,58,54.23q.11-.39.24-.78c0-.14.08-.23.13-.34a2.68,2.68,0,0,1,.18-.33,4.62,4.62,0,0,1,.91-1.15,1,1,0,0,1,.42-.25l.39-.05.43,0,.49-.05a10.57,10.57,0,0,1,1,2.92,2.07,2.07,0,0,0-.45,1.56c.19.76.76,1.26,1.26,1.13s.75-.84.56-1.59a1.62,1.62,0,0,0-.81-1.09,12.72,12.72,0,0,0-1.07-3l2.37-.25,1.71-.22.86-.14.2,0,.18,0a2.19,2.19,0,0,1,.36,0,3.53,3.53,0,0,1,.72.08l.18.05.18,0,.41.13.82.25.83.24c1.1.29,2.22.56,3.35.79.56.11,1.12.21,1.69.3.29,0,.57.09.86.12l.44,0h.45l.36,0ZM52.13,28.38c-.24.07-.49.15-.72.24l-.7.26c-.46.18-.92.39-1.36.61a17.76,17.76,0,0,0-1.94,1.12c0-.51,0-.81,0-.81a10.33,10.33,0,0,1,5.26-2.48,6.62,6.62,0,0,1,.15.89C52.55,28.26,52.34,28.31,52.13,28.38Z"/><circle class="cls-4" cx="58.26" cy="38.83" r="0.48"/></g><path d="M126.17,42.1c0,7.49-4.69,11.82-12.87,11.82h-6.39v9.2H99.64V30.92H113.3C121.48,30.92,126.17,35,126.17,42.1Zm-6.89.23c0-3.59-2.3-5.38-6.35-5.38h-6v10.9h6C117,47.85,119.28,46,119.28,42.33Z"/><path d="M138.09,30.92v32.2h-7.27V30.92Z"/><path d="M174.32,47c0,9.47-7,16.1-17.2,16.1H143.74V30.92H157.4C167.38,30.92,174.32,37.5,174.32,47Zm-7.4,0c0-5.94-4.14-10-9.66-10H151V57h6.57C163,57,166.92,53,166.92,47.07Z"/><path d="M200.45,46.88h6.3V59.25a23.8,23.8,0,0,1-13.06,4.19c-9.75,0-17.16-7.08-17.16-16.42s7.54-16.33,17.57-16.33A20.28,20.28,0,0,1,207,35.38l-4.09,5.2A13.46,13.46,0,0,0,194.1,37a10.05,10.05,0,1,0,.05,20.1,14.64,14.64,0,0,0,6.3-1.75Z"/><path d="M219.39,30.92v32.2h-7.26V30.92Z"/><path d="M231.54,30.92l15.63,20.7V30.92h6.9v32.2h-6.62L231.86,42.47V63.12h-7V30.92Z"/><path class="cls-3" d="M103.33,67.58a2.68,2.68,0,1,0,0,5.36,2.93,2.93,0,0,0,2-.8l.48.51a3.75,3.75,0,0,1-2.51,1,3.4,3.4,0,1,1,0-6.79,3.64,3.64,0,0,1,2.47,1l-.47.56A2.86,2.86,0,0,0,103.33,67.58Z"/><path class="cls-3" d="M115.37,70.27a3.53,3.53,0,1,1-3.52-3.39A3.44,3.44,0,0,1,115.37,70.27Zm-6.28,0a2.75,2.75,0,0,0,5.49,0,2.75,2.75,0,0,0-5.49,0Z"/><path class="cls-3" d="M119.2,66.89l4,5.49V66.89H124v6.75h-.79l-4-5.47v5.47h-.77V66.89Z"/><path class="cls-3" d="M132.24,66.89v.72H130v6h-.77v-6h-2.2v-.72Z"/><path class="cls-3" d="M138.91,71.91h-3.67l-.75,1.73h-.82l3-6.75h.79l3,6.75h-.84Zm-.31-.71-1.53-3.47-1.51,3.47Z"/><path class="cls-3" d="M146.22,67.58a2.68,2.68,0,1,0,0,5.36,2.94,2.94,0,0,0,2-.8l.47.51a3.72,3.72,0,0,1-2.5,1,3.4,3.4,0,1,1,0-6.79,3.62,3.62,0,0,1,2.47,1l-.46.56A2.87,2.87,0,0,0,146.22,67.58Z"/><path class="cls-3" d="M156.26,66.89v.72h-2.2v6h-.77v-6h-2.2v-.72Z"/><path class="cls-3" d="M166.08,67.62c-.87,0-1.43.34-1.43.92,0,1.76,3.79.84,3.78,3.29,0,1.11-1,1.84-2.44,1.84a3.89,3.89,0,0,1-2.58-1l.35-.67a3.38,3.38,0,0,0,2.24,1c1,0,1.58-.4,1.58-1,0-1.81-3.78-.85-3.78-3.27,0-1.06.93-1.73,2.33-1.73a4,4,0,0,1,2.14.62l-.33.69A3.52,3.52,0,0,0,166.08,67.62Z"/><path class="cls-3" d="M176.52,66.89v.72h-3.81v2.26h3.4v.7h-3.4v2.36h3.93v.71h-4.7V66.89Z"/><path class="cls-3" d="M184.55,73.64l-1.42-2.16-.43,0h-1.79v2.14h-.77V66.89h2.56c1.69,0,2.66.83,2.66,2.27a2.11,2.11,0,0,1-1.52,2.18l1.59,2.3Zm-1.85-2.85c1.22,0,1.92-.55,1.92-1.61s-.7-1.57-1.92-1.57h-1.79v3.18Z"/><path class="cls-3" d="M188.81,66.89l2.32,5.88,2.33-5.88h.81l-2.75,6.75h-.8L188,66.89Z"/><path class="cls-3" d="M198.05,66.89v6.75h-.77V66.89Z"/><path class="cls-3" d="M204.91,67.58a2.68,2.68,0,1,0,0,5.36,2.93,2.93,0,0,0,2-.8l.47.51a3.72,3.72,0,0,1-2.5,1,3.4,3.4,0,1,1,0-6.79,3.66,3.66,0,0,1,2.47,1l-.47.56A2.86,2.86,0,0,0,204.91,67.58Z"/><path class="cls-3" d="M215.27,66.89v.72h-3.81v2.26h3.4v.7h-3.4v2.36h3.93v.71h-4.7V66.89Z"/><path class="cls-3" d="M220.84,67.62c-.86,0-1.43.34-1.43.92,0,1.76,3.79.84,3.79,3.29,0,1.11-1,1.84-2.44,1.84a3.85,3.85,0,0,1-2.58-1l.34-.67a3.41,3.41,0,0,0,2.25,1c1,0,1.58-.4,1.58-1,0-1.81-3.79-.85-3.79-3.27,0-1.06.94-1.73,2.33-1.73a4,4,0,0,1,2.14.62l-.33.69A3.49,3.49,0,0,0,220.84,67.62Z"/><rect class="cls-1" width="271.4" height="104"/></g></g></svg>