<svg id="Capa_1" data-name="Capa 1" xmlns="http://www.w3.org/2000/svg" xmlns:xlink="http://www.w3.org/1999/xlink" viewBox="0 0 1166.92 968.75"><defs><style>.cls-1{fill:none;}.cls-2{clip-path:url(#clip-path);}.cls-3{fill:#007aba;}.cls-4{fill:#fff;}</style><clipPath id="clip-path"><circle class="cls-1" cx="583.15" cy="318.8" r="215.89"/></clipPath></defs><title>Logo y versiones</title><g class="cls-2"><circle class="cls-3" cx="583.15" cy="318.8" r="215.89"/><path id="Relleno" class="cls-4" d="M408.56,454.66s34.16-39.51,70.1-123.37c32.5-75.83,40.77-130.53,103.14-152.88a74.81,74.81,0,0,1,56.76,2.22c19,8.83,29.88,23.72,36.18,41,9.46,25.85,22.29,49,39.31,64.1s26.77,35,26.77,35-13.11.77-54.37-13.67a23.51,23.51,0,0,0-11.88-.95c-10.87,1.94-33,3.65-42.81,4.74-5.26.59-11.59,9.52-13.68,14.38-10.29,23.91-9.19,40.45,1.18,91.86,13.35,66.18,10.52,112.6,10.52,112.6v18H408.56Z"/><path class="cls-3" d="M628.68,532.48V489.14l-6-52.06-9.9-49.52L609.66,337l19-23.94,18-6.29L680,303.11l23.56,9.56L739,319.6S695,300.1,683.51,296.26c0,0-8-3.94-18.86,0-17.93,6.53-46,14.39-99.45-7.35-8-3.2-13.44-2.88,0,18.87,0,0,34.45,54,43.57,114.63a699.74,699.74,0,0,1,7.53,112.28Z"/><path class="cls-3" d="M677.21,268.42c-4,.15-4.74-7.69-7.84-10.8s-8.14-7.55-2.22-7.55c0,0,16.42,3.56,17,8.44S681.2,268.27,677.21,268.42Z"/><path class="cls-3" d="M597.13,232.27s21.18-5.17,25.54-1.9S632.51,243,632.51,243,620.18,248.84,597.13,232.27Z"/><path class="cls-3" d="M411.23,449.4l37.87-53.07L480,325l38.65-91.58,22.6-33.3,53.52-26.76,33.89,5.35s-38-1.78-57.08,16.65-51.74,75.52-79.09,165.32-36.87,116-51.14,126.66-37.47-29.14-37.47-29.14Z"/><circle cx="618.96" cy="238.99" r="8.62"/><path d="M742.08,320.06c-2.84-5.35-5.93-10.41-9.24-15.42a120.68,120.68,0,0,0-10.93-14.32c-1-1.12-2.07-2.2-3.11-3.3l-3.28-3.13-3.13-3c-1-1.05-2-2.07-3-3.14a116.47,116.47,0,0,1-10.72-13.67,144,144,0,0,1-8.8-15.06c-2.63-5.21-5-10.55-7.16-16-1.09-2.71-2.1-5.45-3.11-8.19l-1.44-4.14c-.51-1.41-1-2.89-1.56-4.32a81.94,81.94,0,0,0-8.49-16.55,72.71,72.71,0,0,0-5.76-7.49,69.81,69.81,0,0,0-6.81-6.62,73.18,73.18,0,0,0-7.65-5.68c-1.36-.81-2.7-1.66-4.09-2.42s-2.78-1.53-4.23-2.16a76.48,76.48,0,0,0-18.08-5.87,81.24,81.24,0,0,0-19-1.24q-1.62.1-3.24.27a62.14,62.14,0,0,0-1.67-9.3c-32.77-2.7-60.53,23.14-60.53,23.14s.25,6.47,1.39,16.23c-.68.68-1.36,1.35-2,2-8.57,9.08-15.33,19.52-21,30.24-2.85,5.37-5.35,10.86-7.73,16.37s-4.5,11.11-6.53,16.71c-4,11.21-7.74,22.47-11.7,33.62l-3,8.34-3.16,8.28c-2.12,5.51-4.41,11-6.77,16.37a581.65,581.65,0,0,1-32.23,62.93c-1.47,2.55-3.06,5-4.59,7.54l-2.31,3.76c-.78,1.25-1.61,2.46-2.41,3.7-3.19,4.93-6.5,9.78-9.87,14.57s-6.9,9.48-10.55,14c-1.81,2.28-3.68,4.51-5.55,6.72-.95,1.08-1.89,2.19-2.86,3.23s-2,2.15-2.84,3l10.39,9c1-1.39,1.86-2.6,2.75-3.88s1.7-2.54,2.56-3.8c1.66-2.54,3.33-5.06,4.91-7.62q4.83-7.65,9.32-15.42c3-5.17,6-10.35,8.81-15.61q2.16-3.93,4.25-7.87c1.38-2.64,2.83-5.25,4.16-7.91,10.88-21.19,20.83-42.78,30-64.66L487.41,316l3.43-8.21,3.48-8.19c4.65-10.9,9.36-21.77,14.25-32.48,2.45-5.35,4.91-10.68,7.49-15.92s5.24-10.4,8.08-15.42a135.47,135.47,0,0,1,16.29-23.14c.81,4.84,1.81,10,3,15.28a22.94,22.94,0,1,0,16.26-5c-1.94-8.84-3.23-17.24-4.09-24.2a100.65,100.65,0,0,1,15.9-9.64c2.52-1.24,5.12-2.34,7.72-3.42,1.3-.54,2.63-1,4-1.54s2.6-.89,3.91-1.33a73.7,73.7,0,0,1,16.12-3,70.33,70.33,0,0,1,32.17,5.15c1.29.48,2.51,1.13,3.77,1.68s2.43,1.27,3.65,1.91a62.71,62.71,0,0,1,6.86,4.55,63.75,63.75,0,0,1,6.21,5.42,65.19,65.19,0,0,1,5.44,6.27,74,74,0,0,1,8.55,14.51c.6,1.3,1.11,2.6,1.67,4l1.69,4.17c1.16,2.76,2.34,5.52,3.59,8.25q3.75,8.19,8.14,16.06A177,177,0,0,0,694.49,267a125.66,125.66,0,0,0,11.38,14.09c1,1.09,2.14,2.14,3.2,3.22l3.36,3.07,3.22,2.92c1,1,2.08,2,3.11,3a133.81,133.81,0,0,1,11.48,13.18,99.26,99.26,0,0,1,8.2,12.67h-.16c-.85-.1-1.71-.19-2.57-.33-1.71-.24-3.43-.56-5.14-.93-3.42-.72-6.82-1.62-10.18-2.63-6.75-2-13.39-4.31-20-6.73l-9.9-3.68-2.47-.93c-.38-.15-.89-.33-1.37-.49s-1-.3-1.46-.43a27.37,27.37,0,0,0-6-.89,28.42,28.42,0,0,0-3.06.08c-.51,0-1,.1-1.52.16l-1.38.21c-1.68.25-3.4.46-5.13.67-3.46.43-7,.8-10.45,1.14-7,.68-14,1.26-21.13,1.87l-2.67.22-1.34.12-.67.07-.34,0h-.17l-.28,0a11.75,11.75,0,0,0-3.91,1.32,19.45,19.45,0,0,0-2.86,1.9,39.2,39.2,0,0,0-7.87,9.05c-.54.83-1,1.68-1.55,2.56s-1,1.94-1.36,2.7q-1.26,2.44-2.41,5a64.55,64.55,0,0,0-3.89,10.64,51,51,0,0,0-1.84,11.29,97.91,97.91,0,0,0,.17,11.25,172.85,172.85,0,0,0,3.07,21.62c1.36,7.06,3,14,4.53,20.94l2.4,10.39c.83,3.46,1.49,6.89,2.25,10.34s1.41,6.9,2.07,10.36l1,5.19.88,5.21c.6,3.47,1.19,6.95,1.68,10.44s1.07,7,1.48,10.48l.66,5.25.57,5.26c.39,3.5.71,7,1,10.53s.54,7,.81,10.56.4,7.05.51,10.57c.24,7,.38,14.13.1,21.13l2.52.15c1.21-28.49-.72-56.88-4.13-85.14l-.66-5.29-.77-5.29c-.51-3.52-1-7.05-1.63-10.55-1.17-7-2.35-14-3.45-21-.56-3.48-1.06-7-1.51-10.46s-.88-7-1.25-10.45a201.24,201.24,0,0,1-1.2-20.63,124.3,124.3,0,0,1,1.87-19.67c.57-3.21,1.28-6.44,2.16-9.7.45-1.62.95-3.25,1.5-4.87a21.54,21.54,0,0,1,.84-2.13c.32-.68.7-1.37,1.09-2.05a29.06,29.06,0,0,1,5.71-7.17,6.59,6.59,0,0,1,2.57-1.55l2.48-.31,2.62-.3c1-.12,2.07-.22,3.11-.33a69.35,69.35,0,0,1,6.47,18.22c-1.56,1.86-3.69,6.33-2.82,9.71,1.21,4.69,4.72,7.84,7.84,7s4.68-5.26,3.48-9.94c-.85-3.3-2.84-5.83-5-6.77-1.4-6.31-4.25-14.29-6.7-18.6,4.92-.52,9.86-1,14.8-1.59,3.54-.41,7.08-.84,10.64-1.34,1.79-.26,3.57-.55,5.38-.89l1.24-.23c.37-.07.74-.12,1.11-.16a18.58,18.58,0,0,1,2.24-.14,20.4,20.4,0,0,1,4.47.48l1.1.28,1.15.36,2.55.79c1.71.52,3.4,1.06,5.12,1.56l5.15,1.46c6.89,1.85,13.84,3.52,20.84,4.95,3.5.71,7,1.33,10.57,1.89,1.78.26,3.55.51,5.35.71.9.1,1.8.17,2.71.24s1.78.1,2.85.06l2.2-.09ZM583.77,171.69c-1.51.48-3,1-4.51,1.49s-2.9,1.06-4.34,1.64c-2.88,1.13-5.71,2.41-8.49,3.8a111,111,0,0,0-12.09,7c-.24-3.18-.31-5-.31-5s11.38-11.6,32.78-15.45a40,40,0,0,1,.91,5.5C586.39,171,585.08,171.3,583.77,171.69Z"/><circle class="cls-4" cx="621.96" cy="236.8" r="3"/></g><path d="M267.54,669.43c0,46.68-29.21,73.6-80.18,73.6H147.55v57.28H102.3V599.83h85.06C238.33,599.83,267.54,625,267.54,669.43Zm-43,1.43c0-22.34-14.32-33.51-39.53-33.51H147.55v67.88h37.51C210.27,705.23,224.59,693.77,224.59,670.86Z"/><path d="M341.72,599.83V800.31H296.47V599.83Z"/><path d="M567.4,700.07c0,59-43.82,100.24-107.11,100.24H377V599.83H462C524.15,599.83,567.4,640.79,567.4,700.07Zm-46.11.29c0-37-25.78-62.44-60.14-62.44H422.2v124.3h40.95C496.66,762.22,521.29,737,521.29,700.36Z"/><path d="M730.07,699.21h39.24v77c-21.19,15.47-53.56,26.06-81.34,26.06-60.71,0-106.82-44.1-106.82-102.24,0-57.85,47-101.67,109.4-101.67,29.79,0,60.14,11.46,80.48,29.21L745.54,660c-14.89-13.75-35.51-22.34-55-22.34-35.51,0-63,27.2-63,62.43,0,35.51,27.78,62.72,63.29,62.72,12,0,26.35-4.3,39.23-10.88Z"/><path d="M848.07,599.83V800.31H802.82V599.83Z"/><path d="M923.68,599.83l97.37,128.88V599.83h43V800.31h-41.24L925.68,671.72V800.31H882.44V599.83Z"/><path class="cls-3" d="M188.72,828.1a16.71,16.71,0,1,0,0,33.42,18.31,18.31,0,0,0,12.42-5l2.94,3.18a23.08,23.08,0,0,1-15.6,6.36c-12.12,0-21.72-9.36-21.72-21.24s9.72-21.06,21.9-21.06A22.71,22.71,0,0,1,204,829.84l-2.88,3.48A17.84,17.84,0,0,0,188.72,828.1Z"/><path class="cls-3" d="M263.72,844.84c0,11.82-9.72,21.18-22,21.18s-22-9.36-22-21.18,9.72-21.12,22-21.12S263.72,833,263.72,844.84Zm-39.12,0a17.1,17.1,0,0,0,34.2,0,17.11,17.11,0,0,0-34.2,0Z"/><path class="cls-3" d="M287.54,823.84,312.74,858V823.84h4.74v42h-4.92l-25.2-34.08v34.08h-4.8v-42Z"/><path class="cls-3" d="M368.78,823.84v4.44H355v37.56h-4.8V828.28H336.56v-4.44Z"/><path class="cls-3" d="M410.3,855.1H387.44l-4.68,10.74h-5.1l18.84-42h5l18.78,42H415Zm-1.92-4.44-9.54-21.6-9.42,21.6Z"/><path class="cls-3" d="M455.84,828.1a16.71,16.71,0,1,0,0,33.42,18.31,18.31,0,0,0,12.42-5l2.94,3.18A23.08,23.08,0,0,1,455.6,866c-12.12,0-21.72-9.36-21.72-21.24s9.72-21.06,21.9-21.06a22.71,22.71,0,0,1,15.36,6.12l-2.88,3.48A17.84,17.84,0,0,0,455.84,828.1Z"/><path class="cls-3" d="M518.36,823.84v4.44H504.62v37.56h-4.8V828.28H486.14v-4.44Z"/><path class="cls-3" d="M579.5,828.34c-5.4,0-8.94,2.16-8.94,5.76,0,10.92,23.64,5.22,23.58,20.46,0,7-6.18,11.46-15.18,11.46a24,24,0,0,1-16.08-6.42l2.16-4.14a21.1,21.1,0,0,0,14,5.88c6.06,0,9.84-2.46,9.84-6.54.06-11.22-23.58-5.28-23.58-20.34,0-6.6,5.82-10.8,14.52-10.8a24.85,24.85,0,0,1,13.32,3.9l-2,4.26A22.12,22.12,0,0,0,579.5,828.34Z"/><path class="cls-3" d="M656,844.84c0,11.82-9.72,21.18-22,21.18s-22-9.36-22-21.18,9.72-21.12,22-21.12S656,833,656,844.84Zm-39.12,0a17.1,17.1,0,0,0,34.2,0,17.11,17.11,0,0,0-34.2,0Z"/><path class="cls-3" d="M681.56,823.84V861.4H700v4.44H676.76v-42Z"/><path class="cls-3" d="M736.52,861.64c8,0,12.78-4.8,12.78-13.08V823.84h4.8v24.72c0,11-6.6,17.46-17.58,17.46s-17.7-6.48-17.7-17.46V823.84h4.8v24.72C723.62,856.84,728.54,861.64,736.52,861.64Z"/><path class="cls-3" d="M804.38,823.84v4.44H790.64v37.56h-4.8V828.28H772.16v-4.44Z"/><path class="cls-3" d="M828.14,823.84v42h-4.8v-42Z"/><path class="cls-3" d="M892.88,844.84c0,11.82-9.72,21.18-22,21.18s-22-9.36-22-21.18,9.72-21.12,22-21.12S892.88,833,892.88,844.84Zm-39.12,0a17.1,17.1,0,0,0,34.2,0,17.11,17.11,0,0,0-34.2,0Z"/><path class="cls-3" d="M918.62,823.84,943.82,858V823.84h4.74v42h-4.92l-25.2-34.08v34.08h-4.8v-42Z"/><path class="cls-3" d="M985.52,828.34c-5.4,0-8.94,2.16-8.94,5.76,0,10.92,23.64,5.22,23.58,20.46,0,7-6.18,11.46-15.18,11.46a24,24,0,0,1-16.08-6.42l2.16-4.14a21.1,21.1,0,0,0,14,5.88c6.06,0,9.84-2.46,9.84-6.54.06-11.22-23.58-5.28-23.58-20.34,0-6.6,5.82-10.8,14.52-10.8a24.85,24.85,0,0,1,13.32,3.9l-2,4.26A22.12,22.12,0,0,0,985.52,828.34Z"/><rect class="cls-1" width="1160.13" height="968.75"/></svg>
