<svg xmlns="http://www.w3.org/2000/svg" xmlns:xlink="http://www.w3.org/1999/xlink" viewBox="0 0 65.63 67.6"><defs><style>.cls-1{fill:none;}.cls-2{fill:#007aba;}.cls-3{clip-path:url(#clip-path);}.cls-4{fill:url(#Nueva_muestra_de_motivo_3);}.cls-5{fill:#fff;}</style><clipPath id="clip-path"><circle class="cls-1" cx="32.82" cy="32.82" r="32.82"/></clipPath><pattern id="Nueva_muestra_de_motivo_3" data-name="Nueva muestra de motivo 3" width="153" height="153" patternUnits="userSpaceOnUse" viewBox="0 0 153 153"><rect class="cls-1" width="153" height="153"/><rect class="cls-2" width="153" height="153"/></pattern></defs><title>pidgin_hover</title><g id="Capa_2" data-name="Capa 2"><g id="ARTES"><g class="cls-3"><circle class="cls-4" cx="32.82" cy="32.82" r="32.82"/><path id="Relleno" class="cls-5" d="M6.28,53.47s5.19-6,10.65-18.75c4.94-11.53,6.2-19.85,15.68-23.24a11.41,11.41,0,0,1,8.63.33A10.49,10.49,0,0,1,46.74,18c1.44,3.93,3.39,7.44,6,9.74a19.55,19.55,0,0,1,4.07,5.32s-2,.12-8.26-2.08a3.59,3.59,0,0,0-1.81-.14c-1.65.29-5,.55-6.5.72-.8.09-1.77,1.45-2.08,2.19-1.57,3.63-1.4,6.14.18,14A73.4,73.4,0,0,1,39.9,64.87V67.6H6.28Z"/><path class="cls-4" d="M39.74,65.3V58.71l-.91-7.91-1.51-7.53-.47-7.69,2.89-3.64,2.73-1,5.07-.56,3.58,1.45,5.38,1.06s-6.68-3-8.43-3.55a3.89,3.89,0,0,0-2.87,0c-2.72,1-7,2.19-15.11-1.12-1.22-.48-2-.43,0,2.87,0,0,5.24,8.21,6.62,17.43a106.19,106.19,0,0,1,1.15,17.06Z"/><path class="cls-4" d="M47.11,25.16c-.6,0-.72-1.17-1.19-1.64s-1.23-1.15-.34-1.15c0,0,2.5.54,2.59,1.28A1.33,1.33,0,0,1,47.11,25.16Z"/><path class="cls-4" d="M34.94,19.66s3.22-.78,3.88-.29a8.48,8.48,0,0,1,1.5,1.92S38.44,22.18,34.94,19.66Z"/><path class="cls-4" d="M6.68,52.67l5.76-8.07,4.7-10.85L23,19.83l3.43-5.06,8.14-4.07,5.15.82s-5.79-.27-8.68,2.53S23.2,25.53,19,39.18,13.43,56.8,11.26,58.43,5.57,54,5.57,54Z"/><circle cx="38.26" cy="20.68" r="1.31"/><path d="M57,33c-.43-.82-.9-1.58-1.4-2.35a19.18,19.18,0,0,0-1.66-2.17l-.47-.5-.5-.48-.48-.46L52,26.58a18.2,18.2,0,0,1-1.63-2.08A21.75,21.75,0,0,1,49,22.21c-.4-.79-.76-1.6-1.09-2.43-.16-.41-.32-.83-.47-1.24l-.22-.63c-.08-.22-.15-.44-.24-.66a12,12,0,0,0-1.29-2.52,10.6,10.6,0,0,0-.87-1.13,9.92,9.92,0,0,0-1-1,9.66,9.66,0,0,0-1.16-.86c-.21-.13-.41-.26-.62-.37s-.42-.23-.64-.33a11.63,11.63,0,0,0-2.75-.89A12.7,12.7,0,0,0,35.76,10l-.49,0A9.63,9.63,0,0,0,35,8.58c-5-.41-9.2,3.51-9.2,3.51s0,1,.21,2.47l-.3.31a20.49,20.49,0,0,0-3.19,4.6c-.43.81-.81,1.65-1.18,2.49s-.68,1.69-1,2.54c-.61,1.7-1.18,3.41-1.78,5.11l-.45,1.27-.49,1.25c-.32.84-.67,1.67-1,2.49a90.73,90.73,0,0,1-4.9,9.57c-.23.39-.47.76-.7,1.14l-.35.58-.37.56c-.48.75-1,1.49-1.5,2.21s-1.05,1.44-1.6,2.13c-.28.35-.56.69-.85,1-.14.16-.28.33-.43.49s-.3.32-.43.46l1.58,1.36c.15-.21.28-.39.41-.59s.26-.38.39-.58c.26-.38.51-.77.75-1.16.49-.77,1-1.55,1.42-2.34s.91-1.57,1.34-2.37l.64-1.2c.21-.4.43-.8.63-1.2,1.66-3.22,3.17-6.5,4.57-9.83l1-2.5.52-1.24.53-1.25c.71-1.65,1.43-3.31,2.17-4.94.37-.81.75-1.62,1.14-2.41s.79-1.59,1.23-2.35a20.78,20.78,0,0,1,2.47-3.52c.13.74.28,1.52.46,2.33a3.48,3.48,0,1,0,5.68,2.71,3.49,3.49,0,0,0-3.2-3.48c-.3-1.34-.49-2.62-.62-3.68a14.73,14.73,0,0,1,2.41-1.46c.38-.19.78-.36,1.18-.52l.6-.24.59-.2a11.39,11.39,0,0,1,2.45-.46,10.64,10.64,0,0,1,4.89.79c.2.07.38.17.57.25l.56.29c.36.22.71.44,1,.69a9.29,9.29,0,0,1,.94.83,9.41,9.41,0,0,1,.83,1A11.06,11.06,0,0,1,46,17.68c.09.19.17.39.26.6l.25.63c.18.42.36.84.55,1.25.38.83.79,1.65,1.24,2.45s.92,1.57,1.44,2.33a19.73,19.73,0,0,0,1.73,2.14l.49.49.51.47.49.44.47.46a22.17,22.17,0,0,1,1.75,2,15.07,15.07,0,0,1,1.24,1.93h0l-.39,0-.78-.14c-.52-.11-1-.25-1.55-.4-1-.3-2-.66-3-1l-1.51-.56-.37-.14-.21-.07-.22-.07a4.08,4.08,0,0,0-.92-.13,3.53,3.53,0,0,0-.46,0l-.24,0-.2,0-.79.1-1.58.17-3.22.29-.4,0-.2,0h-.23a1.64,1.64,0,0,0-.59.2,3,3,0,0,0-.44.29,5.94,5.94,0,0,0-1.19,1.38q-.12.18-.24.39l-.21.4-.36.77A8.84,8.84,0,0,0,36.47,36a7.72,7.72,0,0,0-.28,1.72,16.2,16.2,0,0,0,0,1.71,27.14,27.14,0,0,0,.47,3.29c.21,1.07.46,2.12.69,3.18l.36,1.58c.13.52.23,1,.35,1.57s.21,1,.31,1.58l.15.78.14.8c.09.52.18,1.05.25,1.58s.16,1.06.23,1.6l.1.79.08.8c.06.54.11,1.07.16,1.6s.08,1.07.12,1.61.06,1.07.08,1.61c0,1.07.06,2.14,0,3.21l.39,0a80,80,0,0,0-.63-12.94l-.1-.81-.12-.8c-.08-.53-.15-1.07-.25-1.6-.17-1.07-.35-2.13-.52-3.19-.09-.53-.16-1.06-.23-1.59s-.13-1.06-.19-1.59a30.52,30.52,0,0,1-.18-3.14,19.55,19.55,0,0,1,.28-3c.09-.48.19-1,.33-1.47.07-.25.14-.49.23-.74a1.93,1.93,0,0,1,.13-.32,2.39,2.39,0,0,1,.16-.32,4.54,4.54,0,0,1,.87-1.09,1,1,0,0,1,.39-.23l.38,0,.39,0,.48,0a10.3,10.3,0,0,1,1,2.77,1.94,1.94,0,0,0-.43,1.47c.19.71.72,1.19,1.19,1.07s.72-.8.53-1.51a1.51,1.51,0,0,0-.76-1A12,12,0,0,0,42,32q1.13-.11,2.25-.24c.54-.06,1.08-.12,1.62-.2l.81-.14.19,0,.17,0,.34,0a3.08,3.08,0,0,1,.68.08l.17,0,.17.05.39.12.78.24.78.22c1,.28,2.11.54,3.17.75.53.11,1.07.21,1.61.29l.81.11.41,0h.44l.33,0ZM32.91,10.45l-.69.23-.65.25c-.44.17-.87.37-1.3.58a16.72,16.72,0,0,0-1.83,1.06c0-.48-.05-.76-.05-.76a9.75,9.75,0,0,1,5-2.35,5.06,5.06,0,0,1,.14.83Z"/><circle class="cls-5" cx="38.72" cy="20.35" r="0.46"/></g></g></g></svg>