<svg xmlns="http://www.w3.org/2000/svg" viewBox="0 0 50 40.54"><defs><style>.cls-1{fill:#00abf0;}</style></defs><title>twitter_icon</title><g id="Capa_2" data-name="Capa 2"><g id="ARTES"><path class="cls-1" d="M0,35.9a29.13,29.13,0,0,0,15.69,4.64c19,0,29.8-16,29.19-30.41A20.93,20.93,0,0,0,50,4.84a20.78,20.78,0,0,1-5.89,1.6A10.27,10.27,0,0,0,48.63.78a20.42,20.42,0,0,1-6.51,2.47,10.25,10.25,0,0,0-17.48,9.31A29.11,29.11,0,0,1,3.55,1.8,10.27,10.27,0,0,0,6.69,15.49,10.25,10.25,0,0,1,2.05,14.2a10.26,10.26,0,0,0,8.2,10.19,10.27,10.27,0,0,1-4.63.16,10.24,10.24,0,0,0,9.56,7.14A20.62,20.62,0,0,1,0,35.9Z"/></g></g></svg>