<svg width="100" height="114" viewBox="0 0 100 114" fill="none" xmlns="http://www.w3.org/2000/svg">
<path d="M99.8316 33.5317C99.8309 31.62 99.4273 29.9307 98.6113 28.4809C97.8098 27.0553 96.6094 25.8604 94.9992 24.9156C81.7082 17.1506 68.4043 9.40923 55.1176 1.63624C51.5355 -0.459087 48.0625 -0.382699 44.507 1.74271C39.2168 4.90391 12.7305 20.2793 4.83789 24.9113C1.5875 26.8178 0.00585938 29.7356 0.00507813 33.5281C0 49.1441 0.00507813 64.7598 0 80.3762C0.00078125 82.2459 0.387109 83.9023 1.16719 85.3303C1.96914 86.7991 3.18633 88.0269 4.83359 88.993C12.7266 93.625 39.2164 108.999 44.5055 112.161C48.0625 114.288 51.5355 114.364 55.1188 112.268C68.4059 104.494 81.7105 96.7533 95.0035 88.9882C96.6508 88.0225 97.868 86.794 98.6699 85.3264C99.4488 83.8983 99.8359 82.2419 99.8367 80.3718C99.8367 80.3718 99.8367 49.1481 99.8316 33.5317Z" fill="#5C8DBC"/>
<path d="M50.0709 56.7999L1.16699 85.3303C1.96895 86.7991 3.18613 88.0269 4.8334 88.993C12.7264 93.625 39.2162 108.999 44.5053 112.161C48.0623 114.288 51.5354 114.364 55.1186 112.268C68.4057 104.494 81.7104 96.7533 95.0034 88.9883C96.6507 88.0225 97.8678 86.794 98.6698 85.3264L50.0709 56.7999Z" fill="#1A4674"/>
<path d="M35.5859 65.2509C38.4316 70.2845 43.7813 73.6796 49.918 73.6796C56.0926 73.6796 61.4727 70.2414 64.3039 65.1539L50.0707 56.7999L35.5859 65.2509Z" fill="#1A4674"/>
<path d="M99.8318 33.5317C99.831 31.62 99.4275 29.9308 98.6115 28.481L50.0713 56.8L98.6701 85.3265C99.449 83.8985 99.8361 82.2421 99.8369 80.3719C99.8369 80.3719 99.8369 49.1481 99.8318 33.5317Z" fill="#1B598E"/>
<path d="M97.1591 58.8391H93.3615V62.6878H89.5631V58.8391H85.7658V54.9916H89.5631V51.1437H93.3615V54.9916H97.1591V58.8391ZM83.3017 58.8391H79.5045V62.6878H75.7068V58.8391H71.9092V54.9916H75.7068V51.1437H79.5045V54.9916H83.3017V58.8391Z" fill="white"/>
<path d="M64.3039 65.154C61.4727 70.2415 56.0926 73.6798 49.918 73.6798C43.7813 73.6798 38.4316 70.2847 35.5859 65.251C34.1564 62.7252 33.4056 59.8636 33.4086 56.952C33.4086 47.7138 40.8004 40.2245 49.918 40.2245C56.0153 40.2245 61.3367 43.5773 64.1965 48.5596L78.6266 40.1402C72.891 30.1084 62.1828 23.3594 49.918 23.3594C31.607 23.3594 16.7637 38.3995 16.7637 56.952C16.7637 63.0385 18.3617 68.7462 21.1547 73.6695C26.8758 83.7543 37.6145 90.545 49.918 90.545C62.2442 90.545 72.9996 83.727 78.7125 73.6125L64.3039 65.154Z" fill="white"/>
</svg>
