<svg width="102" height="114" viewBox="0 0 102 114" fill="none" xmlns="http://www.w3.org/2000/svg">
<path d="M101.547 33.7473C101.546 31.8493 101.137 30.1721 100.311 28.7331C99.4991 27.3173 98.2835 26.131 96.6529 25.193C83.1933 17.4835 69.7205 9.7977 56.2652 2.08041C52.6377 9.39965e-05 49.1206 0.0763279 45.52 2.18651C40.1627 5.32466 13.3403 20.5899 5.34752 25.1887C2.05589 27.0819 0.454176 29.9788 0.453385 33.7437C0.448242 49.2479 0.453385 64.752 0.448242 80.2561C0.448242 82.1124 0.840264 83.7573 1.63024 85.1748C2.44237 86.633 3.675 87.852 5.34317 88.8112C13.3363 93.41 40.1623 108.674 45.5184 111.813C49.1206 113.925 52.6377 114 56.2664 111.919C69.7221 104.202 83.1956 96.5159 96.6573 88.8065C98.3254 87.8476 99.5581 86.6279 100.37 85.1708C101.159 83.753 101.552 82.1085 101.552 80.2518C101.552 80.2518 101.552 49.2518 101.547 33.7473Z" fill="#A179DC"/>
<path d="M51.1543 56.8486L1.62988 85.1746C2.44201 86.6328 3.67464 87.8518 5.34281 88.811C13.3359 93.4098 40.1619 108.674 45.5181 111.813C49.1203 113.924 52.6374 114 56.266 111.919C69.7218 104.202 83.1953 96.5157 96.6569 88.8063C98.3251 87.8474 99.5577 86.6277 100.37 85.1706L51.1543 56.8486Z" fill="#280068"/>
<path d="M101.546 33.7471C101.545 31.8491 101.137 30.1719 100.31 28.7329L51.1543 56.849L100.37 85.1707C101.159 83.7529 101.551 82.1083 101.551 80.2516C101.551 80.2516 101.551 49.2516 101.546 33.7471Z" fill="#390091"/>
<path d="M80.3131 46.2598V51.5545H85.6432V46.2598H88.3082V51.5545H93.6383V54.2018H88.3082V59.4961H93.6383V62.1435H88.3082V67.4382H85.6432V62.1435H80.3131V67.4382H77.648V62.1435H72.3184V59.4961H77.648V54.2018H72.3184V51.5545H77.648V46.2598H80.3131ZM85.6432 54.2014H80.3131V59.4961H85.6432V54.2014Z" fill="white"/>
<path d="M51.2633 19.6691C65.1656 19.6691 77.3032 27.1691 83.8046 38.3173L83.7413 38.21L67.384 47.5655C64.1616 42.1455 58.254 38.4874 51.4765 38.412L51.2629 38.4108C40.9283 38.4108 32.5499 46.7336 32.5499 56.9996C32.5465 60.2354 33.3975 63.4154 35.0179 66.2224C38.2435 71.8161 44.3074 75.5889 51.2633 75.5889C58.2623 75.5889 64.3606 71.7682 67.5695 66.1147L67.4916 66.2502L83.824 75.649C77.3938 86.7029 65.4223 94.1797 51.6818 94.3286L51.2633 94.331C37.317 94.331 25.145 86.7846 18.6598 75.5775C15.494 70.1063 13.6826 63.7636 13.6826 56.9996C13.6826 36.3827 30.5075 19.6687 51.2629 19.6687L51.2633 19.6691Z" fill="white"/>
</svg>
