<svg width="90" height="114" viewBox="0 0 90 114" fill="none" xmlns="http://www.w3.org/2000/svg">
<g clip-path="url(#clip0_484_6508)">
<path d="M29.8951 88.4081C29.8951 88.4081 25.5476 90.9482 32.989 91.8078C42.0039 92.8411 46.6114 92.6929 56.546 90.8037C56.546 90.8037 59.1578 92.4492 62.8055 93.8744C40.5349 103.464 12.4026 93.3189 29.8951 88.4081ZM27.1737 75.8937C27.1737 75.8937 22.2976 79.5201 29.7445 80.2941C39.3746 81.2922 46.9797 81.3739 60.1394 78.8279C60.1394 78.8279 61.9598 80.6819 64.8219 81.6958C37.8951 89.6068 7.90374 82.3197 27.1737 75.8937Z" fill="#5382A1"/>
<path d="M50.1152 54.6651C55.6027 61.0129 48.6737 66.7254 48.6737 66.7254C48.6737 66.7254 62.6068 59.4983 56.208 50.4483C50.2314 42.0083 45.6482 37.8153 70.4599 23.3572C70.4603 23.3569 31.5137 33.1299 50.1152 54.6651Z" fill="#E76F00"/>
<path d="M79.5705 97.6646C79.5705 97.6646 82.7877 100.328 76.0273 102.388C63.1724 106.301 22.5238 107.483 11.2318 102.545C7.17256 100.77 14.7847 98.3079 17.1792 97.7912C19.6764 97.2472 21.1035 97.3485 21.1035 97.3485C16.5892 94.1534 -8.0747 103.622 8.5754 106.334C53.9827 113.733 91.3488 103.002 79.5705 97.6646ZM31.9858 62.9274C31.9858 62.9274 11.3093 67.8617 24.6638 69.6535C30.3024 70.412 41.5429 70.2404 52.0129 69.359C60.5697 68.6338 69.1622 67.0921 69.1622 67.0921C69.1622 67.0921 66.1449 68.3904 63.962 69.8877C42.9654 75.4363 2.40383 72.8548 14.081 67.1796C23.9564 62.3833 31.9858 62.9274 31.9858 62.9274ZM69.0769 83.7583C90.4209 72.6145 80.5526 61.9052 73.6641 63.3483C71.9758 63.7013 71.223 64.0073 71.223 64.0073C71.223 64.0073 71.8501 63.0208 73.0466 62.5938C86.6736 57.7802 97.1537 76.7906 68.6476 84.3202C68.6476 84.3202 68.9785 84.0238 69.0769 83.7583Z" fill="#5382A1"/>
<path d="M56.2085 0.0108643C56.2085 0.0108643 68.0292 11.8912 44.9972 30.1606C26.5278 44.8153 40.7856 53.1712 44.9895 62.7184C34.2089 52.945 26.2972 44.3421 31.605 36.335C39.3953 24.5812 60.9779 18.8826 56.2085 0.0108643Z" fill="#E76F00"/>
<path d="M34.0831 113.955C54.5707 115.273 86.0317 113.224 86.7765 103.484C86.7765 103.484 85.3445 107.176 69.8446 110.109C52.3583 113.415 30.7908 113.029 17.999 110.91C17.9996 110.91 20.618 113.088 34.0831 113.955Z" fill="#5382A1"/>
</g>
<defs>
<clipPath id="clip0_484_6508">
<rect width="89.1774" height="114" fill="white" transform="translate(0.411133)"/>
</clipPath>
</defs>
</svg>
