<svg width="114" height="114" viewBox="0 0 114 114" fill="none" xmlns="http://www.w3.org/2000/svg">
<path d="M113.893 56.8931C113.893 88.3139 88.4208 113.786 56.9996 113.786C25.5783 113.786 0.106445 88.3139 0.106445 56.8927C0.106445 25.4714 25.5783 0 56.9996 0C88.4208 0 113.893 25.4719 113.893 56.8931Z" fill="#3A3C5B"/>
<path d="M96.6324 61.1009C94.7157 49.0049 82.0253 41.1696 72.5753 35.2603C68.4473 32.6788 61.7542 29.3163 60.8885 23.887C60.5314 21.6435 60.5443 19.3257 60.4695 17.0604C60.4397 16.1706 60.4259 15.276 60.3466 14.3885C60.2437 13.2441 59.0788 14.6548 58.4402 13.656C56.858 11.1827 57.4672 14.4054 57.6226 15.7057C57.9887 18.765 58.4184 21.8145 58.3939 24.9023C58.3462 30.8032 57.3955 36.452 55.9242 42.1377C52.4784 55.4521 49.7602 69.0938 53.169 82.7186C53.8753 85.5419 54.7944 88.3269 56.0026 90.9765C56.3677 91.7781 57.0669 94.014 58.0715 94.2821C61.6901 95.2475 64.4261 95.5272 67.3162 98.2186C69.1108 99.8899 70.456 98.977 72.5784 98.1278C79.0069 95.5552 84.5782 92.3173 89.1333 87.0195C95.5369 79.572 98.1785 70.8542 96.6324 61.1009ZM89.8333 73.2802C89.2633 78.2553 86.1426 82.7119 82.9559 86.4063C80.6457 89.0848 77.5205 92.5605 74.0956 93.7806C72.8625 94.2193 74.3214 91.7527 74.5022 91.4806C75.562 89.8864 76.869 88.4801 78.082 87.0048C79.8766 84.8236 81.4308 82.5338 82.4817 79.8922C85.9694 71.1249 85.1767 60.498 80.0151 52.5994C77.2052 48.2995 73.3479 44.6649 69.4599 41.3486C67.5816 39.7464 65.681 38.2314 64.1001 36.3148C63.735 35.8717 60.5065 31.6457 61.5106 31.0205C61.8348 30.8188 68.8908 38.2408 69.6585 38.8201C72.5762 41.0231 75.5767 43.0604 78.2784 45.5412C81.9344 48.9002 85.6893 52.652 87.784 57.22C90.0796 62.2253 90.4532 67.8679 89.8333 73.2798" fill="white"/>
<path d="M54.9041 1.53323C55.9635 2.23994 56.1986 6.35864 56.1986 10.1246C56.1986 13.8911 56.5518 30.1325 55.3748 34.4872C54.1983 38.842 51.4912 43.6674 48.5486 47.9045C45.6064 52.1412 42.1935 61.0858 42.3111 66.6165C42.4287 72.1491 45.6064 81.2108 48.0779 84.9768C50.5587 88.7575 54.7705 94.0264 53.8447 95.2167C52.197 97.3351 45.4888 90.0378 41.958 85.8015C38.4271 81.5644 34.8962 72.972 34.7791 66.2643C34.6611 59.5557 38.4271 53.3177 41.1341 49.5517C43.8416 45.7857 49.1373 39.3127 50.5494 36.3705C51.9615 33.4283 53.492 30.2505 53.9627 26.131C54.4334 22.0118 53.9627 7.30003 53.9627 7.30003C53.9627 7.30003 53.8447 0.826964 54.9041 1.53323Z" fill="white"/>
<path d="M52.0798 8.47692C53.1388 8.94806 53.2568 10.2426 53.2568 11.5371C53.2568 12.8316 52.9036 18.1277 52.5505 23.3067C52.1974 28.4848 48.0787 32.8395 45.0185 35.8992C41.9583 38.9594 33.1313 48.4927 29.836 53.2005C26.5407 57.9079 24.8984 64.1089 25.2462 69.3239C25.5988 74.62 26.8938 79.7986 31.8368 85.3303C36.7797 90.8619 40.1931 93.451 42.7821 94.7459C45.3716 96.0396 47.9611 96.9814 47.3724 98.1588C46.7837 99.3353 44.3118 98.5115 41.6052 97.5705C38.8981 96.6283 29.7184 92.8632 24.4219 86.8608C19.1262 80.858 16.4196 72.8548 16.6547 65.2044C16.8894 57.5548 19.0087 54.377 22.5391 49.4341C26.07 44.4911 35.8384 37.1942 38.8981 35.3114C41.9583 33.4278 46.0774 30.2505 48.0787 27.661C50.079 25.0719 51.138 22.9531 51.0204 19.4227C50.9028 15.8918 51.2564 12.7141 51.1384 11.5371C51.0204 10.3606 51.0204 8.00667 52.0798 8.47692ZM52.3746 100.731C52.8533 100.712 52.5509 102.786 51.7057 103.815C50.8605 104.843 49.4093 105.462 49.2329 105.048C49.0557 104.634 50.2807 104.396 51.1803 103.395C52.0063 102.476 51.7877 100.755 52.3746 100.731ZM61.8998 100.676C61.4216 100.657 61.7239 102.73 62.5691 103.759C63.4139 104.788 64.8656 105.407 65.0415 104.993C65.2187 104.579 63.9937 104.341 63.0942 103.34C62.2681 102.421 62.4868 100.699 61.8998 100.677V100.676ZM57.6658 102.926C57.6658 104.737 57.758 106.206 57.363 106.206C56.8758 106.206 57.0593 104.737 57.0593 102.926C57.0593 101.115 56.8945 99.6466 57.3625 99.6466C57.7945 99.6466 57.6654 101.115 57.6654 102.926" fill="white"/>
</svg>
