<svg width="116" height="112" viewBox="0 0 116 112" fill="none" xmlns="http://www.w3.org/2000/svg">
<path d="M57.3205 0.832323C52.6112 0.853233 48.114 1.23702 44.1568 1.90611C32.4996 3.87402 30.3831 7.99303 30.3831 15.5892V25.6214H57.9305V28.9655H30.3831H20.0448C12.0388 28.9655 5.02849 33.5637 2.83575 42.3111C0.306459 52.3376 0.194271 58.5944 2.83575 69.0637C4.79392 76.8566 9.47029 82.4093 17.4763 82.4093H26.9477V70.3829C26.9477 61.6945 34.8148 54.0307 44.1568 54.0307H71.6721C79.3314 54.0307 85.4458 48.0046 85.4458 40.6544V15.5892C85.4458 8.45549 79.1478 3.09669 71.6721 1.90611C66.9399 1.15338 62.0298 0.811414 57.3205 0.832323ZM42.4231 8.90105C45.2685 8.90105 47.5922 11.1577 47.5922 13.9325C47.5922 16.6974 45.2685 18.9333 42.4231 18.9333C39.5674 18.9333 37.2539 16.6974 37.2539 13.9325C37.2539 11.1577 39.5674 8.90105 42.4231 8.90105Z" fill="url(#paint0_linear_484_6417)"/>
<path d="M88.8809 28.9653V40.6542C88.8809 49.7165 80.8405 57.3439 71.6718 57.3439H44.1565C36.6196 57.3439 30.3828 63.5078 30.3828 70.7202V95.7854C30.3828 102.919 36.8746 107.115 44.1565 109.162C52.8765 111.612 61.2384 112.055 71.6718 109.162C78.607 107.243 85.4455 103.382 85.4455 95.7854V85.7532H57.9302V82.4091H85.4455H99.2192C107.225 82.4091 110.209 77.0729 112.993 69.0635C115.869 60.8179 115.747 52.8885 112.993 42.3109C111.014 34.6951 107.235 28.9653 99.2192 28.9653H88.8809ZM73.4055 92.4413C76.2612 92.4413 78.5747 94.6772 78.5747 97.4421C78.5747 100.217 76.2612 102.474 73.4055 102.474C70.5601 102.474 68.2364 100.217 68.2364 97.4421C68.2364 94.6772 70.5601 92.4413 73.4055 92.4413Z" fill="url(#paint1_linear_484_6417)"/>
<defs>
<linearGradient id="paint0_linear_484_6417" x1="0.896484" y1="0.831421" x2="61.9721" y2="55.297" gradientUnits="userSpaceOnUse">
<stop stop-color="#5A9FD4"/>
<stop offset="1" stop-color="#306998"/>
</linearGradient>
<linearGradient id="paint1_linear_484_6417" x1="72.7435" y1="96.5987" x2="51.3065" y2="65.1618" gradientUnits="userSpaceOnUse">
<stop stop-color="#FFD43B"/>
<stop offset="1" stop-color="#FFE873"/>
</linearGradient>
</defs>
</svg>
