<svg width="114" height="114" viewBox="0 0 114 114" fill="none" xmlns="http://www.w3.org/2000/svg">
<g clip-path="url(#clip0_484_6445)">
<path d="M25.3387 0H88.4841C91.5568 0 94.5404 0.489844 97.4349 1.51406C101.621 3.02813 105.406 5.7 108.256 9.17344C111.151 12.6469 113.065 16.9219 113.733 21.375C114.001 23.0227 114.045 24.6703 114.045 26.318V87.9047C114.045 89.8641 113.956 91.868 113.555 93.7828C112.665 98.1914 110.572 102.333 107.543 105.673C104.56 109.013 100.641 111.506 96.4107 112.842C93.8279 113.644 91.156 114 88.4396 114C87.2372 114 25.1606 114 24.2255 113.955C19.6833 113.733 15.1856 112.263 11.4004 109.725C7.70435 107.231 4.67622 103.758 2.71684 99.75C1.02465 96.3211 0.17856 92.4914 0.17856 88.6617V25.3383C0.0894977 21.5531 0.891061 17.8125 2.53872 14.4281C4.45356 10.4203 7.43716 6.90234 11.1333 4.40859C14.9184 1.82578 19.3715 0.311719 23.9137 0.0890625C24.3591 0 24.8489 0 25.3387 0Z" fill="url(#paint0_linear_484_6445)"/>
<path d="M96.1875 93.2484C95.7867 92.625 95.3414 92.0016 94.8516 91.4227C93.7383 90.0867 92.4469 88.9289 91.0219 87.9492C89.2406 86.7469 87.1477 85.9898 85.0102 85.9008C83.4961 85.8117 81.982 86.0789 80.557 86.6133C79.132 87.1031 77.7516 87.8156 76.4156 88.5281C74.857 89.3297 73.2984 90.1312 71.6508 90.7992C69.6914 91.6008 67.643 92.2242 65.55 92.6695C62.9227 93.1594 60.2508 93.3375 57.6234 93.293C52.8586 93.2039 48.0938 92.4914 43.5516 91.1555C39.5438 89.9531 35.7141 88.3055 32.107 86.2125C28.9453 84.3867 26.0063 82.2937 23.2453 79.9336C20.9742 77.9742 18.8813 75.8812 16.9219 73.6547C15.5859 72.0961 14.2945 70.4484 13.0922 68.7562C12.6023 68.0883 12.157 67.3758 11.7563 66.6633L0 53.9719V25.2492C0 11.3109 11.2664 0 25.2047 0H47.693L64.3477 16.9219C101.932 42.4828 89.775 70.6711 89.775 70.6711C89.775 70.6711 100.463 82.6945 96.1875 93.2484Z" fill="url(#paint1_linear_484_6445)"/>
<path d="M64.4363 16.9219C102.021 42.4828 89.8636 70.6711 89.8636 70.6711C89.8636 70.6711 100.551 82.7391 96.2316 93.293C96.2316 93.293 91.823 85.9008 84.4308 85.9008C77.3058 85.9008 73.1199 93.293 58.7808 93.293C26.8519 93.293 11.7559 66.6188 11.7559 66.6188C40.523 85.5445 60.1613 72.1406 60.1613 72.1406C47.2027 64.6148 19.6379 28.6336 19.6379 28.6336C43.6402 49.0734 54.016 54.4617 54.016 54.4617C47.8261 49.3406 30.459 24.3141 30.459 24.3141C44.3527 38.3859 71.962 58.0242 71.962 58.0242C79.7995 36.293 64.4363 16.9219 64.4363 16.9219Z" fill="white"/>
</g>
<defs>
<linearGradient id="paint0_linear_484_6445" x1="67.8176" y1="-4.06793" x2="46.2792" y2="118.082" gradientUnits="userSpaceOnUse">
<stop stop-color="#FAAE42"/>
<stop offset="1" stop-color="#EF3E31"/>
</linearGradient>
<linearGradient id="paint1_linear_484_6445" x1="58.1632" y1="1.84181" x2="42.3996" y2="91.2414" gradientUnits="userSpaceOnUse">
<stop stop-color="#E39F3A"/>
<stop offset="1" stop-color="#D33929"/>
</linearGradient>
<clipPath id="clip0_484_6445">
<rect width="114" height="114" fill="white"/>
</clipPath>
</defs>
</svg>
